<?xml version="1.0" encoding="UTF-8"?>
<!-- Generator: Adobe Illustrator 16.0.2, SVG Export Plug-In . SVG Version: 6.00 Build 0)  -->
<!DOCTYPE svg PUBLIC "-//W3C//DTD SVG 1.1//EN" "http://www.w3.org/Graphics/SVG/1.1/DTD/svg11.dtd">
<svg version="1.1" xmlns="http://www.w3.org/2000/svg" xmlns:xlink="http://www.w3.org/1999/xlink" x="0px" y="0px" width="50px" height="1015px" viewBox="0 0 50 1015" enable-background="new 0 0 50 1015" xml:space="preserve">
<g id="USA">
	<g>
		<g>
			<g>
				<rect x="0" y="980" fill="#FFFFFF" width="50" height="33"/>
			</g>
			<g>
				<rect x="0" y="980" fill="#AF2B3C" width="50" height="2.537"/>
			</g>
			<g>
				<rect x="0" y="985.076" fill="#AF2B3C" width="50" height="2.539"/>
			</g>
			<g>
				<rect x="0" y="990.154" fill="#AF2B3C" width="50" height="2.537"/>
			</g>
			<g>
				<rect x="0" y="995.23" fill="#AF2B3C" width="50" height="2.539"/>
			</g>
			<g>
				<rect x="0" y="1000.307" fill="#AF2B3C" width="50" height="2.539"/>
			</g>
			<g>
				<rect x="0" y="1005.385" fill="#AF2B3C" width="50" height="2.539"/>
			</g>
			<g>
				<rect x="0" y="1010.461" fill="#AF2B3C" width="50" height="2.539"/>
			</g>
		</g>
		<g>
			<rect x="0" y="980" fill="#424177" width="20" height="17.77"/>
		</g>
		<g>
			<polygon fill="#FFFFFF" points="1.924,981.951 1.234,982.578 1.498,981.563    "/>
		</g>
		<g>
			<polygon fill="#FFFFFF" points="1.63,982.07 0.94,981.443 1.792,981.443    "/>
		</g>
		<g>
			<polygon fill="#FFFFFF" points="1.448,981.756 1.711,980.74 1.974,981.756    "/>
		</g>
		<g>
			<polygon fill="#FFFFFF" points="1.63,981.443 2.482,981.443 1.792,982.07    "/>
		</g>
		<g>
			<polygon fill="#FFFFFF" points="1.924,981.563 2.187,982.578 1.498,981.951    "/>
		</g>
		<g>
			<polygon fill="#FFFFFF" points="5.24,981.951 4.55,982.578 4.813,981.563    "/>
		</g>
		<g>
			<polygon fill="#FFFFFF" points="4.946,982.07 4.256,981.443 5.108,981.443    "/>
		</g>
		<g>
			<polygon fill="#FFFFFF" points="4.763,981.756 5.027,980.74 5.29,981.756    "/>
		</g>
		<g>
			<polygon fill="#FFFFFF" points="4.946,981.443 5.797,981.443 5.108,982.07    "/>
		</g>
		<g>
			<polygon fill="#FFFFFF" points="5.24,981.563 5.503,982.578 4.813,981.951    "/>
		</g>
		<g>
			<polygon fill="#FFFFFF" points="8.555,981.951 7.866,982.578 8.129,981.563    "/>
		</g>
		<g>
			<polygon fill="#FFFFFF" points="8.261,982.07 7.572,981.443 8.424,981.443    "/>
		</g>
		<g>
			<polygon fill="#FFFFFF" points="8.08,981.756 8.342,980.74 8.606,981.756    "/>
		</g>
		<g>
			<polygon fill="#FFFFFF" points="8.261,981.443 9.113,981.443 8.424,982.07    "/>
		</g>
		<g>
			<polygon fill="#FFFFFF" points="8.555,981.563 8.819,982.578 8.129,981.951    "/>
		</g>
		<g>
			<polygon fill="#FFFFFF" points="11.871,981.951 11.182,982.578 11.445,981.563    "/>
		</g>
		<g>
			<polygon fill="#FFFFFF" points="11.577,982.07 10.887,981.443 11.74,981.443    "/>
		</g>
		<g>
			<polygon fill="#FFFFFF" points="11.395,981.756 11.658,980.74 11.921,981.756    "/>
		</g>
		<g>
			<polygon fill="#FFFFFF" points="11.577,981.443 12.43,981.443 11.74,982.07    "/>
		</g>
		<g>
			<polygon fill="#FFFFFF" points="11.871,981.563 12.135,982.578 11.445,981.951    "/>
		</g>
		<g>
			<polygon fill="#FFFFFF" points="15.188,981.951 14.498,982.578 14.761,981.563    "/>
		</g>
		<g>
			<polygon fill="#FFFFFF" points="14.893,982.07 14.203,981.443 15.056,981.443    "/>
		</g>
		<g>
			<polygon fill="#FFFFFF" points="14.71,981.756 14.974,980.74 15.237,981.756    "/>
		</g>
		<g>
			<polygon fill="#FFFFFF" points="14.893,981.443 15.745,981.443 15.056,982.07    "/>
		</g>
		<g>
			<polygon fill="#FFFFFF" points="15.188,981.563 15.45,982.578 14.761,981.951    "/>
		</g>
		<g>
			<polygon fill="#FFFFFF" points="18.503,981.951 17.813,982.578 18.077,981.563    "/>
		</g>
		<g>
			<polygon fill="#FFFFFF" points="18.208,982.07 17.519,981.443 18.371,981.443    "/>
		</g>
		<g>
			<polygon fill="#FFFFFF" points="18.026,981.756 18.29,980.74 18.553,981.756    "/>
		</g>
		<g>
			<polygon fill="#FFFFFF" points="18.208,981.443 19.061,981.443 18.371,982.07    "/>
		</g>
		<g>
			<polygon fill="#FFFFFF" points="18.503,981.563 18.766,982.578 18.077,981.951    "/>
		</g>
		<g>
			<polygon fill="#FFFFFF" points="3.582,983.732 2.893,984.361 3.156,983.344    "/>
		</g>
		<g>
			<polygon fill="#FFFFFF" points="3.288,983.852 2.598,983.225 3.451,983.225    "/>
		</g>
		<g>
			<polygon fill="#FFFFFF" points="3.105,983.539 3.369,982.521 3.632,983.539    "/>
		</g>
		<g>
			<polygon fill="#FFFFFF" points="3.288,983.225 4.139,983.225 3.451,983.852    "/>
		</g>
		<g>
			<polygon fill="#FFFFFF" points="3.582,983.344 3.845,984.361 3.156,983.732    "/>
		</g>
		<g>
			<polygon fill="#FFFFFF" points="6.898,983.732 6.208,984.361 6.472,983.344    "/>
		</g>
		<g>
			<polygon fill="#FFFFFF" points="6.603,983.852 5.914,983.225 6.766,983.225    "/>
		</g>
		<g>
			<polygon fill="#FFFFFF" points="6.421,983.539 6.685,982.521 6.948,983.539    "/>
		</g>
		<g>
			<polygon fill="#FFFFFF" points="6.603,983.225 7.456,983.225 6.766,983.852    "/>
		</g>
		<g>
			<polygon fill="#FFFFFF" points="6.898,983.344 7.161,984.361 6.472,983.732    "/>
		</g>
		<g>
			<polygon fill="#FFFFFF" points="10.213,983.732 9.524,984.361 9.788,983.344    "/>
		</g>
		<g>
			<polygon fill="#FFFFFF" points="9.919,983.852 9.229,983.225 10.082,983.225    "/>
		</g>
		<g>
			<polygon fill="#FFFFFF" points="9.737,983.539 10,982.521 10.264,983.539    "/>
		</g>
		<g>
			<polygon fill="#FFFFFF" points="9.919,983.225 10.771,983.225 10.082,983.852    "/>
		</g>
		<g>
			<polygon fill="#FFFFFF" points="10.213,983.344 10.477,984.361 9.788,983.732    "/>
		</g>
		<g>
			<polygon fill="#FFFFFF" points="13.529,983.732 12.839,984.361 13.104,983.344    "/>
		</g>
		<g>
			<polygon fill="#FFFFFF" points="13.235,983.852 12.545,983.225 13.398,983.225    "/>
		</g>
		<g>
			<polygon fill="#FFFFFF" points="13.052,983.539 13.316,982.521 13.579,983.539    "/>
		</g>
		<g>
			<polygon fill="#FFFFFF" points="13.235,983.225 14.087,983.225 13.398,983.852    "/>
		</g>
		<g>
			<polygon fill="#FFFFFF" points="13.529,983.344 13.792,984.361 13.104,983.732    "/>
		</g>
		<g>
			<polygon fill="#FFFFFF" points="16.845,983.732 16.156,984.361 16.419,983.344    "/>
		</g>
		<g>
			<polygon fill="#FFFFFF" points="16.551,983.852 15.861,983.225 16.714,983.225    "/>
		</g>
		<g>
			<polygon fill="#FFFFFF" points="16.369,983.539 16.632,982.521 16.896,983.539    "/>
		</g>
		<g>
			<polygon fill="#FFFFFF" points="16.551,983.225 17.402,983.225 16.714,983.852    "/>
		</g>
		<g>
			<polygon fill="#FFFFFF" points="16.845,983.344 17.108,984.361 16.419,983.732    "/>
		</g>
		<g>
			<polygon fill="#FFFFFF" points="1.924,985.514 1.234,986.143 1.498,985.125    "/>
		</g>
		<g>
			<polygon fill="#FFFFFF" points="1.63,985.635 0.94,985.006 1.792,985.006    "/>
		</g>
		<g>
			<polygon fill="#FFFFFF" points="1.448,985.32 1.711,984.305 1.974,985.32    "/>
		</g>
		<g>
			<polygon fill="#FFFFFF" points="1.63,985.006 2.482,985.006 1.792,985.635    "/>
		</g>
		<g>
			<polygon fill="#FFFFFF" points="1.924,985.125 2.187,986.143 1.498,985.514    "/>
		</g>
		<g>
			<polygon fill="#FFFFFF" points="5.24,985.514 4.55,986.143 4.813,985.125    "/>
		</g>
		<g>
			<polygon fill="#FFFFFF" points="4.946,985.635 4.256,985.006 5.108,985.006    "/>
		</g>
		<g>
			<polygon fill="#FFFFFF" points="4.763,985.32 5.027,984.305 5.29,985.32    "/>
		</g>
		<g>
			<polygon fill="#FFFFFF" points="4.946,985.006 5.797,985.006 5.108,985.635    "/>
		</g>
		<g>
			<polygon fill="#FFFFFF" points="5.24,985.125 5.503,986.143 4.813,985.514    "/>
		</g>
		<g>
			<polygon fill="#FFFFFF" points="8.555,985.514 7.866,986.143 8.129,985.125    "/>
		</g>
		<g>
			<polygon fill="#FFFFFF" points="8.261,985.635 7.572,985.006 8.424,985.006    "/>
		</g>
		<g>
			<polygon fill="#FFFFFF" points="8.08,985.32 8.342,984.305 8.606,985.32    "/>
		</g>
		<g>
			<polygon fill="#FFFFFF" points="8.261,985.006 9.113,985.006 8.424,985.635    "/>
		</g>
		<g>
			<polygon fill="#FFFFFF" points="8.555,985.125 8.819,986.143 8.129,985.514    "/>
		</g>
		<g>
			<polygon fill="#FFFFFF" points="11.871,985.514 11.182,986.143 11.445,985.125    "/>
		</g>
		<g>
			<polygon fill="#FFFFFF" points="11.577,985.635 10.887,985.006 11.74,985.006    "/>
		</g>
		<g>
			<polygon fill="#FFFFFF" points="11.395,985.32 11.658,984.305 11.921,985.32    "/>
		</g>
		<g>
			<polygon fill="#FFFFFF" points="11.577,985.006 12.43,985.006 11.74,985.635    "/>
		</g>
		<g>
			<polygon fill="#FFFFFF" points="11.871,985.125 12.135,986.143 11.445,985.514    "/>
		</g>
		<g>
			<polygon fill="#FFFFFF" points="15.188,985.514 14.498,986.143 14.761,985.125    "/>
		</g>
		<g>
			<polygon fill="#FFFFFF" points="14.893,985.635 14.203,985.006 15.056,985.006    "/>
		</g>
		<g>
			<polygon fill="#FFFFFF" points="14.71,985.32 14.974,984.305 15.237,985.32    "/>
		</g>
		<g>
			<polygon fill="#FFFFFF" points="14.893,985.006 15.745,985.006 15.056,985.635    "/>
		</g>
		<g>
			<polygon fill="#FFFFFF" points="15.188,985.125 15.45,986.143 14.761,985.514    "/>
		</g>
		<g>
			<polygon fill="#FFFFFF" points="18.503,985.514 17.813,986.143 18.077,985.125    "/>
		</g>
		<g>
			<polygon fill="#FFFFFF" points="18.208,985.635 17.519,985.006 18.371,985.006    "/>
		</g>
		<g>
			<polygon fill="#FFFFFF" points="18.026,985.32 18.29,984.305 18.553,985.32    "/>
		</g>
		<g>
			<polygon fill="#FFFFFF" points="18.208,985.006 19.061,985.006 18.371,985.635    "/>
		</g>
		<g>
			<polygon fill="#FFFFFF" points="18.503,985.125 18.766,986.143 18.077,985.514    "/>
		</g>
		<g>
			<polygon fill="#FFFFFF" points="3.582,987.297 2.893,987.924 3.156,986.908    "/>
		</g>
		<g>
			<polygon fill="#FFFFFF" points="3.288,987.416 2.598,986.789 3.451,986.789    "/>
		</g>
		<g>
			<polygon fill="#FFFFFF" points="3.105,987.104 3.369,986.086 3.632,987.104    "/>
		</g>
		<g>
			<polygon fill="#FFFFFF" points="3.288,986.789 4.139,986.789 3.451,987.416    "/>
		</g>
		<g>
			<polygon fill="#FFFFFF" points="3.582,986.908 3.845,987.924 3.156,987.297    "/>
		</g>
		<g>
			<polygon fill="#FFFFFF" points="6.898,987.297 6.208,987.924 6.472,986.908    "/>
		</g>
		<g>
			<polygon fill="#FFFFFF" points="6.603,987.416 5.914,986.789 6.766,986.789    "/>
		</g>
		<g>
			<polygon fill="#FFFFFF" points="6.421,987.104 6.685,986.086 6.948,987.104    "/>
		</g>
		<g>
			<polygon fill="#FFFFFF" points="6.603,986.789 7.456,986.789 6.766,987.416    "/>
		</g>
		<g>
			<polygon fill="#FFFFFF" points="6.898,986.908 7.161,987.924 6.472,987.297    "/>
		</g>
		<g>
			<polygon fill="#FFFFFF" points="10.213,987.297 9.524,987.924 9.788,986.908    "/>
		</g>
		<g>
			<polygon fill="#FFFFFF" points="9.919,987.416 9.229,986.789 10.082,986.789    "/>
		</g>
		<g>
			<polygon fill="#FFFFFF" points="9.737,987.104 10,986.086 10.264,987.104    "/>
		</g>
		<g>
			<polygon fill="#FFFFFF" points="9.919,986.789 10.771,986.789 10.082,987.416    "/>
		</g>
		<g>
			<polygon fill="#FFFFFF" points="10.213,986.908 10.477,987.924 9.788,987.297    "/>
		</g>
		<g>
			<polygon fill="#FFFFFF" points="13.529,987.297 12.839,987.924 13.104,986.908    "/>
		</g>
		<g>
			<polygon fill="#FFFFFF" points="13.235,987.416 12.545,986.789 13.398,986.789    "/>
		</g>
		<g>
			<polygon fill="#FFFFFF" points="13.052,987.104 13.316,986.086 13.579,987.104    "/>
		</g>
		<g>
			<polygon fill="#FFFFFF" points="13.235,986.789 14.087,986.789 13.398,987.416    "/>
		</g>
		<g>
			<polygon fill="#FFFFFF" points="13.529,986.908 13.792,987.924 13.104,987.297    "/>
		</g>
		<g>
			<polygon fill="#FFFFFF" points="16.845,987.297 16.156,987.924 16.419,986.908    "/>
		</g>
		<g>
			<polygon fill="#FFFFFF" points="16.551,987.416 15.861,986.789 16.714,986.789    "/>
		</g>
		<g>
			<polygon fill="#FFFFFF" points="16.369,987.104 16.632,986.086 16.896,987.104    "/>
		</g>
		<g>
			<polygon fill="#FFFFFF" points="16.551,986.789 17.402,986.789 16.714,987.416    "/>
		</g>
		<g>
			<polygon fill="#FFFFFF" points="16.845,986.908 17.108,987.924 16.419,987.297    "/>
		</g>
		<g>
			<polygon fill="#FFFFFF" points="1.924,989.078 1.234,989.707 1.498,988.689    "/>
		</g>
		<g>
			<polygon fill="#FFFFFF" points="1.63,989.197 0.94,988.57 1.792,988.57    "/>
		</g>
		<g>
			<polygon fill="#FFFFFF" points="1.448,988.885 1.711,987.867 1.974,988.885    "/>
		</g>
		<g>
			<polygon fill="#FFFFFF" points="1.63,988.57 2.482,988.57 1.792,989.197    "/>
		</g>
		<g>
			<polygon fill="#FFFFFF" points="1.924,988.689 2.187,989.707 1.498,989.078    "/>
		</g>
		<g>
			<polygon fill="#FFFFFF" points="5.24,989.078 4.55,989.707 4.813,988.689    "/>
		</g>
		<g>
			<polygon fill="#FFFFFF" points="4.946,989.197 4.256,988.57 5.108,988.57    "/>
		</g>
		<g>
			<polygon fill="#FFFFFF" points="4.763,988.885 5.027,987.867 5.29,988.885    "/>
		</g>
		<g>
			<polygon fill="#FFFFFF" points="4.946,988.57 5.797,988.57 5.108,989.197    "/>
		</g>
		<g>
			<polygon fill="#FFFFFF" points="5.24,988.689 5.503,989.707 4.813,989.078    "/>
		</g>
		<g>
			<polygon fill="#FFFFFF" points="8.555,989.078 7.866,989.707 8.129,988.689    "/>
		</g>
		<g>
			<polygon fill="#FFFFFF" points="8.261,989.197 7.572,988.57 8.424,988.57    "/>
		</g>
		<g>
			<polygon fill="#FFFFFF" points="8.08,988.885 8.342,987.867 8.606,988.885    "/>
		</g>
		<g>
			<polygon fill="#FFFFFF" points="8.261,988.57 9.113,988.57 8.424,989.197    "/>
		</g>
		<g>
			<polygon fill="#FFFFFF" points="8.555,988.689 8.819,989.707 8.129,989.078    "/>
		</g>
		<g>
			<polygon fill="#FFFFFF" points="11.871,989.078 11.182,989.707 11.445,988.689    "/>
		</g>
		<g>
			<polygon fill="#FFFFFF" points="11.577,989.197 10.887,988.57 11.74,988.57    "/>
		</g>
		<g>
			<polygon fill="#FFFFFF" points="11.395,988.885 11.658,987.867 11.921,988.885    "/>
		</g>
		<g>
			<polygon fill="#FFFFFF" points="11.577,988.57 12.43,988.57 11.74,989.197    "/>
		</g>
		<g>
			<polygon fill="#FFFFFF" points="11.871,988.689 12.135,989.707 11.445,989.078    "/>
		</g>
		<g>
			<polygon fill="#FFFFFF" points="15.188,989.078 14.498,989.707 14.761,988.689    "/>
		</g>
		<g>
			<polygon fill="#FFFFFF" points="14.893,989.197 14.203,988.57 15.056,988.57    "/>
		</g>
		<g>
			<polygon fill="#FFFFFF" points="14.71,988.885 14.974,987.867 15.237,988.885    "/>
		</g>
		<g>
			<polygon fill="#FFFFFF" points="14.893,988.57 15.745,988.57 15.056,989.197    "/>
		</g>
		<g>
			<polygon fill="#FFFFFF" points="15.188,988.689 15.45,989.707 14.761,989.078    "/>
		</g>
		<g>
			<polygon fill="#FFFFFF" points="18.503,989.078 17.813,989.707 18.077,988.689    "/>
		</g>
		<g>
			<polygon fill="#FFFFFF" points="18.208,989.197 17.519,988.57 18.371,988.57    "/>
		</g>
		<g>
			<polygon fill="#FFFFFF" points="18.026,988.885 18.29,987.867 18.553,988.885    "/>
		</g>
		<g>
			<polygon fill="#FFFFFF" points="18.208,988.57 19.061,988.57 18.371,989.197    "/>
		</g>
		<g>
			<polygon fill="#FFFFFF" points="18.503,988.689 18.766,989.707 18.077,989.078    "/>
		</g>
		<g>
			<polygon fill="#FFFFFF" points="3.582,990.861 2.893,991.488 3.156,990.473    "/>
		</g>
		<g>
			<polygon fill="#FFFFFF" points="3.288,990.98 2.598,990.352 3.451,990.352    "/>
		</g>
		<g>
			<polygon fill="#FFFFFF" points="3.105,990.666 3.369,989.65 3.632,990.666    "/>
		</g>
		<g>
			<polygon fill="#FFFFFF" points="3.288,990.352 4.139,990.352 3.451,990.98    "/>
		</g>
		<g>
			<polygon fill="#FFFFFF" points="3.582,990.473 3.845,991.488 3.156,990.861    "/>
		</g>
		<g>
			<polygon fill="#FFFFFF" points="6.898,990.861 6.208,991.488 6.472,990.473    "/>
		</g>
		<g>
			<polygon fill="#FFFFFF" points="6.603,990.98 5.914,990.352 6.766,990.352    "/>
		</g>
		<g>
			<polygon fill="#FFFFFF" points="6.421,990.666 6.685,989.65 6.948,990.666    "/>
		</g>
		<g>
			<polygon fill="#FFFFFF" points="6.603,990.352 7.456,990.352 6.766,990.98    "/>
		</g>
		<g>
			<polygon fill="#FFFFFF" points="6.898,990.473 7.161,991.488 6.472,990.861    "/>
		</g>
		<g>
			<polygon fill="#FFFFFF" points="10.213,990.861 9.524,991.488 9.788,990.473    "/>
		</g>
		<g>
			<polygon fill="#FFFFFF" points="9.919,990.98 9.229,990.352 10.082,990.352    "/>
		</g>
		<g>
			<polygon fill="#FFFFFF" points="9.737,990.666 10,989.65 10.264,990.666    "/>
		</g>
		<g>
			<polygon fill="#FFFFFF" points="9.919,990.352 10.771,990.352 10.082,990.98    "/>
		</g>
		<g>
			<polygon fill="#FFFFFF" points="10.213,990.473 10.477,991.488 9.788,990.861    "/>
		</g>
		<g>
			<polygon fill="#FFFFFF" points="13.529,990.861 12.839,991.488 13.104,990.473    "/>
		</g>
		<g>
			<polygon fill="#FFFFFF" points="13.235,990.98 12.545,990.352 13.398,990.352    "/>
		</g>
		<g>
			<polygon fill="#FFFFFF" points="13.052,990.666 13.316,989.65 13.579,990.666    "/>
		</g>
		<g>
			<polygon fill="#FFFFFF" points="13.235,990.352 14.087,990.352 13.398,990.98    "/>
		</g>
		<g>
			<polygon fill="#FFFFFF" points="13.529,990.473 13.792,991.488 13.104,990.861    "/>
		</g>
		<g>
			<polygon fill="#FFFFFF" points="16.845,990.861 16.156,991.488 16.419,990.473    "/>
		</g>
		<g>
			<polygon fill="#FFFFFF" points="16.551,990.98 15.861,990.352 16.714,990.352    "/>
		</g>
		<g>
			<polygon fill="#FFFFFF" points="16.369,990.666 16.632,989.65 16.896,990.666    "/>
		</g>
		<g>
			<polygon fill="#FFFFFF" points="16.551,990.352 17.402,990.352 16.714,990.98    "/>
		</g>
		<g>
			<polygon fill="#FFFFFF" points="16.845,990.473 17.108,991.488 16.419,990.861    "/>
		</g>
		<g>
			<polygon fill="#FFFFFF" points="1.924,992.643 1.234,993.27 1.498,992.254    "/>
		</g>
		<g>
			<polygon fill="#FFFFFF" points="1.63,992.762 0.94,992.135 1.792,992.135    "/>
		</g>
		<g>
			<polygon fill="#FFFFFF" points="1.448,992.449 1.711,991.432 1.974,992.449    "/>
		</g>
		<g>
			<polygon fill="#FFFFFF" points="1.63,992.135 2.482,992.135 1.792,992.762    "/>
		</g>
		<g>
			<polygon fill="#FFFFFF" points="1.924,992.254 2.187,993.27 1.498,992.643    "/>
		</g>
		<g>
			<polygon fill="#FFFFFF" points="5.24,992.643 4.55,993.27 4.813,992.254    "/>
		</g>
		<g>
			<polygon fill="#FFFFFF" points="4.946,992.762 4.256,992.135 5.108,992.135    "/>
		</g>
		<g>
			<polygon fill="#FFFFFF" points="4.763,992.449 5.027,991.432 5.29,992.449    "/>
		</g>
		<g>
			<polygon fill="#FFFFFF" points="4.946,992.135 5.797,992.135 5.108,992.762    "/>
		</g>
		<g>
			<polygon fill="#FFFFFF" points="5.24,992.254 5.503,993.27 4.813,992.643    "/>
		</g>
		<g>
			<polygon fill="#FFFFFF" points="8.555,992.643 7.866,993.27 8.129,992.254    "/>
		</g>
		<g>
			<polygon fill="#FFFFFF" points="8.261,992.762 7.572,992.135 8.424,992.135    "/>
		</g>
		<g>
			<polygon fill="#FFFFFF" points="8.08,992.449 8.342,991.432 8.606,992.449    "/>
		</g>
		<g>
			<polygon fill="#FFFFFF" points="8.261,992.135 9.113,992.135 8.424,992.762    "/>
		</g>
		<g>
			<polygon fill="#FFFFFF" points="8.555,992.254 8.819,993.27 8.129,992.643    "/>
		</g>
		<g>
			<polygon fill="#FFFFFF" points="11.871,992.643 11.182,993.27 11.445,992.254    "/>
		</g>
		<g>
			<polygon fill="#FFFFFF" points="11.577,992.762 10.887,992.135 11.74,992.135    "/>
		</g>
		<g>
			<polygon fill="#FFFFFF" points="11.395,992.449 11.658,991.432 11.921,992.449    "/>
		</g>
		<g>
			<polygon fill="#FFFFFF" points="11.577,992.135 12.43,992.135 11.74,992.762    "/>
		</g>
		<g>
			<polygon fill="#FFFFFF" points="11.871,992.254 12.135,993.27 11.445,992.643    "/>
		</g>
		<g>
			<polygon fill="#FFFFFF" points="15.188,992.643 14.498,993.27 14.761,992.254    "/>
		</g>
		<g>
			<polygon fill="#FFFFFF" points="14.893,992.762 14.203,992.135 15.056,992.135    "/>
		</g>
		<g>
			<polygon fill="#FFFFFF" points="14.71,992.449 14.974,991.432 15.237,992.449    "/>
		</g>
		<g>
			<polygon fill="#FFFFFF" points="14.893,992.135 15.745,992.135 15.056,992.762    "/>
		</g>
		<g>
			<polygon fill="#FFFFFF" points="15.188,992.254 15.45,993.27 14.761,992.643    "/>
		</g>
		<g>
			<polygon fill="#FFFFFF" points="18.503,992.643 17.813,993.27 18.077,992.254    "/>
		</g>
		<g>
			<polygon fill="#FFFFFF" points="18.208,992.762 17.519,992.135 18.371,992.135    "/>
		</g>
		<g>
			<polygon fill="#FFFFFF" points="18.026,992.449 18.29,991.432 18.553,992.449    "/>
		</g>
		<g>
			<polygon fill="#FFFFFF" points="18.208,992.135 19.061,992.135 18.371,992.762    "/>
		</g>
		<g>
			<polygon fill="#FFFFFF" points="18.503,992.254 18.766,993.27 18.077,992.643    "/>
		</g>
		<g>
			<polygon fill="#FFFFFF" points="3.582,994.424 2.893,995.053 3.156,994.035    "/>
		</g>
		<g>
			<polygon fill="#FFFFFF" points="3.288,994.545 2.598,993.916 3.451,993.916    "/>
		</g>
		<g>
			<polygon fill="#FFFFFF" points="3.105,994.23 3.369,993.215 3.632,994.23    "/>
		</g>
		<g>
			<polygon fill="#FFFFFF" points="3.288,993.916 4.139,993.916 3.451,994.545    "/>
		</g>
		<g>
			<polygon fill="#FFFFFF" points="3.582,994.035 3.845,995.053 3.156,994.424    "/>
		</g>
		<g>
			<polygon fill="#FFFFFF" points="6.898,994.424 6.208,995.053 6.472,994.035    "/>
		</g>
		<g>
			<polygon fill="#FFFFFF" points="6.603,994.545 5.914,993.916 6.766,993.916    "/>
		</g>
		<g>
			<polygon fill="#FFFFFF" points="6.421,994.23 6.685,993.215 6.948,994.23    "/>
		</g>
		<g>
			<polygon fill="#FFFFFF" points="6.603,993.916 7.456,993.916 6.766,994.545    "/>
		</g>
		<g>
			<polygon fill="#FFFFFF" points="6.898,994.035 7.161,995.053 6.472,994.424    "/>
		</g>
		<g>
			<polygon fill="#FFFFFF" points="10.213,994.424 9.524,995.053 9.788,994.035    "/>
		</g>
		<g>
			<polygon fill="#FFFFFF" points="9.919,994.545 9.229,993.916 10.082,993.916    "/>
		</g>
		<g>
			<polygon fill="#FFFFFF" points="9.737,994.23 10,993.215 10.264,994.23    "/>
		</g>
		<g>
			<polygon fill="#FFFFFF" points="9.919,993.916 10.771,993.916 10.082,994.545    "/>
		</g>
		<g>
			<polygon fill="#FFFFFF" points="10.213,994.035 10.477,995.053 9.788,994.424    "/>
		</g>
		<g>
			<polygon fill="#FFFFFF" points="13.529,994.424 12.839,995.053 13.104,994.035    "/>
		</g>
		<g>
			<polygon fill="#FFFFFF" points="13.235,994.545 12.545,993.916 13.398,993.916    "/>
		</g>
		<g>
			<polygon fill="#FFFFFF" points="13.052,994.23 13.316,993.215 13.579,994.23    "/>
		</g>
		<g>
			<polygon fill="#FFFFFF" points="13.235,993.916 14.087,993.916 13.398,994.545    "/>
		</g>
		<g>
			<polygon fill="#FFFFFF" points="13.529,994.035 13.792,995.053 13.104,994.424    "/>
		</g>
		<g>
			<polygon fill="#FFFFFF" points="16.845,994.424 16.156,995.053 16.419,994.035    "/>
		</g>
		<g>
			<polygon fill="#FFFFFF" points="16.551,994.545 15.861,993.916 16.714,993.916    "/>
		</g>
		<g>
			<polygon fill="#FFFFFF" points="16.369,994.23 16.632,993.215 16.896,994.23    "/>
		</g>
		<g>
			<polygon fill="#FFFFFF" points="16.551,993.916 17.402,993.916 16.714,994.545    "/>
		</g>
		<g>
			<polygon fill="#FFFFFF" points="16.845,994.035 17.108,995.053 16.419,994.424    "/>
		</g>
		<g>
			<polygon fill="#FFFFFF" points="1.924,996.207 1.234,996.834 1.498,995.818    "/>
		</g>
		<g>
			<polygon fill="#FFFFFF" points="1.63,996.326 0.94,995.697 1.792,995.697    "/>
		</g>
		<g>
			<polygon fill="#FFFFFF" points="1.448,996.012 1.711,994.996 1.974,996.012    "/>
		</g>
		<g>
			<polygon fill="#FFFFFF" points="1.63,995.697 2.482,995.697 1.792,996.326    "/>
		</g>
		<g>
			<polygon fill="#FFFFFF" points="1.924,995.818 2.187,996.834 1.498,996.207    "/>
		</g>
		<g>
			<polygon fill="#FFFFFF" points="5.24,996.207 4.55,996.834 4.813,995.818    "/>
		</g>
		<g>
			<polygon fill="#FFFFFF" points="4.946,996.326 4.256,995.697 5.108,995.697    "/>
		</g>
		<g>
			<polygon fill="#FFFFFF" points="4.763,996.012 5.027,994.996 5.29,996.012    "/>
		</g>
		<g>
			<polygon fill="#FFFFFF" points="4.946,995.697 5.797,995.697 5.108,996.326    "/>
		</g>
		<g>
			<polygon fill="#FFFFFF" points="5.24,995.818 5.503,996.834 4.813,996.207    "/>
		</g>
		<g>
			<polygon fill="#FFFFFF" points="8.555,996.207 7.866,996.834 8.129,995.818    "/>
		</g>
		<g>
			<polygon fill="#FFFFFF" points="8.261,996.326 7.572,995.697 8.424,995.697    "/>
		</g>
		<g>
			<polygon fill="#FFFFFF" points="8.08,996.012 8.342,994.996 8.606,996.012    "/>
		</g>
		<g>
			<polygon fill="#FFFFFF" points="8.261,995.697 9.113,995.697 8.424,996.326    "/>
		</g>
		<g>
			<polygon fill="#FFFFFF" points="8.555,995.818 8.819,996.834 8.129,996.207    "/>
		</g>
		<g>
			<polygon fill="#FFFFFF" points="11.871,996.207 11.182,996.834 11.445,995.818    "/>
		</g>
		<g>
			<polygon fill="#FFFFFF" points="11.577,996.326 10.887,995.697 11.74,995.697    "/>
		</g>
		<g>
			<polygon fill="#FFFFFF" points="11.395,996.012 11.658,994.996 11.921,996.012    "/>
		</g>
		<g>
			<polygon fill="#FFFFFF" points="11.577,995.697 12.43,995.697 11.74,996.326    "/>
		</g>
		<g>
			<polygon fill="#FFFFFF" points="11.871,995.818 12.135,996.834 11.445,996.207    "/>
		</g>
		<g>
			<polygon fill="#FFFFFF" points="15.188,996.207 14.498,996.834 14.761,995.818    "/>
		</g>
		<g>
			<polygon fill="#FFFFFF" points="14.893,996.326 14.203,995.697 15.056,995.697    "/>
		</g>
		<g>
			<polygon fill="#FFFFFF" points="14.71,996.012 14.974,994.996 15.237,996.012    "/>
		</g>
		<g>
			<polygon fill="#FFFFFF" points="14.893,995.697 15.745,995.697 15.056,996.326    "/>
		</g>
		<g>
			<polygon fill="#FFFFFF" points="15.188,995.818 15.45,996.834 14.761,996.207    "/>
		</g>
		<g>
			<polygon fill="#FFFFFF" points="18.503,996.207 17.813,996.834 18.077,995.818    "/>
		</g>
		<g>
			<polygon fill="#FFFFFF" points="18.208,996.326 17.519,995.697 18.371,995.697    "/>
		</g>
		<g>
			<polygon fill="#FFFFFF" points="18.026,996.012 18.29,994.996 18.553,996.012    "/>
		</g>
		<g>
			<polygon fill="#FFFFFF" points="18.208,995.697 19.061,995.697 18.371,996.326    "/>
		</g>
		<g>
			<polygon fill="#FFFFFF" points="18.503,995.818 18.766,996.834 18.077,996.207    "/>
		</g>
	</g>
</g>
<g id="Switzerland">
	<g>
		<g>
			<rect x="0" y="945" fill="#ED342B" width="50" height="33"/>
		</g>
		<g>
			<rect x="14.584" y="958.406" fill="#FFFFFF" width="20.833" height="6.188"/>
		</g>
		<g>
			<rect x="21.875" y="951.188" fill="#FFFFFF" width="6.25" height="20.625"/>
		</g>
	</g>
</g>
<g id="Spain">
	<g>
		<g>
			<rect x="0" y="910" fill="#C72228" width="50" height="33"/>
		</g>
		<g>
			<rect x="0" y="918.25" fill="#FDC02B" width="50" height="16.5"/>
		</g>
	</g>
</g>
<g id="South_Korea">
	<g>
		<g>
			<g>
				<rect x="0.001" y="875" fill="#FFFFFF" width="49.999" height="33"/>
			</g>
		</g>
		<g>
			<g>
				<path d="M8.245,885.398l4.622-6.861 M9.978,886.545l4.623-6.865 M11.712,887.688l4.622-6.865"/>
			</g>
			<g>
				<path d="M12.289,888.068l-1.154-0.762l4.622-6.865l1.154,0.762L12.289,888.068z M10.555,886.926l-1.154-0.762l4.622-6.865      l1.154,0.762L10.555,886.926z M8.821,885.779l-1.153-0.762l4.622-6.861l1.153,0.762L8.821,885.779z"/>
			</g>
		</g>
		<g>
			<g>
				<path d="M33.668,902.178l4.625-6.865 M35.4,903.324l4.625-6.865 M37.135,904.467l4.623-6.865"/>
			</g>
			<g>
				<path d="M37.711,904.848l-1.152-0.762l4.621-6.865l1.154,0.762L37.711,904.848z M35.979,903.705l-1.154-0.762l4.625-6.865      l1.154,0.762L35.979,903.705z M34.244,902.559l-1.154-0.762l4.625-6.865l1.154,0.762L34.244,902.559z"/>
			</g>
		</g>
		<g>
			<g>
				<line x1="34.824" y1="897.982" x2="40.602" y2="901.799"/>
			</g>
			<g>
				<polygon fill="#FFFFFF" points="40.41,902.082 34.633,898.268 35.018,897.697 40.795,901.514     "/>
			</g>
		</g>
		<g>
			<g>
				<path fill="#C62139" d="M29.623,884.635c3.828,2.529,4.865,7.652,2.311,11.441c-2.551,3.793-7.726,4.818-11.553,2.289      c-3.831-2.529-4.867-7.648-2.313-11.441C20.622,883.133,25.794,882.109,29.623,884.635L29.623,884.635z"/>
			</g>
		</g>
		<g>
			<g>
				<path fill="#243B80" d="M18.068,886.924c-0.605,0.9-0.832,2.039-0.62,3.1c0.215,1.057,0.867,2.021,1.774,2.621      c0.907,0.598,2.06,0.826,3.13,0.613c1.07-0.211,2.045-0.859,2.65-1.758c0.604-0.898,1.579-1.543,2.649-1.756      c1.066-0.211,2.219,0.014,3.127,0.613c0.906,0.6,1.561,1.563,1.773,2.623c0.217,1.061-0.012,2.197-0.619,3.096      c-1.211,1.797-3.158,3.09-5.297,3.514c-2.141,0.426-4.441-0.027-6.256-1.225s-3.122-3.131-3.552-5.246      C16.401,891.002,16.858,888.723,18.068,886.924L18.068,886.924z"/>
			</g>
		</g>
		<g>
			<g>
				<path d="M12.867,904.467l-4.622-6.865 M14.601,903.324l-4.623-6.865 M16.334,902.178l-4.622-6.865"/>
			</g>
			<g>
				<path d="M12.29,904.848l-4.622-6.865l1.154-0.762l4.622,6.865L12.29,904.848z M14.023,903.705l-4.622-6.865l1.154-0.762      l4.622,6.865L14.023,903.705z M15.757,902.559l-4.622-6.865l1.154-0.762l4.622,6.865L15.757,902.559z"/>
			</g>
		</g>
		<g>
			<g>
				<path d="M38.293,887.688l-4.625-6.865 M40.025,886.545L35.4,879.68 M41.758,885.398l-4.623-6.861"/>
			</g>
			<g>
				<path d="M37.715,888.068l-4.625-6.865l1.154-0.762l4.625,6.865L37.715,888.068z M39.449,886.926l-4.625-6.865l1.154-0.762      l4.625,6.865L39.449,886.926z M41.18,885.779l-4.621-6.861l1.152-0.762l4.623,6.861L41.18,885.779z"/>
			</g>
		</g>
		<g>
			<g>
				<path d="M11.424,900.461l1.731-1.143 M34.824,885.018l2.021-1.336 M38.58,882.539l1.734-1.143"/>
			</g>
			<g>
				<path fill="#FFFFFF" d="M11.616,900.746l-0.384-0.568l1.73-1.145l0.384,0.57L11.616,900.746z M35.018,885.303l-0.385-0.57      l2.021-1.334l0.385,0.568L35.018,885.303z M38.771,882.824l-0.383-0.57l1.734-1.143l0.383,0.57L38.771,882.824z"/>
			</g>
		</g>
	</g>
</g>
<g id="Russia">
	<g>
		<g>
			<rect x="0" y="840" fill="#FFFFFF" width="50" height="16.5"/>
		</g>
		<g>
			<rect x="0" y="856.5" fill="#D73928" width="50" height="16.5"/>
		</g>
		<g>
			<rect x="0" y="851" fill="#2F4B9F" width="50" height="11"/>
		</g>
	</g>
</g>
<g id="Mexico">
	<g>
		<g id="rect3678">
			<rect x="0" y="805" fill="#FFFFFF" width="49.999" height="33"/>
		</g>
		<g id="rect4649">
			<rect x="0" y="805" fill="#176C50" width="16.667" height="33"/>
		</g>
		<g id="rect4651">
			<rect x="33.334" y="805" fill="#CF262F" width="16.666" height="33"/>
		</g>
	</g>
</g>
<g id="Japan">
	<g>
		<g>
			<rect x="0" y="770" fill="#FFFFFF" width="50" height="33"/>
		</g>
		<g>
			<path fill="#BC2036" d="M35,786.5c0,5.469-4.477,9.898-10,9.898c-5.523,0-10-4.43-10-9.898c0-5.467,4.477-9.902,10-9.902     C30.523,776.598,35,781.033,35,786.5L35,786.5z"/>
		</g>
	</g>
</g>
<g id="Ivory_Coast">
	<g>
		<g>
			<rect x="0" y="735" fill="#FFFFFF" width="50" height="33"/>
		</g>
		<g>
			<rect x="0" y="735" fill="#F48026" width="16.667" height="33"/>
		</g>
		<g>
			<rect x="33.333" y="735" fill="#00AA71" width="16.667" height="33"/>
		</g>
	</g>
</g>
<g id="Italy">
	<g>
		<g>
			<rect x="0" y="700" fill="#119D58" width="16.667" height="33"/>
		</g>
		<g>
			<rect x="16.667" y="700" fill="#FFFFFF" width="16.666" height="33"/>
		</g>
		<g>
			<rect x="33.333" y="700" fill="#CF3841" width="16.667" height="33"/>
		</g>
	</g>
</g>
<g id="Iran">
	<g>
		<g>
			<g>
				<polygon fill="#1DAC55" points="0,665.016 49.971,665 50,697.975 0.083,697.996     "/>
			</g>
		</g>
		<g>
			<g>
				<polygon fill="#FFFFFF" points="0.086,675.998 50,675.984 50,686.99 0.083,687.023     "/>
			</g>
		</g>
		<g>
			<g>
				<polygon fill="#DC2426" points="0.086,687.023 50,686.99 50,697.996 0.083,697.996     "/>
			</g>
		</g>
		<g>
			<g>
				<path fill="#DC2426" d="M26.61,678.615c0,0,2.461,2.459,0.692,5.725C28.946,683.16,29.169,679.688,26.61,678.615L26.61,678.615z      "/>
			</g>
		</g>
		<g>
			<g>
				<path fill="#DC2426" d="M25.168,678.225c-0.429,0.516-1.093-0.061-0.819-0.621c0.36,0.906,0.858,0.207,0.858,0.207      s0.391,0.742,0.858-0.117C26.273,678.279,25.571,678.77,25.168,678.225L25.168,678.225z"/>
			</g>
		</g>
		<g>
			<g>
				<path fill="#DC2426" d="M25.123,685.504l-0.269-0.459c0,0-0.698,0.223-1.571-0.18c0.733,0.027,1.148-0.105,1.313-0.191      c0,0-1.747-1.145-1.808-3.287c0.206-2.188,1.233-2.789,1.233-2.789s-1.92,2.926,0.875,5.537l-0.231-3.121l0.064-2.258      c0.149-0.027,0.431-0.391,0.431-0.391s0.254,0.379,0.421,0.422l-0.114,2.287l0.03,3.105c2.438-2.398,0.815-5.492,0.815-5.492      s0.934,0.719,0.954,2.904c0.165,2.162-1.528,3.135-1.528,3.135c0.144,0.098,0.553,0.279,1.323,0.287      c-0.931,0.332-1.625,0.031-1.625,0.031L25.123,685.504L25.123,685.504z"/>
			</g>
		</g>
		<g>
			<g>
				<path fill="#DC2426" d="M23.719,678.486c0,0-2.655,2.199-0.659,5.666C21.069,682.787,21.08,679.326,23.719,678.486      L23.719,678.486z"/>
			</g>
		</g>
	</g>
</g>
<g id="Honduras">
	<g>
		<g>
			<polygon fill="#3072B8" points="0.012,630 49.998,630.006 49.986,663 0,662.975    "/>
		</g>
		<g>
			<polygon fill="#FFFFFF" points="0.015,640.988 49.994,641.014 50,652 0.003,651.986    "/>
		</g>
		<g>
			<g>
				<polygon fill="#3072B8" points="18.007,641.721 18.419,642.811 19.337,642.986 18.673,643.834 18.829,645.031 18.007,644.467       17.186,645.031 17.343,643.834 16.678,642.986 17.597,642.811     "/>
			</g>
			<g>
				<polygon fill="#3072B8" points="32.007,641.721 32.418,642.811 33.336,642.986 32.672,643.834 32.828,645.031 32.007,644.467       31.186,645.031 31.342,643.834 30.678,642.986 31.596,642.811     "/>
			</g>
			<g>
				<polygon fill="#3072B8" points="18.007,647.205 18.419,648.293 19.337,648.469 18.673,649.316 18.829,650.514 18.007,649.949       17.186,650.514 17.343,649.316 16.678,648.469 17.597,648.293     "/>
			</g>
			<g>
				<polygon fill="#3072B8" points="32.007,647.205 32.418,648.293 33.336,648.469 32.672,649.316 32.828,650.514 32.007,649.949       31.186,650.514 31.342,649.316 30.678,648.469 31.596,648.293     "/>
			</g>
			<g>
				<polygon fill="#3072B8" points="25.007,644.604 25.419,645.693 26.336,645.869 25.673,646.717 25.829,647.914 25.007,647.35       24.186,647.914 24.343,646.717 23.678,645.869 24.597,645.693     "/>
			</g>
		</g>
	</g>
</g>
<g id="Holland">
	<g>
		<g>
			<rect x="0" y="595" fill="#304E95" width="50" height="33.001"/>
		</g>
		<g>
			<rect x="0" y="595" fill="#FFFFFF" width="50" height="22"/>
		</g>
		<g>
			<rect x="0" y="595" fill="#AC272F" width="50" height="11"/>
		</g>
	</g>
</g>
<g id="Greece">
	<g>
		<g>
			<g>
				<rect x="0" y="560" fill="#2765AF" width="50" height="33"/>
			</g>
		</g>
		<g>
			<g>
				<path fill="#FFFFFF" d="M50,589.334H0v-3.666h50V589.334z M50,582H0v-3.665h7.409V571H0v-3.666h7.409V560h3.702v7.334h7.409V571      h-7.409v7.335H50V582z M50,574.666H18.521V571H50V574.666z M50,567.334H18.521v-3.665H50V567.334z"/>
			</g>
		</g>
	</g>
</g>
<g id="Ghana">
	<g>
		<g>
			<path fill="#187049" d="M0,525h50v33H0"/>
		</g>
		<g>
			<path fill="#FBCF32" d="M0,525h50v22H0"/>
		</g>
		<g>
			<path fill="#CF262F" d="M0,525h50v11H0"/>
		</g>
		<g>
			<path d="M19,540.18h11.782L21.333,547l3.555-11.11L28.667,547"/>
		</g>
	</g>
</g>
<g id="Germany">
	<g>
		<g id="black_stripe_1_">
			<rect x="0" y="490" width="50" height="33"/>
		</g>
		<g id="red_stripe_1_">
			<rect x="0" y="501" fill="#E12325" width="50" height="22"/>
		</g>
		<g id="gold_stripe_1_">
			<rect x="0" y="512" fill="#FFCD2B" width="50" height="11"/>
		</g>
	</g>
</g>
<g id="France">
	<g>
		<g>
			<rect x="0" y="455" fill="#EE3E47" width="50" height="33"/>
		</g>
		<g>
			<rect x="0" y="455" fill="#FFFFFF" width="33.333" height="33"/>
		</g>
		<g>
			<rect x="0" y="455" fill="#2D3895" width="16.667" height="33"/>
		</g>
	</g>
</g>
<g id="England">
	<g>
		<g>
			<rect x="0.014" y="420" fill="#FFFFFF" width="50" height="33"/>
		</g>
		<g>
			<g>
				<path fill="#ED2B38" d="M21.681,420v13.201H0.014v6.6h21.667V453h6.666v-13.2h21.667v-6.6H28.347V420H21.681z"/>
			</g>
		</g>
	</g>
</g>
<g id="Ecuador">
	<g>
		<g>
			<rect x="0.008" y="385" fill="#FDDC2E" width="49.992" height="33"/>
		</g>
		<g>
			<rect x="0" y="401.5" fill="#2358A7" width="49.992" height="16.5"/>
		</g>
		<g>
			<rect x="0" y="409.75" fill="#ED3431" width="49.992" height="8.25"/>
		</g>
	</g>
</g>
<g id="Croatia">
	<g id="Layer_x5F_1_1_">
		<g id="_198841800_1_">
			<g>
				<polygon fill="#ED342B" points="0,350.015 49.952,350 50,360.951 0.007,361.011     "/>
			</g>
			<g>
				<polygon fill="#FFFFFF" points="0.007,361.011 50,360.951 49.957,371.989 0.011,372.003     "/>
			</g>
			<g>
				<polygon fill="#363191" points="0.011,372.003 49.957,371.989 49.997,382.946 0.008,383     "/>
			</g>
			<g>
				<g>
					<path fill="#2890CE" d="M29.634,360.733l1.113-3.228l-0.797-1.696l-1.414,0.679l-0.685,3.411       C28.462,360.112,29.063,360.395,29.634,360.733L29.634,360.733z"/>
				</g>
				<g>
					<path fill="#ED342B" d="M29.975,359.737l0.285-0.829c-0.637-0.396-1.335-0.701-2.02-0.952l-0.176,0.853       c0.663,0.232,1.308,0.531,1.921,0.897L29.975,359.737z"/>
				</g>
				<g>
					<path fill="#363191" d="M23.781,356.029l-0.005,0.001l-1.303-1.008l-1.014,1.498l0.767,3.38c0.61-0.201,1.239-0.34,1.841-0.44       L23.781,356.029L23.781,356.029z"/>
				</g>
				<g>
					<path fill="#363191" d="M28.536,356.488h-0.003l-0.985-1.511l-1.33,0.986l-0.247,3.512c0.647,0.066,1.276,0.219,1.88,0.424       L28.536,356.488L28.536,356.488z"/>
				</g>
				<g>
					<path fill="#2890CE" d="M21.459,356.52v0.002l-1.375-0.664l-0.759,1.653l0.288,0.923l0.761,2.311       c0.584-0.324,1.185-0.596,1.854-0.845L21.459,356.52L21.459,356.52z"/>
				</g>
				<g>
					<path fill="#FFFFFF" d="M25.022,374.654L25.022,374.654c2.486-0.026,4.569-2.736,4.593-6.055l-0.035-7.273l-9.168,0.022       l0.034,7.266C20.417,371.939,22.5,374.634,25.022,374.654z"/>
				</g>
				<g>
					<polygon fill="#ED342B" points="22.245,361.362 20.412,361.348 20.396,364.009 22.271,363.977      "/>
				</g>
				<g>
					<polygon fill="#ED342B" points="22.249,366.638 24.084,366.656 24.103,363.992 22.271,363.977      "/>
				</g>
				<g>
					<path fill="#ED342B" d="M20.444,368.617c-0.004,0.24,0.009,0.474,0.026,0.709l1.761-0.03l0.018-2.658l-1.832-0.011       L20.444,368.617z"/>
				</g>
				<g>
					<polygon fill="#ED342B" points="25.925,366.667 24.084,366.656 24.064,369.31 25.893,369.326      "/>
				</g>
				<g>
					<polygon fill="#ED342B" points="25.918,371.943 27.758,371.955 27.777,369.294 25.893,369.326      "/>
				</g>
				<g>
					<path fill="#ED342B" d="M27.748,373.41c0.41-0.403,0.764-0.89,1.055-1.451l-1.045-0.004L27.748,373.41z"/>
				</g>
				<g>
					<polygon fill="#ED342B" points="22.254,372.002 24.084,372.016 24.064,369.31 22.231,369.296      "/>
				</g>
				<g>
					<path fill="#ED342B" d="M21.205,371.992c0.285,0.56,0.637,1.051,1.038,1.467l0.012-1.456L21.205,371.992z"/>
				</g>
				<g>
					<path fill="#ED342B" d="M25.345,374.642c0.207-0.02,0.404-0.056,0.598-0.107l-0.025-2.592l-1.834,0.073l0.028,2.506       c0.193,0.053,0.392,0.091,0.595,0.113C24.92,374.654,25.135,374.654,25.345,374.642L25.345,374.642z"/>
				</g>
				<g>
					<path fill="#ED342B" d="M29.575,369.314c0.013-0.238,0.034-0.476,0.04-0.715l-0.032-1.906l-1.833-0.011l0.027,2.612       L29.575,369.314L29.575,369.314z"/>
				</g>
				<g>
					<polygon fill="#ED342B" points="25.925,366.667 27.75,366.682 27.777,364.017 25.939,364.01      "/>
				</g>
				<g>
					<polygon fill="#ED342B" points="25.921,361.301 24.124,361.334 24.103,363.992 25.939,364.01      "/>
				</g>
				<g>
					<polygon fill="#ED342B" points="29.564,363.989 29.58,361.326 27.748,361.319 27.777,364.017      "/>
				</g>
				<g>
					<path fill="#ED342B" d="M22.066,359.053c0.65-0.211,1.268-0.397,1.954-0.472l-0.05-0.875c-0.813,0.144-1.472,0.345-2.15,0.569       L22.066,359.053L22.066,359.053z"/>
				</g>
				<g>
					<path fill="#ED342B" d="M21.656,357.416c0.681-0.282,1.418-0.44,2.168-0.511l-0.043-0.873c-0.799,0.08-1.566,0.246-2.32,0.493       L21.656,357.416z"/>
				</g>
				<g>
					<g>
						<path fill="#2890CE" d="M26.218,355.963l0.002,0.003l-1.261-1.2l-1.178,1.263l0.286,3.431        c0.312-0.036,0.633-0.055,0.947-0.046c0.327-0.001,0.646,0.014,0.958,0.061L26.218,355.963L26.218,355.963z"/>
					</g>
				</g>
			</g>
		</g>
	</g>
</g>
<g id="Costa_Rica">
	<g>
		<g id="blue_fields">
			<rect x="0" y="315" fill="#2B3585" width="50" height="33"/>
		</g>
		<g id="white_fields">
			<rect x="0" y="320.5" fill="#FFFFFF" width="50" height="22"/>
		</g>
		<g id="red_field">
			<rect x="0" y="326" fill="#CF262F" width="50" height="11"/>
		</g>
	</g>
</g>
<g id="Columbia">
	<g>
		<g>
			<polygon fill="#FBCF32" points="0.036,280 50.028,280.004 50.034,296.492 0.069,296.509    "/>
		</g>
		<g>
			<polygon fill="#26449B" points="0.069,296.509 50.034,296.492 50.025,304.75 0.056,304.75    "/>
		</g>
		<g>
			<polygon fill="#CF262F" points="0.056,304.75 50.025,304.75 50.035,313 0.048,312.999    "/>
		</g>
	</g>
</g>
<g id="Chile">
	<g>
		<g>
			<path fill="#D73928" d="M50,277.998L0.003,278v-32.995L49.992,245L50,277.998z"/>
		</g>
		<g>
			<path fill="#FFFFFF" d="M16.673,261.483l33.316,0.028L49.992,245l-33.327,0.003L16.673,261.483z"/>
		</g>
		<g>
			<path fill="#2F4B9F" d="M16.673,261.483L0,261.492l0.003-16.487l16.662-0.002L16.673,261.483z"/>
		</g>
		<g>
			<polygon fill="#FFFFFF" points="8.172,249.164 9.336,251.524 11.94,251.902 10.056,253.738 10.501,256.332 8.172,255.107      5.844,256.332 6.288,253.738 4.404,251.902 7.008,251.524    "/>
		</g>
	</g>
</g>
<g id="Cameroon">
	<g>
		<g>
			<polygon fill="#1D7F68" points="0.026,210 16.685,210.008 16.651,242.973 0,242.953    "/>
		</g>
		<g>
			
				<rect x="16.669" y="210.018" transform="matrix(-1 -0.0012 0.0012 -1 49.734 453.0282)" fill="#CF262F" width="16.662" height="32.964"/>
		</g>
		<g>
			<polygon fill="#FBCF32" points="33.347,210.027 50,210.045 49.973,243 33.314,242.991    "/>
		</g>
		<g>
			<polygon fill="#FBCF32" points="25.178,223.944 26.088,225.826 28.172,226.151 26.639,227.59 26.97,229.648 25.116,228.657      23.239,229.604 23.624,227.554 22.131,226.076 24.219,225.802    "/>
		</g>
	</g>
</g>
<g id="Brazil">
	<g>
		<g>
			<polygon fill="#009968" points="49.987,208 0,207.983 0.016,175 50,175.014    "/>
		</g>
		<g>
			<polygon fill="#FFE52B" points="24.991,179.079 4.367,191.536 24.983,203.779 25.016,203.784 45.648,191.544 25.024,179.071         "/>
		</g>
		<g>
			<path fill="#005EAC" d="M32.444,191.503c-0.007,4.514-3.354,8.175-7.474,8.178c-4.128-0.009-7.478-3.666-7.469-8.178     c0.002-4.521,3.352-8.179,7.469-8.179C29.092,183.327,32.45,186.983,32.444,191.503z"/>
		</g>
		<g>
			<path fill="#FFFFFF" d="M32.401,192.895l-0.305,1.314c0,0-5.025-5.867-14.453-4.647l0.429-1.379     C18.072,188.182,26.416,186.679,32.401,192.895z"/>
		</g>
	</g>
</g>
<g id="Bosnia">
	<g>
		<g>
			<rect x="0" y="140.023" fill="#2D3895" width="50" height="32.961"/>
		</g>
		<g>
			<path fill="#FFCA2A" d="M13.25,140.023h25v32.961L13.25,140.023z"/>
		</g>
		<g id="g_4_">
			<g>
				<polygon fill="#FFFFFF" points="7.887,140.021 7.885,140.032 7.898,140.032     "/>
			</g>
			<g>
				<polygon fill="#FFFFFF" points="11.838,140.641 12.525,142.537 14.063,142.841 12.95,144.315 13.212,146.398 11.838,145.415       10.463,146.398 10.726,144.315 9.613,142.841 11.15,142.537     "/>
			</g>
			<g>
				<polygon fill="#FFFFFF" points="15.001,144.639 15.688,146.534 17.226,146.838 16.112,148.313 16.375,150.396 15.001,149.412       13.626,150.396 13.889,148.313 12.775,146.838 14.313,146.534     "/>
			</g>
			<g>
				<polygon fill="#FFFFFF" points="9.612,140 9.875,142.085 8.501,141.104 7.126,142.087 7.389,140.004     "/>
			</g>
		</g>
		<g id="g_1_">
			<g>
				<polygon fill="#FFFFFF" points="21.301,152.92 21.988,154.815 23.525,155.12 22.412,156.594 22.675,158.677 21.301,157.693       19.926,158.677 20.188,156.594 19.075,155.12 20.613,154.815     "/>
			</g>
			<g>
				<polygon fill="#FFFFFF" points="18.101,148.822 18.789,150.718 20.326,151.022 19.212,152.496 19.475,154.58 18.101,153.596       16.726,154.58 16.989,152.496 15.875,151.022 17.414,150.718     "/>
			</g>
			<g>
				<polygon fill="#FFFFFF" points="24.401,156.917 25.088,158.813 26.625,159.117 25.512,160.592 25.775,162.674 24.401,161.691       23.026,162.674 23.289,160.592 22.175,159.117 23.713,158.813     "/>
			</g>
		</g>
		<g>
			<path fill="#FFFFFF" d="M34.618,173l-0.006-0.018L34.595,173C34.603,173,34.61,173,34.618,173z"/>
		</g>
		<g>
			<polygon fill="#FFFFFF" points="30.6,165.312 31.287,167.207 32.824,167.511 31.711,168.985 31.975,171.069 30.6,170.086      29.225,171.069 29.488,168.985 28.375,167.511 29.912,167.207    "/>
		</g>
		<g>
			<path fill="#FFFFFF" d="M32.888,172.982L32.884,173c0.008,0,0.016,0,0.021,0L32.888,172.982z"/>
		</g>
		<g>
			<polygon fill="#FFFFFF" points="27.5,161.115 28.188,163.009 29.725,163.314 28.611,164.788 28.875,166.872 27.5,165.888      26.125,166.872 26.389,164.788 25.275,163.314 26.813,163.009    "/>
		</g>
		<g>
			<polygon fill="#FFFFFF" points="33.8,169.509 34.487,171.405 36.024,171.709 35.055,172.995 32.538,172.986 31.575,171.71      33.112,171.405    "/>
		</g>
	</g>
</g>
<g id="Belgium">
	<g>
		<g>
			<rect x="0.013" y="105" fill="#EE3E47" width="50" height="33"/>
		</g>
		<g>
			<rect x="0.013" y="105" fill="#F6DE4F" width="33.333" height="33"/>
		</g>
		<g>
			<rect x="0.013" y="105" width="16.667" height="33"/>
		</g>
	</g>
</g>
<g id="Australia">
	<g>
		<g>
			<rect x="0.028" y="70.032" fill="#224686" width="49.957" height="32.944"/>
			<path fill="#224686" d="M50.001,102.991H0.015V70.017h49.986V102.991z M0.044,102.961h49.928V70.046H0.044V102.961z"/>
		</g>
		<g>
			<polygon fill="#FFFFFF" points="0.028,71.761 5.29,75.394 0.028,75.394 0.028,80.291 6.044,80.291 0.028,84.272 0.028,85.784      2.018,85.784 9.645,80.291 9.645,85.784 13.471,85.784 13.471,80.291 20.841,85.784 23.517,85.784 23.517,84.396 17.499,80.291      23.517,80.291 23.517,75.394 17.328,75.394 23.517,71.534 23.517,70.015 21.759,70.015 13.471,75.28 13.471,70.015 9.645,70.015      9.645,75.28 2.111,70.015 0.028,70.015    "/>
			<path fill="#FFFFFF" d="M23.53,85.798h-2.695l-0.004-0.003l-7.346-5.475v5.478H9.63V80.32l-7.607,5.479H0.015v-1.534l0.006-0.004     l5.975-3.955h-5.98v-4.927h5.228l-5.228-3.61V70l2.105,0.002l7.51,5.249V70h3.855v5.253L21.759,70h1.771v1.542l-0.006,0.004     l-6.145,3.833h6.15v4.927h-5.983l5.983,4.083V85.798z M20.845,85.769h2.656v-1.365l-6.05-4.127h6.05v-4.868h-6.225l0.044-0.027     l6.181-3.855v-1.496h-1.737l-8.308,5.277v-5.277H9.659v5.279l-0.023-0.016l-7.529-5.263H0.044v1.724l5.293,3.655H0.044v4.868     h6.049l-0.04,0.027L0.044,84.28v1.489h1.969l7.646-5.507v5.507h3.797v-5.507l0.023,0.018L20.845,85.769z"/>
		</g>
		<g>
			<polygon fill="#F16347" points="0.028,76.345 10.405,76.345 10.405,70.015 12.823,70.015 12.823,76.345 23.517,76.345      23.517,79.489 12.823,79.489 12.823,85.784 10.405,85.784 10.405,79.489 0.028,79.489    "/>
			<path fill="#F16347" d="M12.837,85.798h-2.445v-6.295H0.015v-3.173h10.377V70h2.445v6.331H23.53v3.173H12.837V85.798z      M10.42,85.769h2.388v-6.295h10.693v-3.115H12.808v-6.33H10.42v6.33H0.044v3.115H10.42V85.769z"/>
		</g>
		<g>
			<polygon fill="#F16347" points="1.444,85.784 8.876,80.422 7.737,80.422 0.205,85.784    "/>
			<path fill="#F16347" d="M1.449,85.798h-1.29l0.037-0.027l7.536-5.364h1.188l-0.036,0.026L1.449,85.798z M0.251,85.769h1.188     l7.392-5.332H7.742L0.251,85.769z"/>
		</g>
		<g>
			<polygon fill="#F16347" points="16.826,80.422 23.517,84.962 23.517,85.784 15.736,80.422    "/>
			<path fill="#F16347" d="M23.53,85.812l-0.022-0.016l-7.819-5.388l1.146,0.002l6.695,4.544V85.812z M15.784,80.437l7.717,5.319     V84.97l-6.68-4.533H15.784z"/>
		</g>
		<g>
			<polygon fill="#F16347" points="23.517,70.015 15.409,75.394 14.157,75.394 22.433,70.015    "/>
			<path fill="#F16347" d="M15.413,75.408h-1.305l0.041-0.027L22.433,70h1.133l-0.041,0.027L15.413,75.408z M14.208,75.379h1.197     l8.063-5.35h-1.03L14.208,75.379z"/>
		</g>
		<g>
			<polygon fill="#F16347" points="0.028,71.193 5.962,75.28 7.298,75.28 0.028,70.242    "/>
			<path fill="#F16347" d="M7.345,75.294l-1.391-0.002l-5.939-4.091v-0.986l0.022,0.016L7.345,75.294z M5.967,75.265h1.284     l-7.207-4.995v0.915L5.967,75.265z"/>
		</g>
		<g>
			<path fill="#363639" d="M49.987,103H0.001V70.025h49.986V103z M0.03,102.971h49.928V70.054H0.03V102.971z"/>
		</g>
		<g>
			<polygon fill="#FFFFFF" points="10.419,97.572 10.651,94.935 8.933,94.576 10.154,93.179 9.412,91.067 11.143,91.773      11.835,89.634 12.59,91.712 14.252,91.102 13.622,93.257 15.12,94.497 13.276,94.996 13.376,97.528 11.885,95.982    "/>
			<path fill="#FFFFFF" d="M10.401,97.614l0.004-0.043l0.23-2.625l-1.73-0.361l1.232-1.41l-0.75-2.134l0.029,0.012l1.717,0.701     l0.7-2.165l0.015,0.041l0.75,2.063l1.676-0.615l-0.008,0.028l-0.628,2.146l1.513,1.252l-0.027,0.007l-1.832,0.496l0.101,2.559     l-1.508-1.563L10.401,97.614z M8.961,94.567l1.706,0.356l-0.002,0.013l-0.228,2.595l1.446-1.57l0.012,0.011l1.465,1.518     l-0.1-2.505l0.012-0.003l1.816-0.492l-1.483-1.228l0.003-0.009l0.621-2.128l-1.648,0.605l-0.005-0.014l-0.74-2.037l-0.685,2.113     l-0.014-0.006l-1.701-0.694l0.734,2.089l-0.006,0.006L8.961,94.567z"/>
		</g>
		<g>
			<polygon fill="#FFFFFF" points="36.542,77.392 36.624,76.187 35.956,76.013 36.448,75.394 36.146,74.433 36.845,74.737      37.108,73.769 37.425,74.72 38.097,74.458 37.839,75.428 38.444,75.986 37.688,76.214 37.743,77.375 37.134,76.651    "/>
			<path fill="#FFFFFF" d="M36.524,77.438l0.004-0.046l0.08-1.193l-0.678-0.176l0.014-0.018l0.486-0.613l-0.309-0.984l0.713,0.31     l0.273-0.999l0.014,0.046l0.311,0.936l0.686-0.267l-0.008,0.028l-0.256,0.961l0.619,0.57L38.448,76l-0.744,0.224l0.057,1.192     l-0.029-0.033l-0.598-0.709L36.524,77.438z M35.981,76.004l0.658,0.171v0.012l-0.08,1.158l0.574-0.718l0.012,0.014l0.582,0.69     l-0.055-1.129l0.012-0.003l0.73-0.22l-0.594-0.546l0.002-0.009l0.252-0.942l-0.66,0.257l-0.004-0.015l-0.301-0.905l-0.256,0.938     l-0.016-0.006l-0.67-0.291l0.295,0.937l-0.004,0.006L35.981,76.004z"/>
		</g>
		<g>
			<polygon fill="#FFFFFF" points="38.884,87.572 39.526,87.572 39.747,86.832 39.954,87.572 40.616,87.572 40.073,88.088      40.3,88.945 39.747,88.395 39.116,88.945 39.374,88.088    "/>
			<path fill="#FFFFFF" d="M40.329,88.994l-0.039-0.038l-0.545-0.541l-0.658,0.575l0.016-0.049l0.256-0.849l-0.508-0.535h0.664     l0.232-0.779l0.217,0.779h0.689l-0.027,0.025l-0.537,0.51L40.329,88.994z M38.919,87.587l0.473,0.498l-0.004,0.008L39.146,88.9     l0.602-0.526l0.525,0.522l-0.217-0.813l0.008-0.006l0.516-0.491h-0.637l-0.004-0.011l-0.191-0.691l-0.211,0.702H38.919z"/>
		</g>
		<g>
			<polygon fill="#FFFFFF" points="29.017,85.416 29.091,84.142 28.394,83.949 28.915,83.287 28.601,82.272 29.323,82.596      29.601,81.566 29.935,82.578 30.62,82.292 30.356,83.322 30.991,83.915 30.206,84.168 30.263,85.381 29.632,84.623    "/>
			<path fill="#FFFFFF" d="M28.999,85.462l0.002-0.047l0.074-1.262l-0.707-0.195l0.014-0.018l0.518-0.656l-0.322-1.039l0.029,0.014     l0.707,0.316l0.287-1.06l0.014,0.047l0.33,0.997l0.697-0.292l-0.006,0.028l-0.262,1.022l0.646,0.604l-0.023,0.008l-0.775,0.25     l0.057,1.245l-0.027-0.034l-0.619-0.745L28.999,85.462z M28.419,83.941l0.688,0.189v0.012l-0.072,1.227l0.598-0.771l0.613,0.739     l-0.055-1.181l0.01-0.003l0.764-0.246l-0.623-0.582l0.002-0.008l0.256-1.002l-0.672,0.281l-0.006-0.015l-0.318-0.965l-0.27,0.999     l-0.016-0.007l-0.693-0.31l0.309,0.991l-0.006,0.006L28.419,83.941z"/>
		</g>
		<g>
			<polygon fill="#FFFFFF" points="41.3,83.722 41.382,82.422 40.653,82.22 41.187,81.549 40.858,80.519 41.603,80.842      41.905,79.792 42.22,80.824 42.937,80.536 42.665,81.593 43.31,82.179 42.509,82.447 42.565,83.688 41.929,82.902    "/>
			<path fill="#FFFFFF" d="M41.282,83.77l0.004-0.048l0.08-1.288l-0.738-0.205l0.014-0.018l0.529-0.665l-0.334-1.054l0.756,0.33     l0.313-1.081l0.014,0.047l0.311,1.017l0.729-0.293l-0.008,0.028l-0.268,1.049l0.654,0.596l-0.023,0.008l-0.789,0.265l0.059,1.274     l-0.029-0.035l-0.625-0.771L41.282,83.77z M40.679,82.212l0.719,0.2v0.012l-0.08,1.251l0.611-0.797l0.012,0.015l0.609,0.751     l-0.055-1.207l0.01-0.004l0.775-0.26l-0.631-0.575l0.002-0.008l0.264-1.03l-0.705,0.284l-0.004-0.015l-0.301-0.984l-0.293,1.018     l-0.016-0.006l-0.715-0.311l0.322,1.007l-0.006,0.006L40.679,82.212z"/>
		</g>
		<g>
			<polygon fill="#FFFFFF" points="35.97,98.382 36.032,97.091 35.321,96.881 35.856,96.209 35.53,95.179 36.267,95.51      36.556,94.453 36.89,95.485 37.599,95.204 37.329,96.253 37.978,96.846 37.179,97.108 37.235,98.348 36.587,97.572    "/>
			<path fill="#FFFFFF" d="M35.952,98.428l0.002-0.047l0.063-1.28l-0.721-0.213l0.545-0.683l-0.336-1.054l0.752,0.338l0.297-1.088     l0.016,0.047l0.328,1.017l0.723-0.286l-0.006,0.028l-0.268,1.041l0.658,0.604l-0.023,0.008l-0.787,0.258l0.057,1.272     l-0.027-0.034l-0.637-0.761L35.952,98.428z M35.347,96.873l0.701,0.207v0.011l-0.063,1.245l0.6-0.787l0.014,0.014l0.619,0.743     l-0.055-1.208l0.01-0.004l0.775-0.254l-0.635-0.582l0.002-0.009l0.262-1.021l-0.697,0.276l-0.324-1l-0.279,1.027l-0.016-0.007     l-0.707-0.318l0.32,1.006l-0.006,0.006L35.347,96.873z"/>
		</g>
	</g>
</g>
<g id="Argentina">
	<g>
		<g>
			<g>
				
					<rect x="0.015" y="35.012" transform="matrix(-1 4.786571e-004 -4.786571e-004 -1 50.0373 102.9885)" fill="#6BA5D9" width="49.983" height="32.977"/>
			</g>
		</g>
		<g>
			<g>
				
					<rect x="0.015" y="46" transform="matrix(-1 4.884322e-004 -4.884322e-004 -1 50.0393 102.9907)" fill="#FFFFFF" width="49.984" height="11.003"/>
			</g>
		</g>
		<g>
			<g>
				<path fill="#F6B12E" d="M25.005,47.374c2.143-0.004,3.906,1.865,3.901,4.111c-0.003,2.284-1.749,4.134-3.898,4.141      c-2.147,0.004-3.904-1.864-3.902-4.111C21.109,49.234,22.853,47.382,25.005,47.374z"/>
			</g>
		</g>
	</g>
</g>
<g id="Algeria">
	<g>
		<g>
			<path fill="#FFFFFF" d="M0.009,0L50,0.023L49.982,33L0,32.977L0.009,0z"/>
		</g>
		<g>
			<path fill="#16663B" d="M0.009,0l24.995,0.01l-0.01,32.979L0,32.977L0.009,0z"/>
		</g>
		<g>
			<g>
				<polygon fill="#D4253F" points="31.873,16.643 30.482,17.442 30.357,19.024 29.162,17.962 27.603,18.335 28.254,16.881       27.413,15.53 29.012,15.693 30.054,14.485 30.391,16.037     "/>
			</g>
		</g>
	</g>
	<g>
		<path fill="#D4253F" d="M27.005,23.09c-3.676,0-6.661-2.954-6.661-6.603c0.006-3.643,2.991-6.587,6.666-6.585    c2.086-0.004,3.944,0.94,5.165,2.422c-1.447-2.436-4.113-4.076-7.173-4.079C20.4,8.249,16.67,11.938,16.67,16.49    c-0.002,4.557,3.727,8.247,8.326,8.253c3.082-0.001,5.77-1.664,7.212-4.127C30.986,22.125,29.111,23.093,27.005,23.09z"/>
	</g>
	<g>
	</g>
	<g>
	</g>
	<g>
	</g>
	<g>
	</g>
	<g>
	</g>
	<g>
	</g>
	<g>
	</g>
	<g>
	</g>
	<g>
	</g>
	<g>
	</g>
	<g>
	</g>
	<g>
	</g>
	<g>
	</g>
	<g>
	</g>
	<g>
	</g>
</g>
</svg>