<?xml version="1.0" encoding="UTF-8" standalone="no"?>
<svg
   xmlns:dc="http://purl.org/dc/elements/1.1/"
   xmlns:cc="http://creativecommons.org/ns#"
   xmlns:rdf="http://www.w3.org/1999/02/22-rdf-syntax-ns#"
   xmlns:svg="http://www.w3.org/2000/svg"
   xmlns="http://www.w3.org/2000/svg"
   xmlns:xlink="http://www.w3.org/1999/xlink"
   xmlns:sodipodi="http://sodipodi.sourceforge.net/DTD/sodipodi-0.dtd"
   xmlns:inkscape="http://www.inkscape.org/namespaces/inkscape"
   width="282"
   height="107"
   id="svg2"
   version="1.1"
   inkscape:version="0.91 r13725"
   sodipodi:docname="sprite.svg">
  <metadata
     id="metadata80">
    <rdf:RDF>
      <cc:Work
         rdf:about="">
        <dc:format>image/svg+xml</dc:format>
        <dc:type
           rdf:resource="http://purl.org/dc/dcmitype/StillImage" />
        <dc:title />
      </cc:Work>
    </rdf:RDF>
  </metadata>
  <defs
     id="defs78" />
  <sodipodi:namedview
     pagecolor="#f0cfff"
     bordercolor="#666666"
     borderopacity="1"
     objecttolerance="20"
     gridtolerance="20"
     guidetolerance="10"
     inkscape:pageopacity="1"
     inkscape:pageshadow="2"
     inkscape:window-width="1920"
     inkscape:window-height="976"
     id="namedview76"
     showgrid="true"
     inkscape:zoom="5.6568542"
     inkscape:cx="178.45267"
     inkscape:cy="64.964305"
     inkscape:window-x="1432"
     inkscape:window-y="-8"
     inkscape:window-maximized="1"
     inkscape:current-layer="svg2"
     inkscape:snap-bbox="true"
     inkscape:snap-nodes="false"
     inkscape:snap-global="true"
     inkscape:snap-to-guides="false"
     inkscape:snap-grids="false"
     inkscape:bbox-paths="true"
     inkscape:snap-others="false"
     inkscape:bbox-nodes="true"
     fit-margin-top="0"
     fit-margin-left="0"
     fit-margin-right="0"
     fit-margin-bottom="0.6">
    <inkscape:grid
       type="xygrid"
       id="grid3408"
       originx="0"
       originy="0.99999937" />
  </sodipodi:namedview>
  <path
     style="fill:#ffffff"
     inkscape:connector-curvature="0"
     d="m 25.1,106.4 c -0.1,0 -0.3,0 -0.4,-0.1 L 0.1,81.599999 c -0.1,-0.1 -0.1,-0.2 -0.1,-0.4 0,-0.1 0.1,-0.3 0.1,-0.4 l 24.6,-24.6 c 0.2,-0.2 0.5,-0.2 0.7,0 0.2,0.2 0.2,0.5 0,0.7 l -24.2,24.3 L 25.5,105.5 c 0.2,0.2 0.2,0.5 0,0.7 -0.1,0.1 -0.2,0.2 -0.4,0.2 l 0,0 z m 4.9,-34.9 0,0"
     id="svg_1" />
  <g
     id="g3522">
    <rect
       id="svg_10"
       width="240"
       height="54"
       y="0"
       x="0"
       style="fill:none" />
    <path
       id="svg_15"
       d="m 152.4,36.1 c -0.4,0.2 -0.4,0.4 -0.6,0.7 -2.4,3.9 -4.8,7.9 -7.2,11.8 -0.2,0.3 -0.4,0.7 -0.6,1 -0.3,0.4 -0.6,0.6 -1.1,0.6 -1.5,0 -3,0 -4.4,0 -0.2,0 -0.4,0 -0.5,-0.1 -0.3,-0.1 -0.4,-0.2 -0.5,-0.5 0,-0.2 0,-0.5 0,-0.7 0,-7 0,-14.1 0,-21.1 0,-1.3 0.1,-1.4 1.4,-1.4 1.1,0 2.2,0 3.4,0 0.2,0 0.4,0 0.6,0 0.4,0 0.6,0.3 0.7,0.7 0,0.3 0,0.6 0,0.8 0,3.5 0,7 0,10.4 0,0.3 0,0.7 0,1 0.3,0 0.4,-0.3 0.5,-0.4 2.4,-3.8 4.7,-7.6 7.1,-11.4 0.1,-0.1 0.2,-0.3 0.3,-0.5 0.3,-0.5 0.7,-0.8 1.4,-0.8 1.5,0 3,0 4.5,0 0.2,0 0.4,0 0.5,0 0.3,0 0.5,0.2 0.5,0.5 0,0.2 0.1,0.5 0.1,0.7 0,7.1 0,14.2 0,21.3 0,1.1 -0.1,1.3 -1.3,1.3 -1.2,0 -2.3,0 -3.5,0 -0.2,0 -0.4,0 -0.6,0 -0.4,-0.1 -0.6,-0.2 -0.6,-0.6 0,-0.3 0,-0.6 0,-0.8 0,-3.9 0,-7.8 0,-11.7 0,-0.2 0,-0.4 -0.1,-0.8 m -42.8,2.4 0,0 0,0 m 0,0 0,0"
       inkscape:connector-curvature="0"
       style="fill:#5b3c2a" />
    <path
       id="svg_16"
       d="m 109.6,38.5 c -0.1,-6.8 5.5,-12.2 12.1,-12.3 6.6,0 12.3,5.3 12.3,12.2 0,6.7 -5.4,12.2 -12.2,12.2 -6.9,0 -12.3,-5.6 -12.2,-12.1 m 18.2,-0.1 c 0,-0.4 0,-0.8 -0.1,-1.2 -0.1,-0.4 -0.2,-0.9 -0.4,-1.3 -0.9,-2.4 -3,-3.8 -5.5,-3.9 -2.5,0 -4.6,1.4 -5.6,3.8 -0.6,1.4 -0.7,2.9 -0.3,4.4 0.7,2.5 2.8,4.3 5.4,4.5 2.3,0.2 4.8,-1 5.9,-3.6 0.4,-0.8 0.6,-1.8 0.6,-2.7"
       inkscape:connector-curvature="0"
       style="fill:#5b3c2a" />
    <path
       id="svg_17"
       d="m 227.2,50 c -3.5,0 -7,0 -10.4,0 -0.3,0 -0.6,0 -0.8,0 -0.4,-0.1 -0.6,-0.3 -0.7,-0.7 0,-0.1 0,-0.2 0,-0.3 0,-1.3 0,-2.7 0,-4 0,-0.1 0,-0.3 0,-0.4 0.1,-0.4 0.3,-0.7 0.8,-0.7 0.5,0 1,0 1.5,0 0.2,0 0.4,-0.1 0.5,-0.3 0.2,-0.5 0.4,-1 0.6,-1.5 1.8,-4.6 3.5,-9.2 5.3,-13.9 0.2,-0.5 0.4,-1 0.7,-1.5 0.2,-0.4 0.5,-0.6 0.9,-0.6 1.2,0 2.4,0 3.6,0 0.4,0 0.8,0.2 1,0.5 0.2,0.4 0.4,0.8 0.6,1.2 1.9,4.9 3.8,9.9 5.7,14.8 0.5,1.3 0.2,1.2 1.7,1.2 l 0.1,0 c 0.8,0 1,0.2 1,1 0,1.4 0,2.9 0,4.3 0,0.1 0,0.2 0,0.3 0,0.3 -0.2,0.5 -0.5,0.5 -0.3,0 -0.6,0 -0.8,0 -3.9,0.1 -7.4,0.1 -10.8,0.1 m 0.1,-15.2 c -0.5,0.9 -2.9,8 -3,8.9 0.3,0.1 0.6,0.1 0.8,0.1 1.2,0 2.3,0 3.5,0 0.4,0 0.8,0 1.2,0 0.4,0 0.5,-0.1 0.3,-0.5 -0.3,-0.9 -0.6,-1.7 -0.8,-2.6 -0.7,-1.9 -1.3,-3.8 -2,-5.9"
       inkscape:connector-curvature="0"
       style="fill:#5b3c2a" />
    <path
       id="svg_18"
       d="m 210.4,50 c -0.7,0 -1.5,0 -2.2,0 -0.5,0 -0.8,-0.2 -1,-0.7 -0.3,-0.9 -0.6,-1.7 -1,-2.6 C 206,46.1 206,46 205.3,46 c -2.4,0 -4.8,0 -7.2,0 -0.1,0 -0.1,0 -0.2,0 -0.3,0 -0.5,0.1 -0.6,0.4 -0.2,0.7 -0.5,1.4 -0.8,2.1 -0.1,0.2 -0.2,0.4 -0.2,0.6 -0.2,0.5 -0.5,0.8 -1.1,0.8 -0.9,0 -1.8,0 -2.7,0 -0.5,0 -0.9,0 -1.4,0 -1,0 -1.1,-0.2 -0.8,-1.1 0.4,-1 0.8,-2 1.2,-3 2.4,-6.2 4.8,-12.3 7.1,-18.5 0.1,-0.1 0.1,-0.3 0.2,-0.4 0.2,-0.5 0.6,-0.8 1.1,-0.8 0.5,0 1,0 1.5,0 0.7,0 1.5,0 2.2,0 0.5,0 0.8,0.2 1,0.6 0.2,0.4 0.4,0.8 0.5,1.2 2.7,6.9 5.3,13.8 8,20.7 0.1,0.2 0.2,0.4 0.2,0.6 0.1,0.3 -0.1,0.6 -0.5,0.7 -0.2,0 -0.4,0 -0.6,0 -0.5,0.1 -1.2,0.1 -1.8,0.1 l 0,0 0,0 z m -8.7,-16 c -0.8,2.3 -1.5,4.5 -2.2,6.7 -0.1,0.2 0,0.4 0.3,0.4 1.3,0 2.7,0 4,0 0.3,0 0.3,-0.1 0.3,-0.4 -0.7,-2.1 -1.4,-4.3 -2.1,-6.4 -0.1,-0.1 -0.2,-0.1 -0.3,-0.3"
       inkscape:connector-curvature="0"
       style="fill:#5b3c2a" />
    <path
       id="svg_19"
       d="m 89.7,38.3 c 0,-3.4 0,-6.9 0,-10.3 0,-0.3 0,-0.6 0,-0.9 0,-0.3 0.2,-0.5 0.6,-0.5 0.2,0 0.5,0 0.7,0 3.1,0 6.3,0 9.4,0 4.7,-0.1 7.4,4 7.5,7.3 0.1,2.4 -0.6,4.4 -2.3,6.1 -1.4,1.3 -3,2.1 -4.9,2.1 -1.2,0 -2.5,0 -3.7,0 -0.2,0 -0.5,0 -0.7,0 -0.3,0 -0.4,0.1 -0.4,0.5 0,0.3 0,0.6 0,0.8 0,2 0,3.9 0,5.9 0,0.9 -0.2,1.1 -1.1,1.1 -1.3,0 -2.7,0 -4,0 -0.1,0 -0.2,0 -0.3,0 -0.6,-0.1 -0.7,-0.2 -0.8,-0.8 0,-0.3 0,-0.6 0,-0.8 0,0 0,-10.5 0,-10.5 l 0,0 0,0 z m 6.2,-4.2 0,0 c 0,0.7 0,1.5 0,2.2 0,0.4 0.1,0.5 0.4,0.5 1.1,0 2.1,0 3.2,0 0.5,0 0.9,-0.2 1.3,-0.5 1.4,-1.1 1.3,-3.4 -0.1,-4.4 -0.3,-0.2 -0.7,-0.4 -1.2,-0.4 -1.1,0 -2.1,0 -3.2,0 -0.3,0 -0.4,0.2 -0.4,0.4 0,0.8 0,1.5 0,2.2"
       inkscape:connector-curvature="0"
       style="fill:#5b3c2a" />
    <path
       id="svg_20"
       d="m 59.2,26.2 c 2.3,0 4.4,0.6 6.4,1.7 0.2,0.1 0.4,0.3 0.6,0.4 0.4,0.3 0.4,0.6 0.2,1 -0.1,0.1 -0.2,0.2 -0.2,0.3 -0.7,1 -1.4,2 -2.1,3 -0.6,0.8 -0.7,0.9 -1.5,0.3 -0.7,-0.5 -1.4,-0.8 -2.2,-0.9 -3.2,-0.5 -5.9,1.2 -6.8,4.2 -0.5,1.6 -0.4,3.2 0.3,4.7 1.5,3.4 5.4,4.4 8.4,2.7 0.3,-0.2 0.6,-0.4 0.9,-0.5 0.2,-0.1 0.5,-0.1 0.7,0.1 0.1,0.1 0.2,0.3 0.3,0.4 0.8,1.1 1.5,2.2 2.3,3.3 0.1,0.1 0.2,0.2 0.2,0.4 0.1,0.3 0.1,0.5 -0.1,0.8 -0.2,0.1 -0.3,0.3 -0.5,0.4 -7.1,4.5 -16.5,0.8 -18.5,-7.4 -1.5,-6.2 2.1,-13 8.9,-14.7 0.7,-0.1 1.7,-0.2 2.7,-0.2"
       inkscape:connector-curvature="0"
       style="fill:#5b3c2a" />
    <path
       id="svg_21"
       d="m 169.4,38.2 c -0.1,-4.7 3,-10.5 9.7,-12 3.2,-0.7 6.2,-0.1 9,1.6 0.1,0.1 0.2,0.1 0.4,0.2 0.5,0.4 0.6,0.7 0.2,1.2 -0.8,1.2 -1.7,2.4 -2.6,3.6 -0.3,0.4 -0.5,0.4 -1,0.2 -0.2,-0.1 -0.3,-0.2 -0.4,-0.3 -3.9,-2.3 -8.7,0 -9.1,4.7 -0.1,1.4 0.1,2.7 0.8,4 1.8,3.2 5.6,3.7 8.2,2.2 0.2,-0.1 0.5,-0.3 0.7,-0.4 0.3,-0.2 0.5,-0.1 0.8,0.1 0.1,0.1 0.2,0.2 0.3,0.3 0.8,1.1 1.6,2.3 2.3,3.4 0.1,0.1 0.2,0.2 0.2,0.4 0.1,0.3 0.1,0.6 -0.2,0.8 -0.2,0.2 -0.4,0.3 -0.6,0.4 -7.6,4.7 -17.1,0.2 -18.6,-8.3 0,-0.7 0,-1.4 -0.1,-2.1"
       inkscape:connector-curvature="0"
       style="fill:#5b3c2a" />
    <path
       id="svg_22"
       d="m 80.8,40.9 0,7.5 c 0,0.2 0,0.4 0,0.6 0,1 -0.2,1.2 -1.2,1.2 -1.3,0 -2.6,0 -3.9,0 -0.1,0 -0.3,0 -0.4,0 -0.4,-0.1 -0.7,-0.4 -0.7,-0.8 0,-0.3 0,-0.6 0,-0.8 0,-5.2 0,-10.5 0,-15.7 0,-1 0.1,-1 -1,-1 -1.3,0 -2.5,0 -3.8,0 -0.2,0 -0.5,0 -0.7,0 -0.4,-0.1 -0.7,-0.3 -0.7,-0.8 0,-0.1 0,-0.2 0,-0.3 0,-1.1 0,-2.2 0,-3.4 0,-0.1 0,-0.2 0,-0.3 0.1,-0.4 0.3,-0.6 0.7,-0.7 0.2,0 0.5,0 0.7,0 5.3,0 10.6,0 15.9,0 l 0.1,0 c 1.2,0 1.3,0.1 1.3,1.2 0,1 0,2 0,3 0,0.1 0,0.2 0,0.3 0,0.6 -0.4,1 -1,1 -1.2,0 -2.3,0 -3.5,0 -0.6,0 -1.1,-0.1 -1.7,0.1 -0.3,0.6 -0.1,1.2 -0.1,1.8 0,2.3 0,4.7 0,7.1"
       inkscape:connector-curvature="0"
       style="fill:#5b3c2a" />
    <path
       id="svg_23"
       d="m 156.6,8.8 c 0,0 -6.6,1.9 -8.5,5.7 -1.9,3.8 -0.9,9.5 -0.9,9.5 0,0 6.6,-1.9 8.5,-5.7 1.9,-3.9 0.9,-9.5 0.9,-9.5 z"
       inkscape:connector-curvature="0"
       style="fill:#82bd36" />
    <g
       id="g3477">
      <path
         style="fill:#82bd36"
         inkscape:connector-curvature="0"
         d="M 40,20.7 C 40,31.5 31.3,40.2 20.5,40.2 9.7,40.2 1,31.4 1,20.7 1,9.9 9.7,1.2 20.5,1.2 31.3,1.2 40,9.9 40,20.7 M 22.5,1.3 l 0,0 0,0 m 0,0 0,0"
         id="svg_11" />
      <path
         style="fill:#6b9928"
         inkscape:connector-curvature="0"
         d="m 22.5,1.3 c 1.8,0.9 3.5,2 4.9,3.5 3.3,3.3 5.2,7.9 5.2,12.6 0,4.7 -1.9,9.3 -5.2,12.6 -3.3,3.3 -7.9,5.2 -12.6,5.2 -3.6,0 -7.1,-1.1 -10.1,-3.1 3.5,4.9 9.3,8 15.8,8 C 31.3,40.1 40,31.4 40,20.6 40,10.6 32.4,2.3 22.5,1.3"
         id="svg_12" />
      <polygon
         style="fill:#5b3c2a"
         points="11,19 11,26 20,26 18,48 25,48 23,26 36,26 27,19 "
         id="svg_13" />
      <polygon
         style="fill:#6b9928"
         points="11.5,48 13.5,45 15.5,48 17.5,45.1 19.5,48 21.5,45 23.5,48 25.5,45 27.5,48.1 29.5,45 31.5,48 34,45 34,53 9,53 9,45 "
         id="svg_14" />
      <image
         height="0.2"
         width="0.80000001"
         y="21.799999"
         x="8.8000002"
         id="svg_27" />
    </g>
  </g>
  <g
     id="svg_119"
     transform="matrix(0.53779065,0,0,0.53779065,-96.798299,-28.747045)"
     stroke="null" />
  <g
     id="g3540"
     transform="translate(-157.99934,0.077307)">
    <g
       transform="matrix(0.5320246,0,0,0.5320246,-166.31839,-28.739661)"
       id="svg_194"
       stroke="null">
      <defs
         id="defs60">
        <circle
           r="30"
           cy="31"
           cx="31"
           id="svg_118"
           stroke="null" />
      </defs>
      <use
         x="664.97998"
         y="158.28"
         id="svg_195"
         xlink:href="#svg_118"
         stroke="null"
         style="fill:#3b5998"
         width="100%"
         height="100%" />
      <clipPath
         id="svg_117">
        <use
           id="svg_196"
           xlink:href="#svg_118"
           stroke="null"
           x="0"
           y="0"
           width="100%"
           height="100%" />
      </clipPath>
    </g>
    <path
       id="svg_197"
       d="m 207.15,64.83 -1.86,0 c 0,0 -3.14,-0.21 -3.14,3.09 0,0.69 0,2.29 0,2.29 l -1.76,0 0,1.76 1.76,0 0,7.82 2.5,0 0,-7.82 2.34,0 0.48,-1.76 -2.82,0 0,-2.34 c 0,0 0,-0.85 1.01,-0.85 l 1.49,0 0,-2.18 z"
       stroke="null"
       inkscape:connector-curvature="0"
       style="clip-rule:evenodd;fill:#ffffff;fill-rule:evenodd" />
  </g>
  <g
     stroke="null"
     id="svg_54"
     transform="translate(-156.99769,0.076068)">
    <g
       stroke="null"
       id="svg_201"
       transform="matrix(0.53206614,0,0,0.53206614,-166.58057,-28.74753)">
      <g
         stroke="null"
         id="svg_202">
        <circle
           style="fill:#00acee"
           stroke="null"
           cx="758.44"
           cy="189.28"
           r="30"
           id="svg_203" />
      </g>
    </g>
    <g
       stroke="null"
       id="svg_204"
       transform="matrix(0.53206614,0,0,0.53206614,-166.58057,-28.74753)">
      <path
         style="fill:#ffffff"
         inkscape:connector-curvature="0"
         stroke="null"
         d="m 770.99,183.88 c 0,0.2 0,0.5 0,0.8 0,7.8 -5.9,16.8 -16.8,16.8 -3.3,0 -6.4,-1 -9.1,-2.7 0.5,0 0.9,0.1 1.4,0.1 2.8,0 5.3,-0.9 7.3,-2.5 -2.6,0 -4.8,-1.8 -5.5,-4.1 0.4,0.1 0.7,0.1 1.1,0.1 0.5,0 0.8,-0.1 1.3,-0.2 -2.7,-0.5 -5,-2.9 -5,-5.8 l 0,-0.1 c 1,0.4 2,0.7 2.9,0.7 -1.6,-1.1 -2.5,-2.9 -2.5,-4.9 0,-1.1 0.4,-2.1 0.9,-3 2.9,3.6 7.3,5.9 12.2,6.2 -0.1,-0.4 -0.1,-0.9 -0.1,-1.3 0,-3.3 2.7,-5.9 5.9,-5.9 1.7,0 3.2,0.7 4.3,1.9 1.4,-0.3 2.6,-0.8 3.8,-1.4 -0.4,1.4 -1.4,2.5 -2.6,3.3 1.2,-0.1 2.3,-0.5 3.4,-0.9 -0.7,1 -1.7,2.1 -2.9,2.9 z"
         id="svg_205" />
    </g>
  </g>
  <g
     stroke="null"
     id="svg_198"
     transform="matrix(0.53202467,0,0,0.53202467,-186.54954,-28.662371)">
    <path
       style="fill:#e52d27"
       inkscape:connector-curvature="0"
       stroke="null"
       d="m 850.47,189.28 c 0,16.6 -13.4,30 -30,30 -16.6,0 -30,-13.4 -30,-30 0,-16.6 13.4,-30 30,-30 16.6,0 30,13.4 30,30 z"
       id="svg_199" />
    <path
       style="fill:#ffffff"
       inkscape:connector-curvature="0"
       stroke="null"
       d="m 839.97,181.28 c 0,0 -0.4,-2.7 -1.6,-4 -1.5,-1.6 -3.2,-1.6 -4,-1.7 -5.5,-0.3 -13.9,-0.3 -13.9,-0.3 l 0,0 c 0,0 -8.4,0 -13.9,0.4 -0.8,0.1 -2.5,0.1 -4,1.7 -1.2,1.2 -1.6,4 -1.6,4 0,0 -0.4,3.2 -0.4,6.4 l 0,3 c 0,3.2 0.4,6.4 0.4,6.4 0,0 0.4,2.7 1.6,4 1.5,1.6 3.5,1.5 4.4,1.7 3.2,0.3 13.5,0.4 13.5,0.4 0,0 8.4,0 13.9,-0.4 0.8,-0.1 2.5,-0.1 4,-1.7 1.2,-1.2 1.6,-4 1.6,-4 0,0 0.4,-3.2 0.4,-6.4 l 0,-3 c 0,-3.2 -0.4,-6.5 -0.4,-6.5 m -23.6,13.2 0,-11.2 10.8,5.6 -10.8,5.6 0,0 z"
       id="svg_200" />
  </g>
  <g
     inkscape:groupmode="layer"
     id="layer1"
     inkscape:label="Layer 1"
     style="display:inline">
    <path
       id="path3553"
       d="m 265.99799,6.345402 c -1.3e-4,-0.0022 -4.8e-4,-0.0044 -4.8e-4,-0.0066 -9.9e-4,-0.02111 -0.003,-0.04204 -0.006,-0.06273 -4.8e-4,-0.003 -7.2e-4,-0.006 -0.001,-0.009 -0.0129,-0.09703 -0.0396,-0.189561 -0.0784,-0.275701 -1.9e-4,-4.8e-4 -4.8e-4,-7.2e-4 -4.8e-4,-0.0012 -0.0191,-0.04258 -0.0411,-0.08361 -0.0658,-0.122783 -0.003,-0.0043 -0.005,-0.0086 -0.008,-0.01274 -0.0108,-0.01654 -0.0219,-0.03288 -0.0337,-0.04868 -0.004,-0.0059 -0.009,-0.01158 -0.0134,-0.01734 -0.009,-0.01139 -0.0178,-0.02264 -0.0271,-0.03364 -0.007,-0.0081 -0.0135,-0.01593 -0.0205,-0.0237 -0.007,-0.0073 -0.0133,-0.01434 -0.0201,-0.02141 -0.007,-0.0078 -0.0142,-0.01571 -0.0217,-0.02322 l -5.48981,-5.389213 c -0.15549,-0.157434 -0.36285,-0.26335 -0.59448,-0.290356 -7.1e-4,-6.5e-5 -9.9e-4,-1.28e-4 -0.002,-1.9e-4 -0.0225,-0.0026 -0.0452,-0.0046 -0.0681,-0.0057 -0.005,-2.21e-4 -0.0102,-1.9e-4 -0.0152,-4.8e-4 C 259.52104,4.79e-4 259.51054,0 259.49984,0 L 243.0001,0 C 242.44765,0 242,0.447319 242,0.999893 l 0,30.00026 c 0,0.55255 0.44765,0.99984 1.0001,0.99984 l 21.99983,0 c 0.55248,0 1.00007,-0.44729 1.00007,-0.99984 l 0,-24.599554 c 0,-0.01857 -4.7e-4,-0.03702 -0.002,-0.05531 z m -5.49843,-2.96146 2.054,2.016403 -2.054,0 0,-2.016403 z m 3.49982,26.615941 -20.0001,0 0,-28.000012 14.50006,0 0,4.400843 c 0,0.55254 0.44863,0.999862 1.0001,0.999862 l 4.49997,0 0,22.599307 z m -2.81911,-13.829967 -13.85844,0 c -0.55244,0 -1.0001,0.447352 -1.0001,0.999925 0,0.553015 0.44766,1.000305 1.0001,1.000305 l 13.85841,0 c 0.55153,0 1.00017,-0.447259 1.00017,-1.000305 0,-0.552573 -0.44864,-0.999925 -1.00014,-0.999925 z m -14.85854,-3.20027 c 0,0.553047 0.44766,1.000338 1.0001,1.000338 l 13.85841,0 c 0.55153,0 1.00017,-0.447291 1.00017,-1.000338 0,-0.552605 -0.44864,-0.999892 -1.00017,-0.999892 l -13.85841,0 c -0.55244,0 -1.0001,0.447321 -1.0001,0.999892 z m 14.85854,7.399484 -13.85844,0 c -0.55244,0 -1.0001,0.44729 -1.0001,0.9998 0,0.553078 0.44766,1.000368 1.0001,1.000368 l 13.85841,0 c 0.55153,0 1.00017,-0.447257 1.00017,-1.000368 0,-0.552479 -0.44864,-0.9998 -1.00014,-0.9998 z m 0,4.200163 -13.85844,0 c -0.55244,0 -1.0001,0.447321 -1.0001,0.999896 0,0.552982 0.44766,1.000364 1.0001,1.000364 l 13.85841,0 c 0.55153,0 1.00017,-0.447349 1.00017,-1.000364 0,-0.552543 -0.44864,-0.999896 -1.00014,-0.999896 z"
       inkscape:connector-curvature="0" />
    <path
       id="path3412"
       d="M 281.9192,1.5383914 280.07116,0.0808269 C 280.01396,0.0336934 279.94324,0 279.86245,0 c -0.0808,0 -0.15485,0.0336935 -0.21207,0.0841871 l -6.72231,8.6376798 c 0,0 -2.64248,-2.5414861 -2.71654,-2.6155371 -0.0741,-0.074107 -0.17168,-0.1986048 -0.31979,-0.1986048 -0.14811,0 -0.21544,0.1043471 -0.29286,0.1817767 -0.0572,0.060574 -0.99976,1.0502562 -1.46429,1.5417142 -0.027,0.030334 -0.0438,0.047134 -0.0673,0.070654 -0.0404,0.057213 -0.0673,0.121184 -0.0673,0.191875 0,0.074107 0.0269,0.1346525 0.0673,0.1918754 l 0.0943,0.087547 c 0,0 4.68912,4.5039857 4.76655,4.5814067 0.0774,0.07747 0.17167,0.175047 0.30969,0.175047 0.13465,0 0.24573,-0.144751 0.30969,-0.208704 L 281.93271,1.9490504 C 281.97312,1.8918368 282,1.8278659 282,1.753815 c 0,-0.084187 -0.0337,-0.15485 -0.0808,-0.2154422 z"
       inkscape:connector-curvature="0" />
  </g>
  <g
     id="g4480"
     transform="matrix(0.53280053,0,0,0.53404539,23.429238,56)">
    <path
       inkscape:connector-curvature="0"
       id="path178"
       d="M 139.96,29.96 C 139.96,13.41 153.41,0 169.99,0 c 16.59,0 30.03,13.41 30.03,29.96 0,16.55 -13.45,29.96 -30.03,29.96 -16.59,0 -30.03,-13.41 -30.03,-29.96 z m 0,0"
       style="fill:#d34836;fill-rule:evenodd" />
    <path
       inkscape:connector-curvature="0"
       id="path180"
       d="m 199.09,23.06 -7.1,0 0,7.87 -3.35,0 0,-7.87 -7.81,0 0,-3.28 7.81,0 0,-7.8 3.35,0 0,7.8 5.96,0 c 0.44,1.06 0.82,2.16 1.14,3.28 z m 0,0"
       style="fill:#ffffff;fill-rule:evenodd" />
    <path
       inkscape:connector-curvature="0"
       id="path182"
       d="m 148.21,49.35 c 0.84,-1.41 2.14,-2.79 4.07,-3.93 4.35,-2.66 10.21,-3.01 13.39,-3.21 -0.98,-1.25 -2.11,-2.58 -2.11,-4.77 0,-1.18 0.35,-1.88 0.7,-2.71 -0.78,0.08 -1.53,0.15 -2.24,0.15 -7.42,0 -11.62,-5.52 -11.62,-10.97 0,-3.21 1.48,-6.78 4.48,-9.36 4,-3.28 8.76,-3.84 12.53,-3.84 l 14.42,0 -4.48,2.51 -4.33,0 c 1.61,1.33 4.96,4.12 4.96,9.44 0,5.17 -2.94,7.6 -5.86,9.91 -0.93,0.9 -1.96,1.88 -1.96,3.41 0,1.53 1.03,2.38 1.81,3.01 l 2.52,1.96 c 3.09,2.56 5.89,4.94 5.89,9.76 0,3.18 -1.49,6.37 -4.38,8.81 -1.56,0.25 -3.16,0.39 -4.79,0.39 2.94,-1.29 4.47,-3.64 4.47,-6.47 0,-3.56 -2.29,-5.45 -7.62,-9.24 -0.55,-0.05 -0.91,-0.05 -1.61,-0.05 -0.63,0 -4.4,0.13 -7.35,1.1 -1.53,0.55 -6.01,2.23 -6.01,7.2 0,0.54 0.06,1.06 0.17,1.57 -7.38,-5.46 -4.18,-4.69 -5.02,-4.69 z m 23.6,-23.48 c 0,-5.04 -2.99,-12.86 -8.81,-12.86 -1.81,0 -3.77,0.91 -4.91,2.31 -1.18,1.47 -1.53,3.35 -1.53,5.15 0,4.69 2.72,12.45 8.76,12.45 1.74,0 3.62,-0.85 4.76,-1.96 1.61,-1.61 1.74,-3.84 1.74,-5.09 z m 0,0"
       style="fill:#ffffff;fill-rule:evenodd" />
  </g>
  <g
     id="g4470"
     transform="matrix(0.53280053,0,0,0.53404539,94.714619,18.574099)">
    <path
       inkscape:connector-curvature="0"
       id="path196"
       d="m 69.98,100.04 c 0,-16.55 13.45,-29.96 30.03,-29.96 16.59,0 30.03,13.41 30.03,29.96 0,16.55 -13.45,29.96 -30.03,29.96 -16.59,0 -30.03,-13.41 -30.03,-29.96 z m 0,0"
       style="fill:#007bb6;fill-rule:evenodd" />
    <path
       inkscape:connector-curvature="0"
       id="path198"
       d="m 92.36,93.76 -6.8,0 0,20.4 6.8,0 0,-20.4 z m 0,0"
       style="fill:#ffffff;fill-rule:evenodd" />
    <path
       inkscape:connector-curvature="0"
       id="path200"
       d="m 92.8,87.45 c -0.04,-2 -1.48,-3.52 -3.8,-3.52 -2.33,0 -3.85,1.52 -3.85,3.52 0,1.96 1.48,3.53 3.76,3.53 l 0.04,0 c 2.37,0 3.85,-1.57 3.85,-3.53 z m 0,0"
       style="fill:#ffffff;fill-rule:evenodd" />
    <path
       inkscape:connector-curvature="0"
       id="path202"
       d="m 116.87,102.46 c 0,-6.27 -3.35,-9.18 -7.83,-9.18 -3.61,0 -5.22,1.98 -6.13,3.37 l 0,-2.89 -6.8,0 c 0.09,1.91 0,20.4 0,20.4 l 6.8,0 0,-11.39 c 0,-0.61 0.04,-1.22 0.22,-1.65 0.49,-1.22 1.61,-2.48 3.49,-2.48 2.46,0 3.44,1.87 3.44,4.61 l 0,10.91 6.8,0 0,-11.7 z m 0,0"
       style="fill:#ffffff;fill-rule:evenodd" />
  </g>
  <g
     transform="matrix(0.53262317,0,0,0.53333333,199.5739,56)"
     id="Instagram"
     style="fill:none">
    <g
       id="g4462">
      <path
         d="M 0.8,30 C 0.8,13.43 14.25,0 30.84,0 47.43,0 60.88,13.43 60.88,30 60.88,46.57 47.43,60 30.84,60 14.25,60 0.8,46.57 0.8,30 Z m 0,0"
         id="path288"
         inkscape:connector-curvature="0"
         style="fill:#517fa4" />
      <path
         d="m 18.87,27.2 c 0,4.52 0,9.03 0,13.55 0,0.65 0.56,1.21 1.21,1.21 7.17,0 14.34,0 21.51,0 0.66,0 1.22,-0.56 1.22,-1.21 0,-4.51 0,-9.02 0,-13.53 l 0,-0.09 -2.92,0 c 0.41,1.31 0.54,2.65 0.38,4.01 -0.16,1.36 -0.6,2.63 -1.32,3.8 -0.72,1.17 -1.65,2.14 -2.78,2.92 -2.95,2.01 -6.83,2.18 -9.96,0.43 -1.58,-0.89 -2.82,-2.12 -3.69,-3.71 -1.29,-2.37 -1.5,-4.87 -0.74,-7.45 -0.97,0 -1.93,0 -2.91,0 z m 24.67,17.97 c -0.16,0.03 -0.32,0.06 -0.48,0.08 l -24.45,0 c -0.06,-0.01 -0.13,-0.02 -0.2,-0.03 -1.34,-0.17 -2.47,-1.2 -2.77,-2.52 -0.03,-0.15 -0.06,-0.31 -0.09,-0.47 l 0,-24.48 c 0.01,-0.06 0.02,-0.11 0.03,-0.17 0.19,-1.37 1.19,-2.46 2.55,-2.77 0.15,-0.03 0.29,-0.05 0.44,-0.08 l 24.51,0 c 0.06,0.01 0.11,0.02 0.17,0.03 1.39,0.19 2.52,1.25 2.78,2.62 0.03,0.13 0.04,0.27 0.07,0.4 l 0,24.41 c -0.02,0.14 -0.04,0.27 -0.07,0.41 -0.24,1.25 -1.26,2.29 -2.51,2.56 z M 24.65,29.91 c -0.05,3.46 2.72,6.2 6.05,6.27 3.46,0.07 6.26,-2.69 6.33,-6.04 0.07,-3.46 -2.72,-6.32 -6.19,-6.32 -3.39,0 -6.14,2.72 -6.19,6.09 z m 16.99,-7.34 c 0.65,-0.02 1.17,-0.57 1.17,-1.22 0,-0.96 0,-1.93 0,-2.89 0,-0.69 -0.55,-1.24 -1.24,-1.24 -0.96,0 -1.92,0 -2.89,0 -0.69,0 -1.24,0.55 -1.24,1.24 0,0.95 0,1.91 0,2.86 0,0.14 0.03,0.29 0.07,0.43 0.17,0.51 0.64,0.82 1.21,0.82 0.46,0 0.93,0 1.39,0 0.5,-0.01 1.01,0 1.51,-0.01 z m 0,0"
         id="path290"
         inkscape:connector-curvature="0"
         style="fill:#ffffff" />
    </g>
  </g>
  <g
     id="g4476"
     transform="matrix(0.53280053,0,0,0.53404539,54.149185,55.903871)">
    <path
       inkscape:connector-curvature="0"
       id="path295"
       d="m 209.93,30.14 c 0,-16.55 13.45,-29.96 30.03,-29.96 16.59,0 30.03,13.41 30.03,29.96 0,16.55 -13.45,29.96 -30.03,29.96 -16.59,0 -30.03,-13.41 -30.03,-29.96 z m 0,0"
       style="fill:#cb2027;fill-rule:evenodd" />
    <path
       inkscape:connector-curvature="0"
       id="path297"
       d="m 227.19,25.8 c 0,3.3 1.25,6.23 3.94,7.33 0.44,0.18 0.83,0.01 0.96,-0.48 0.09,-0.34 0.3,-1.19 0.39,-1.54 0.13,-0.48 0.08,-0.65 -0.28,-1.07 -0.77,-0.91 -1.27,-2.09 -1.27,-3.76 0,-4.85 3.63,-9.18 9.46,-9.18 5.16,0 8,3.15 8,7.35 0,5.53 -2.45,10.2 -6.09,10.2 -2.01,0 -3.52,-1.66 -3.03,-3.69 0.58,-2.43 1.7,-5.05 1.7,-6.8 0,-1.57 -0.84,-2.88 -2.59,-2.88 -2.06,0 -3.71,2.12 -3.71,4.96 0,1.81 0.61,3.03 0.61,3.03 0,0 -2.1,8.89 -2.47,10.45 -0.73,3.1 -0.11,6.9 -0.06,7.29 0.03,0.23 0.32,0.28 0.46,0.11 0.19,-0.25 2.64,-3.26 3.47,-6.27 0.24,-0.85 1.35,-5.27 1.35,-5.27 0.67,1.27 2.62,2.39 4.7,2.39 6.18,0 10.37,-5.62 10.37,-13.14 0,-5.69 -4.83,-10.98 -12.17,-10.98 -9.13,0 -13.74,6.53 -13.74,11.98 z m 0,0"
       style="fill:#ffffff;fill-rule:evenodd" />
  </g>
  <g
     id="g4231"
     transform="matrix(-0.09712195,0,0,-0.09670619,259.99995,51.961417)"
     inkscape:transform-center-x="-12.1117"
     inkscape:transform-center-y="-6.0299233">
    <g
       id="g4189">
      <g
         id="g4191">
        <path
           id="path4193"
           d="m 174.612,144.368 c -2.747,0 -5.493,-1.044 -7.593,-3.144 L 92.672,66.872 18.325,141.224 c -4.194,4.194 -10.987,4.194 -15.18,0 -4.194,-4.194 -4.194,-10.981 0,-15.17 L 85.079,44.109 c 4.194,-4.194 10.992,-4.194 15.18,0 l 81.929,81.945 c 4.194,4.194 4.194,10.976 0,15.17 -2.083,2.094 -4.824,3.144 -7.576,3.144 z"
           style="fill:#010002"
           inkscape:connector-curvature="0" />
      </g>
    </g>
    <g
       id="g4195" />
    <g
       id="g4197" />
    <g
       id="g4199" />
    <g
       id="g4201" />
    <g
       id="g4203" />
    <g
       id="g4205" />
    <g
       id="g4207" />
    <g
       id="g4209" />
    <g
       id="g4211" />
    <g
       id="g4213" />
    <g
       id="g4215" />
    <g
       id="g4217" />
    <g
       id="g4219" />
    <g
       id="g4221" />
    <g
       id="g4223" />
  </g>
</svg>
