<?xml version="1.0" encoding="utf-8"?>
<!-- Generator: Adobe Illustrator 19.2.1, SVG Export Plug-In . SVG Version: 6.00 Build 0)  -->
<svg version="1.1" id="Layer_1" xmlns="http://www.w3.org/2000/svg" xmlns:xlink="http://www.w3.org/1999/xlink" x="0px" y="0px"
	 width="200px" height="140px" viewBox="0 0 200 140" style="enable-background:new 0 0 200 140;" xml:space="preserve">
<metadata><?xpacket begin="﻿" id="W5M0MpCehiHzreSzNTczkc9d"?>
<x:xmpmeta xmlns:x="adobe:ns:meta/" x:xmptk="Adobe XMP Core 5.6-c111 79.158366, 2015/09/25-01:12:00        ">
   <rdf:RDF xmlns:rdf="http://www.w3.org/1999/02/22-rdf-syntax-ns#">
      <rdf:Description rdf:about=""/>
   </rdf:RDF>
</x:xmpmeta>
                                                                                                    
                                                                                                    
                                                                                                    
                                                                                                    
                                                                                                    
                                                                                                    
                                                                                                    
                                                                                                    
                                                                                                    
                                                                                                    
                                                                                                    
                                                                                                    
                                                                                                    
                                                                                                    
                                                                                                    
                                                                                                    
                                                                                                    
                                                                                                    
                                                                                                    
                                                                                                    
                           
<?xpacket end="w"?></metadata>
<style type="text/css">
	.st0{fill:#FF3605;}
	.st1{fill:url(#SVGID_1_);}
	.st2{fill:url(#SVGID_2_);}
	.st3{filter:url(#Adobe_OpacityMaskFilter);}
	.st4{fill:#FFFFFF;}
	.st5{mask:url(#robin_sprite-c);fill:none;stroke:#FFB546;stroke-width:3;stroke-linecap:round;}
	.st6{fill:none;stroke:#FF3605;stroke-width:3;stroke-linecap:round;}
	.st7{fill:none;stroke:#FFB546;stroke-width:3;stroke-linecap:round;stroke-linejoin:round;}
	.st8{fill:none;stroke:#FF3605;stroke-width:3;stroke-linecap:round;stroke-linejoin:round;}
</style>
<g>
	<path class="st0" d="M28,10.2c1.5,0,2.8,1.3,3,2.9c0,1.6-1.3,2.9-3,2.9c-0.2,0-0.3,0-0.4,0c-4,4.5-6.6,11.2-6.5,18h-1.3
		c0.1-6.8-2.4-13.4-6.5-18c-0.2,0-0.3,0-0.4,0c-1.6,0-3-1.3-3-2.9s1.3-2.9,3-2.9s3,1.3,3,2.9c0,1-0.5,1.8-1.3,2.4
		c2.4,2.7,4.2,6,5.2,9.7v-5.6h1.3v5.6c1.1-3.7,3-7,5.2-9.7c-0.8-0.5-1.3-1.4-1.3-2.4C25.1,11.5,26.4,10.2,28,10.2z M20.5,18.4
		c-1.3,0-2.4-1.1-2.4-2.4s1.1-2.4,2.4-2.4s2.4,1.1,2.4,2.4S21.8,18.4,20.5,18.4z M20.5,12.8c-1.6,0-3-1.3-3-2.9s1.3-2.9,3-2.9
		s3,1.3,3,2.9S22.1,12.8,20.5,12.8z"/>
	<path class="st0" d="M59.5,9c2.9,0,3.2,0,4.3,0.1c1.1,0.1,1.9,0.2,2.5,0.5c0.7,0.3,1.3,0.6,1.9,1.2c0.6,0.6,0.9,1.2,1.2,1.9
		c0.3,0.7,0.4,1.4,0.5,2.5c0.1,1.1,0.1,1.5,0.1,4.3s0,3.2-0.1,4.3c-0.1,1.1-0.2,1.9-0.5,2.5c-0.3,0.7-0.6,1.3-1.2,1.9
		c-0.6,0.6-1.2,0.9-1.9,1.2c-0.7,0.3-1.4,0.4-2.5,0.5C62.7,30,62.4,30,59.5,30c-2.9,0-3.2,0-4.3-0.1c-1.1-0.1-1.9-0.2-2.5-0.5
		c-0.7-0.3-1.3-0.6-1.9-1.2c-0.6-0.6-0.9-1.2-1.2-1.9c-0.3-0.7-0.4-1.4-0.5-2.5C49,22.7,49,22.4,49,19.5s0-3.2,0.1-4.3
		c0.1-1.1,0.2-1.9,0.5-2.5c0.3-0.7,0.6-1.3,1.2-1.9c0.6-0.6,1.2-0.9,1.9-1.2c0.7-0.3,1.4-0.4,2.5-0.5C56.3,9,56.6,9,59.5,9z
		 M59.5,10.9c-2.8,0-3.1,0-4.2,0.1c-1,0-1.6,0.2-1.9,0.4c-0.5,0.2-0.8,0.4-1.2,0.8c-0.4,0.4-0.6,0.7-0.8,1.2
		c-0.1,0.4-0.3,0.9-0.4,1.9c-0.1,1.1-0.1,1.4-0.1,4.2s0,3.1,0.1,4.2c0,1,0.2,1.6,0.4,1.9c0.2,0.5,0.4,0.8,0.8,1.2
		c0.4,0.4,0.7,0.6,1.2,0.8c0.4,0.1,0.9,0.3,1.9,0.4c1.1,0.1,1.4,0.1,4.2,0.1c2.8,0,3.1,0,4.2-0.1c1,0,1.6-0.2,1.9-0.4
		c0.5-0.2,0.8-0.4,1.2-0.8c0.4-0.4,0.6-0.7,0.8-1.2c0.1-0.4,0.3-0.9,0.4-1.9c0.1-1.1,0.1-1.4,0.1-4.2s0-3.1-0.1-4.2
		c0-1-0.2-1.6-0.4-1.9c-0.2-0.5-0.4-0.8-0.8-1.2c-0.4-0.4-0.7-0.6-1.2-0.8c-0.4-0.1-0.9-0.3-1.9-0.4C62.6,10.9,62.3,10.9,59.5,10.9z
		 M59.5,14.1c3,0,5.4,2.4,5.4,5.4s-2.4,5.4-5.4,5.4c-3,0-5.4-2.4-5.4-5.4S56.5,14.1,59.5,14.1z M59.5,23c1.9,0,3.5-1.6,3.5-3.5
		S61.4,16,59.5,16c-1.9,0-3.5,1.6-3.5,3.5S57.6,23,59.5,23z M66.4,13.9c0,0.7-0.6,1.3-1.3,1.3c-0.7,0-1.3-0.6-1.3-1.3
		s0.6-1.3,1.3-1.3C65.8,12.6,66.4,13.2,66.4,13.9z"/>
	<path class="st0" d="M105,14.3h-3.1c-0.4,0-0.8,0.5-0.8,1.1v2.2h3.9v3.1h-3.9V30h-3.7v-9.3H94v-3.1h3.4v-1.8c0-2.6,1.9-4.8,4.5-4.8
		h3.1V14.3z"/>
	<path class="st0" d="M145.5,14.4c-2.2,0-3.7,1.1-4.2,1.9l-0.3-1.3h-3.3v13h3.7v-7.8c0-0.4,0-0.8,0.1-0.9c0.3-0.7,1.2-1.5,2.3-1.5
		c1.5,0,2.4,1.1,2.4,2.8V28h3.7v-8C150,16,148.1,14.4,145.5,14.4L145.5,14.4z M131.4,27.7h3.7v-13h-3.7V27.7z M133.3,9
		c-1.4,0-2.3,0.8-2.3,2s0.9,2,2.3,2c1.5,0,2.3-0.8,2.3-2C135.5,9.8,134.7,9,133.3,9L133.3,9z"/>
	<path class="st0" d="M187.7,16h2.6c0,0.9,0,1.8,0,2.7c0.9,0,1.8,0,2.6,0v2.7c-0.9,0-1.8,0-2.6,0c0,0.9,0,1.8,0,2.7h-2.6
		c0-0.9,0-1.8,0-2.7c-0.9,0-1.8,0-2.6,0v-2.7c0.9,0,1.8,0,2.6,0C187.7,17.8,187.7,16.9,187.7,16z M168,19.6c0.1-4.1,3.9-7.7,8-7.6
		c2-0.1,3.9,0.8,5.4,2c-0.7,0.7-1.3,1.4-2,2.1c-1.8-1.3-4.4-1.6-6.3-0.2c-2.6,1.8-2.7,6-0.2,8c2.4,2.2,7.1,1.1,7.8-2.3
		c-1.5,0-3.1,0-4.6,0c0-0.9,0-1.8,0-2.7c2.6,0,7.7,0,7.7,0c0.2,2.1-0.1,4.4-1.5,6.2c-2,2.8-6,3.6-9.2,2.4
		C170,26.3,167.8,23,168,19.6z"/>
	
		<linearGradient id="SVGID_1_" gradientUnits="userSpaceOnUse" x1="-142.2076" y1="310.4343" x2="-143.194" y2="310.4343" gradientTransform="matrix(25.6934 0 0 -17.7832 3721.3105 5650.4082)">
		<stop  offset="0" style="stop-color:#FF7C6E"/>
		<stop  offset="1" style="stop-color:#D4496F"/>
	</linearGradient>
	<path class="st1" d="M49.8,135.6c0.8-0.9,1.4-1.8,1.7-2.8c0.2-0.7,0.3-1.4,0.3-2c0-0.4,0-0.8-0.1-1.3c-1.1,1.2-2.5,1.9-4.4,1.9
		c-1.6,0-2.9-0.5-3.8-1.4s-1.4-2.2-1.4-3.8c0-1.6,0.5-2.8,1.6-3.8s2.4-1.4,4.1-1.4c1.1,0,2,0.2,2.8,0.6s1.5,0.9,1.9,1.7
		c0.4,0.6,0.8,1.4,1.1,2.4s0.4,2.1,0.4,3.3c0,2.1-0.5,4-1.6,5.8s-2.7,3.1-4.7,4.1l-0.5-1.1C48,137.2,49,136.5,49.8,135.6z
		 M63.6,135.6c0.8-0.9,1.4-1.8,1.7-2.8c0.2-0.7,0.3-1.4,0.3-2c0-0.4,0-0.8-0.1-1.3c-1.1,1.2-2.5,1.9-4.4,1.9c-1.6,0-2.9-0.5-3.8-1.4
		s-1.4-2.2-1.4-3.8c0-1.6,0.5-2.8,1.6-3.8s2.4-1.4,4.1-1.4c1,0,2,0.2,2.8,0.6c0.8,0.4,1.5,0.9,1.9,1.7c0.4,0.6,0.8,1.4,1.1,2.4
		s0.4,2.1,0.4,3.3c0,2.1-0.5,4-1.6,5.8s-2.7,3.1-4.8,4.1l-0.5-1.1C61.8,137.2,62.8,136.5,63.6,135.6z"/>
	
		<linearGradient id="SVGID_2_" gradientUnits="userSpaceOnUse" x1="-142.2076" y1="310.4343" x2="-143.194" y2="310.4343" gradientTransform="matrix(25.6934 0 0 -17.7832 3681.3105 5650.4082)">
		<stop  offset="0" style="stop-color:#FF7C6E"/>
		<stop  offset="1" style="stop-color:#D4496F"/>
	</linearGradient>
	<path class="st2" d="M19.9,124.2c-0.8,0.9-1.4,1.8-1.7,2.8c-0.2,0.7-0.3,1.4-0.3,2c0,0.4,0,0.8,0.1,1.3c1.1-1.2,2.5-1.9,4.4-1.9
		c1.6,0,2.9,0.5,3.8,1.4s1.4,2.2,1.4,3.8c0,1.6-0.5,2.8-1.6,3.8s-2.4,1.4-4.1,1.4c-1.1,0-2-0.2-2.8-0.6s-1.5-0.9-1.9-1.7
		c-0.4-0.6-0.8-1.4-1.1-2.4c-0.3-1-0.4-2.1-0.4-3.3c0-2.1,0.5-4,1.6-5.8s2.7-3.1,4.7-4.1l0.5,1.1C21.7,122.6,20.7,123.3,19.9,124.2z
		 M6.1,124.2c-0.8,0.9-1.4,1.8-1.7,2.8c-0.2,0.7-0.3,1.4-0.3,2c0,0.4,0,0.8,0.1,1.3c1.1-1.2,2.5-1.9,4.4-1.9c1.6,0,2.9,0.5,3.8,1.4
		s1.4,2.2,1.4,3.8c0,1.6-0.5,2.8-1.6,3.8s-2.4,1.4-4.1,1.4c-1,0-2-0.2-2.8-0.6s-1.5-0.9-1.9-1.7c-0.4-0.6-0.8-1.4-1.1-2.4
		S2,132,2,130.8c0-2.1,0.5-4,1.6-5.8s2.7-3.1,4.8-4.1l0.5,1.1C7.9,122.6,6.9,123.3,6.1,124.2z"/>
	<g transform="translate(0 40)">
		<defs>
			<filter id="Adobe_OpacityMaskFilter" filterUnits="userSpaceOnUse" x="8.9" y="2.5" width="19.6" height="35">
				<feColorMatrix  type="matrix" values="1 0 0 0 0  0 1 0 0 0  0 0 1 0 0  0 0 0 1 0"/>
			</filter>
		</defs>
		<mask maskUnits="userSpaceOnUse" x="8.9" y="2.5" width="19.6" height="35" id="robin_sprite-c">
			<g class="st3">
				<rect id="robin_sprite-b" class="st4" width="40" height="40"/>
			</g>
		</mask>
		<polyline class="st5" points="27,4 11,20 27,36 		"/>
	</g>
	<polyline class="st6" points="27,84 11,100 27,116 	"/>
	<g transform="translate(35 40)">
		<path class="st7" d="M8,8l24,24"/>
		<path class="st7" d="M32,8L8,32"/>
	</g>
	<g transform="translate(35 80)">
		<path class="st8" d="M8,8l24,24"/>
		<path class="st8" d="M32,8L8,32"/>
	</g>
	<g transform="translate(83 47)">
		<path class="st7" d="M0,25.5h24 M0,13.5h24 M0,1.5h24"/>
	</g>
	<g transform="translate(83 87)">
		<path class="st8" d="M0,25.5h24 M0,13.5h24 M0,1.5h24"/>
	</g>
</g>
</svg>
