<svg width="240" height="106" xmlns="http://www.w3.org/2000/svg" xmlns:xlink="http://www.w3.org/1999/xlink">
 <g display="inline">
  <title>Layer 1</title>
  <g id="svg_37">
   <path fill="#FFFFFF" d="m25.10004,106.400009c-0.10004,0 -0.300051,0 -0.40003,-0.100006l-24.59997,-24.699982c-0.10004,-0.099998 -0.10004,-0.200012 -0.10004,-0.400009c0,-0.099998 0.10004,-0.300003 0.10004,-0.399994l24.59997,-24.600018c0.199949,-0.200001 0.5,-0.200001 0.70001,0s0.199959,0.5 0,0.699989l-24.200011,24.300022l24.29999,24.300011c0.20001,0.200005 0.20001,0.499977 0,0.699997c-0.099979,0.099983 -0.20001,0.199989 -0.39996,0.199989z" id="svg_38"/>
  </g>
  <g id="svg_170">
   <path fill="#FFFFFF" d="m30,71.5c-0.799999,0 -1.5,-0.700012 -1.5,-1.5l0,-12c0,-0.799999 0.700001,-1.5 1.5,-1.5l12,0c0.799999,0 1.5,0.700001 1.5,1.5l0,12c0,0.799988 -0.700001,1.5 -1.5,1.5l-12,0l0,0z" id="svg_171"/>
   <path fill="#A0A0A0" d="m42,57c0.599998,0 1,0.39999 1,1l0,12c0,0.600014 -0.400002,1 -1,1l-12,0c-0.6,0 -1,-0.399986 -1,-1l0,-12c0,-0.60001 0.4,-1 1,-1l12,0m0,-1l-12,0c-1.1,0 -2,0.89999 -2,2l0,12c0,1.100014 0.9,2 2,2l12,0c1.099998,0 2,-0.899986 2,-2l0,-12c0,-1.10001 -0.900002,-2 -2,-2l0,0z" id="svg_172"/>
  </g>
  <g id="svg_173">
   <path fill="#FFFFFF" d="m30,87.5c-0.79999,0 -1.5,-0.700012 -1.5,-1.5l0,-12c0,-0.800003 0.700001,-1.5 1.5,-1.5l12,0c0.799999,0 1.5,0.699997 1.5,1.5l0,12c0,0.799988 -0.700001,1.5 -1.5,1.5l-12,0l0,0z" id="svg_174"/>
   <path fill="#A0A0A0" d="m42,73c0.599998,0 1,0.399986 1,1l0,12c0,0.600014 -0.400002,1 -1,1l-12,0c-0.6,0 -1,-0.399986 -1,-1l0,-12c0,-0.600014 0.4,-1 1,-1l12,0m0,-1l-12,0c-1.1,0 -2,0.899986 -2,2l0,12c0,1.100014 0.9,2 2,2l12,0c1.099998,0 2,-0.899986 2,-2l0,-12c0,-1.100014 -0.900002,-2 -2,-2l0,0z" id="svg_175"/>
  </g>
  <g id="svg_176">
   <polygon fill="#82BD36" points="35.10000304877758,69.20001220703125 30.299999997019768,64.4000244140625 31.700001522898674,63 34.89999847114086,66.20001220703125 40.19999770820141,60 41.79999999701977,61.4000244140625 " id="svg_177"/>
  </g>
  <g id="svg_179">
   <g id="svg_180">
    <path fill="#5B3C2A" d="m54,73c3.900002,0 7,3.100014 7,7s-3.099998,7 -7,7s-7,-3.100014 -7,-7s3.099998,-7 7,-7m0,-1c-4.400002,0 -8,3.600014 -8,8s3.599998,8 8,8s8,-3.600014 8,-8s-3.599998,-8 -8,-8l0,0z" id="svg_181"/>
   </g>
  </g>
  <g id="svg_182">
   <path fill="#5B3C2A" d="m54,57c3.900002,0 7,3.10001 7,7s-3.099998,7 -7,7s-7,-3.100014 -7,-7s3.099998,-7 7,-7m0,-1c-4.400002,0 -8,3.60001 -8,8s3.599998,8 8,8s8,-3.600014 8,-8s-3.599998,-8 -8,-8l0,0z" id="svg_183"/>
  </g>
  <circle fill="#5B3C2A" cx="54" cy="64" r="4" id="svg_184"/>
  <rect fill="none" width="240" height="54" id="svg_4" y="0" x="0"/>
  <g id="svg_21">
   <g id="svg_22">
    <g id="svg_23">
     <path fill="#82BD36" d="m40,20.700001c0,10.799999 -8.700001,19.5 -19.5,19.5s-19.5,-8.800001 -19.5,-19.5c0,-10.800011 8.7,-19.500001 19.5,-19.500001s19.5,8.69999 19.5,19.500001" id="svg_24"/>
     <path fill="#6B9928" d="m22.5,1.3c1.799999,0.9 3.5,2 4.9,3.5c3.300001,3.3 5.199999,7.9 5.199999,12.599999s-1.899998,9.300001 -5.199999,12.6s-7.9,5.200001 -12.599999,5.200001c-3.6,0 -7.1,-1.100002 -10.1,-3.100002c3.5,4.900002 9.3,8 15.8,8c10.799999,0 19.5,-8.699999 19.5,-19.499998c0,-9.99999 -7.599998,-18.29999 -17.5,-19.29999" id="svg_25"/>
    </g>
    <polygon fill="#5B3C2A" points="11,19 11,26 20,26 18,48 25,48 23,26 36,26 27,19 " id="svg_26"/>
    <polygon fill="#6B9928" points="9,53 9,45 11.5,48 13.5,45 15.5,48 17.5,45.099998474121094 19.5,48 21.5,45 23.5,48 25.5,45 27.5,48.100006103515625 29.5,45 31.5,48 34,45 34,53 " id="svg_27"/>
   </g>
   <path fill="#5B3C2A" d="m152.399994,36.099998c-0.400009,0.200001 -0.400009,0.400002 -0.600006,0.700001c-2.399994,3.900002 -4.800003,7.900002 -7.199997,11.800011c-0.199997,0.29998 -0.399994,0.699989 -0.600006,1c-0.299988,0.39999 -0.599991,0.599991 -1.099991,0.599991c-1.5,0 -3,0 -4.400009,0c-0.199997,0 -0.399994,0 -0.5,-0.099991c-0.299988,-0.10001 -0.399994,-0.20002 -0.5,-0.5c0,-0.200001 0,-0.5 0,-0.70002c0,-6.999989 0,-14.099991 0,-21.099991c0,-1.299999 0.100006,-1.4 1.400009,-1.4c1.099991,0 2.199997,0 3.399994,0c0.199997,0 0.400009,0 0.600006,0c0.399994,0 0.599991,0.300001 0.699997,0.700001c0,0.299999 0,0.6 0,0.79999c0,3.50001 0,7.000011 0,10.400009c0,0.299999 0,0.700001 0,1c0.300003,0 0.399994,-0.299999 0.5,-0.399998c2.399994,-3.800003 4.699997,-7.600002 7.100006,-11.400011c0.099991,-0.099991 0.199997,-0.29999 0.299988,-0.5c0.300003,-0.5 0.700012,-0.79999 1.400009,-0.79999c1.5,0 3,0 4.5,0c0.199997,0 0.399994,0 0.5,0c0.300003,0 0.5,0.199999 0.5,0.5c0,0.199989 0.099991,0.5 0.099991,0.699999c0,7.1 0,14.199999 0,21.300001c0,1.099991 -0.099991,1.299999 -1.299988,1.299999s-2.300003,0 -3.5,0c-0.200012,0 -0.400009,0 -0.600006,0c-0.399994,-0.10001 -0.600006,-0.200008 -0.600006,-0.599991c0,-0.299999 0,-0.600018 0,-0.799999c0,-3.900009 0,-7.800018 0,-11.700008c0.000015,-0.200001 0.000015,-0.400002 -0.099991,-0.800003" id="svg_28"/>
   <path fill="#5B3C2A" d="m109.599998,38.5c-0.099998,-6.799999 5.5,-12.200001 12.099998,-12.299999c6.600006,0 12.300003,5.299999 12.300003,12.200001c0,6.699997 -5.399994,12.200008 -12.199997,12.200008c-6.900002,0 -12.300003,-5.60001 -12.200005,-12.10001m18.200005,-0.099998c0,-0.400002 0,-0.800003 -0.100006,-1.200001s-0.199997,-0.900002 -0.399994,-1.299999c-0.900002,-2.400002 -3,-3.800003 -5.5,-3.900002c-2.5,0 -4.600006,1.400002 -5.600006,3.799992c-0.599998,1.400009 -0.699997,2.900009 -0.299995,4.400009c0.699997,2.5 2.799995,4.299999 5.400002,4.5c2.299995,0.200001 4.799995,-1 5.899994,-3.600002c0.400002,-0.799999 0.600006,-1.799999 0.600006,-2.699997" id="svg_29"/>
   <path fill="#5B3C2A" d="m227.199997,50c-3.5,0 -7,0 -10.399994,0c-0.300003,0 -0.600006,0 -0.800003,0c-0.399994,-0.10001 -0.600006,-0.299999 -0.699997,-0.700001c0,-0.099998 0,-0.199989 0,-0.299999c0,-1.299999 0,-2.700001 0,-4c0,-0.099998 0,-0.299999 0,-0.400002c0.099991,-0.399998 0.300003,-0.699997 0.800003,-0.699997s1,0 1.5,0c0.199997,0 0.399994,-0.10001 0.5,-0.300003c0.199997,-0.5 0.399994,-1 0.599991,-1.5c1.800003,-4.599998 3.5,-9.199997 5.300003,-13.900009c0.199997,-0.5 0.399994,-1 0.699997,-1.5c0.199997,-0.4 0.5,-0.599989 0.900009,-0.599989c1.199997,0 2.399994,0 3.599991,0c0.400009,0 0.800003,0.199999 1,0.5c0.199997,0.4 0.400009,0.799999 0.600006,1.199989c1.899994,4.900011 3.800003,9.900011 5.699997,14.800009c0.5,1.300003 0.199997,1.200001 1.699997,1.200001l0.100006,0c0.800003,0 1,0.200001 1,1c0,1.400002 0,2.900002 0,4.300011c0,0.099991 0,0.199989 0,0.299999c0,0.299992 -0.199997,0.499981 -0.5,0.499981s-0.600006,0 -0.800003,0c-3.899994,0.10001 -7.399994,0.10001 -10.800003,0.10001m0.100006,-15.200001c-0.5,0.900002 -2.900009,8 -3,8.900002c0.300003,0.099998 0.599991,0.099998 0.800003,0.099998c1.199997,0 2.299988,0 3.5,0c0.399994,0 0.799988,0 1.199997,0s0.5,-0.099998 0.300003,-0.5c-0.300003,-0.899998 -0.600006,-1.700001 -0.800003,-2.599998c-0.699997,-1.900002 -1.300003,-3.799999 -2,-5.900002" id="svg_30"/>
   <path fill="#5B3C2A" d="m210.399994,50c-0.699997,0 -1.5,0 -2.199997,0c-0.5,0 -0.800003,-0.200008 -1,-0.700001c-0.300003,-0.89999 -0.600006,-1.700001 -1,-2.599998c-0.200012,-0.600002 -0.200012,-0.700001 -0.900009,-0.700001c-2.399994,0 -4.800003,0 -7.199997,0c-0.100006,0 -0.100006,0 -0.199997,0c-0.300003,0 -0.5,0.099998 -0.600006,0.400002c-0.199997,0.699997 -0.5,1.399998 -0.800003,2.099998c-0.099991,0.200001 -0.199997,0.39999 -0.199997,0.60001c-0.199997,0.5 -0.5,0.79998 -1.099991,0.79998c-0.900009,0 -1.800003,0 -2.700012,0c-0.5,0 -0.899994,0 -1.399994,0c-1,0 -1.100006,-0.199989 -0.800003,-1.099998c0.400009,-0.999992 0.800003,-1.999992 1.199997,-2.999992c2.400009,-6.200001 4.800003,-12.299999 7.100006,-18.5c0.100006,-0.099989 0.100006,-0.29999 0.199997,-0.4c0.199997,-0.49999 0.600006,-0.79999 1.100006,-0.79999s1,0 1.5,0c0.699997,0 1.5,0 2.199997,0c0.5,0 0.800003,0.200001 1,0.599991s0.399994,0.800009 0.5,1.199999c2.699997,6.9 5.300003,13.800001 8,20.70001c0.100006,0.199982 0.199997,0.39999 0.199997,0.599991c0.100006,0.299999 -0.099991,0.599991 -0.5,0.699989c-0.199997,0 -0.399994,0 -0.599991,0c-0.5,0.10001 -1.199997,0.10001 -1.800003,0.10001l0,0zm-8.699997,-16c-0.800003,2.299999 -1.5,4.5 -2.199997,6.700001c-0.100006,0.200001 0,0.399998 0.300003,0.399998c1.300003,0 2.699997,0 4,0c0.300003,0 0.300003,-0.099998 0.300003,-0.399998c-0.700012,-2.100002 -1.400009,-4.299999 -2.100006,-6.400002c-0.100006,-0.099998 -0.199997,-0.099998 -0.300003,-0.299999" id="svg_31"/>
   <path fill="#5B3C2A" d="m89.699997,38.299999c0,-3.399998 0,-6.9 0,-10.299999c0,-0.299999 0,-0.6 0,-0.9s0.200005,-0.5 0.600006,-0.5c0.199997,0 0.5,0 0.699997,0c3.099998,0 6.300003,0 9.400002,0c4.699997,-0.1 7.400002,4 7.5,7.300001c0.099998,2.399998 -0.599998,4.399998 -2.300003,6.099998c-1.400002,1.299999 -3,2.099998 -4.900002,2.099998c-1.199997,0 -2.5,0 -3.699997,0c-0.199997,0 -0.5,0 -0.699997,0c-0.300003,0 -0.400002,0.099991 -0.400002,0.5c0,0.300003 0,0.599991 0,0.800003c0,2 0,3.899998 0,5.899998c0,0.900002 -0.200005,1.10001 -1.099998,1.10001c-1.300003,0 -2.700005,0 -4,0c-0.100006,0 -0.200005,0 -0.300003,0c-0.599998,-0.10001 -0.699997,-0.200008 -0.800003,-0.800011c0,-0.299999 0,-0.599998 0,-0.800007c0,0 0,-10.499992 0,-10.499992zm6.200005,-4.200001l0,0c0,0.700001 0,1.5 0,2.200001c0,0.400002 0.099998,0.5 0.400002,0.5c1.099998,0 2.099998,0 3.199997,0c0.5,0 0.900002,-0.200001 1.300003,-0.5c1.399994,-1.099998 1.299995,-3.399998 -0.100006,-4.400009c-0.299995,-0.199989 -0.699997,-0.39999 -1.199997,-0.39999c-1.099998,0 -2.099998,0 -3.199997,0c-0.300003,0 -0.400002,0.200001 -0.400002,0.39999c0,0.800011 0,1.500011 0,2.200008" id="svg_32"/>
   <path fill="#5B3C2A" d="m59.200001,26.200001c2.299999,0 4.399998,0.599989 6.399998,1.699989c0.200005,0.10001 0.400002,0.300011 0.599998,0.400009c0.400002,0.300001 0.400002,0.599991 0.200005,1c-0.099998,0.1 -0.200005,0.200001 -0.200005,0.300001c-0.699997,1 -1.399994,2 -2.099998,2.999998c-0.599998,0.800003 -0.699997,0.900002 -1.5,0.300003c-0.699997,-0.5 -1.399998,-0.800003 -2.199997,-0.900002c-3.200001,-0.5 -5.900002,1.200001 -6.800003,4.200001c-0.5,1.599991 -0.399998,3.200001 0.300003,4.700001c1.5,3.399998 5.399998,4.399998 8.399998,2.699997c0.299999,-0.199997 0.600002,-0.399998 0.900002,-0.5c0.200001,-0.099998 0.5,-0.099998 0.700001,0.100002c0.099998,0.099998 0.199997,0.299999 0.299995,0.399998c0.800003,1.100002 1.5,2.200001 2.300003,3.300003c0.099998,0.099998 0.199997,0.199997 0.199997,0.399998c0.100006,0.299999 0.100006,0.5 -0.099998,0.800011c-0.199997,0.099991 -0.299995,0.299999 -0.5,0.39999c-7.099998,4.5 -16.5,0.799999 -18.5,-7.400002c-1.5,-6.199997 2.100002,-12.999998 8.900013,-14.699999c0.699997,-0.1 1.699997,-0.199999 2.699997,-0.199999" id="svg_33"/>
   <path fill="#5B3C2A" d="m169.399994,38.200001c-0.100006,-4.700001 3,-10.5 9.699997,-12c3.199997,-0.700001 6.199997,-0.1 9,1.599989c0.100006,0.1 0.199997,0.1 0.399994,0.20001c0.5,0.4 0.600006,0.700001 0.200012,1.200001c-0.800003,1.199999 -1.700012,2.4 -2.600006,3.599991c-0.300003,0.400009 -0.5,0.400009 -1,0.200008c-0.199997,-0.099998 -0.300003,-0.200008 -0.399994,-0.299999c-3.900009,-2.300001 -8.700012,0 -9.100006,4.700001c-0.100006,1.399998 0.100006,2.699997 0.800003,4c1.800003,3.199997 5.599991,3.699997 8.199997,2.199997c0.199997,-0.099998 0.5,-0.299999 0.699997,-0.399998c0.300003,-0.200001 0.5,-0.100002 0.800003,0.099998c0.100006,0.100002 0.199997,0.200001 0.300003,0.299999c0.800003,1.100002 1.599991,2.300003 2.300003,3.400002c0.099991,0.099998 0.199997,0.200001 0.199997,0.400002c0.099991,0.299999 0.099991,0.599998 -0.199997,0.799999c-0.200012,0.200008 -0.400009,0.299999 -0.600006,0.400009c-7.600006,4.699989 -17.100006,0.199982 -18.600006,-8.300011c0.000015,-0.700001 0.000015,-1.399998 -0.099991,-2.099998" id="svg_34"/>
   <path fill="#5B3C2A" d="m80.800003,40.900002l0,7.500008c0,0.200001 0,0.399982 0,0.599991c0,1 -0.200005,1.200001 -1.200005,1.200001c-1.299995,0 -2.599998,0 -3.900002,0c-0.099998,0 -0.299995,0 -0.399994,0c-0.400002,-0.099991 -0.700005,-0.400009 -0.700005,-0.799992c0,-0.299999 0,-0.600018 0,-0.799999c0,-5.200008 0,-10.500011 0,-15.700008c0,-1.000011 0.099991,-1.000011 -1,-1.000011c-1.299995,0 -2.5,0 -3.799995,0c-0.200005,0 -0.5,0 -0.700005,0c-0.400002,-0.099991 -0.699997,-0.29999 -0.699997,-0.79999c0,-0.1 0,-0.20001 0,-0.300001c0,-1.099998 0,-2.199999 0,-3.4c0,-0.1 0,-0.199999 0,-0.299999c0.099998,-0.4 0.299995,-0.6 0.699997,-0.700001c0.200005,0 0.5,0 0.700005,0c5.299995,0 10.599998,0 15.899994,0l0.100006,0c1.199997,0 1.299995,0.1 1.299995,1.200001c0,1 0,2 0,3c0,0.1 0,0.199999 0,0.29999c0,0.60001 -0.400009,1 -1,1c-1.199997,0 -2.299995,0 -3.5,0c-0.599998,0 -1.099998,-0.099991 -1.699997,0.10001c-0.300003,0.599998 -0.099998,1.200001 -0.099998,1.799999c0,2.299999 0,4.700001 0,7.100002" id="svg_35"/>
   <path fill="#82BD36" d="m156.600006,8.8c0,0 -6.599991,1.9 -8.5,5.7s-0.899994,9.5 -0.899994,9.5s6.599991,-1.9 8.5,-5.700001c1.899994,-3.9 0.899994,-9.499999 0.899994,-9.499999z" id="svg_36"/>
  </g>
  <path fill="#333333" d="m66,87.090302c0,-0.199989 0.100014,-0.399979 0.200012,-0.499985l7.299988,-7.500008c0.299988,-0.299995 0.700012,-0.299995 1,0l7.299988,7.500008c0.300026,0.299995 0.300026,0.79998 0,1.099991s-0.699974,0.299995 -1,0l-6.799988,-7l-6.799988,7c-0.300026,0.299995 -0.700012,0.299995 -1,0c-0.099998,-0.200005 -0.200012,-0.400017 -0.200012,-0.600006z" id="svg_168" transform="rotate(180 73.94561767578125,83.45764923095703) "/>
  <g id="svg_218">
   <g id="svg_219">
    <g id="svg_220">
     <rect x="-24.029724" y="117.626522" transform="matrix(0.7071,0.7071,-0.7071,0.7071,167.4178,-10.1823) " fill="#AD9D94" width="23.6" height="4.6" id="svg_221"/>
    </g>
   </g>
   <g id="svg_222">
    <g id="svg_223">
     <rect x="-14.529724" y="108.126522" transform="matrix(0.7071,0.7071,-0.7071,0.7071,167.4178,-10.1823) " fill="#AD9D94" width="4.6" height="23.6" id="svg_224"/>
    </g>
   </g>
  </g>
  <image x="8.8" y="21.8" width="0.8" height="0.2" id="svg_226" xlink:href="images/logo.png"/>
 </g>
</svg>