<?xml version="1.0" encoding="UTF-8" standalone="no"?>
<svg
   xmlns:dc="http://purl.org/dc/elements/1.1/"
   xmlns:cc="http://creativecommons.org/ns#"
   xmlns:rdf="http://www.w3.org/1999/02/22-rdf-syntax-ns#"
   xmlns:svg="http://www.w3.org/2000/svg"
   xmlns="http://www.w3.org/2000/svg"
   xmlns:xlink="http://www.w3.org/1999/xlink"
   xmlns:sodipodi="http://sodipodi.sourceforge.net/DTD/sodipodi-0.dtd"
   xmlns:inkscape="http://www.inkscape.org/namespaces/inkscape"
   width="300"
   height="106"
   id="svg2"
   version="1.1"
   inkscape:version="0.91 r13725"
   sodipodi:docname="sprite_a.svg">
  <metadata
     id="metadata80">
    <rdf:RDF>
      <cc:Work
         rdf:about="">
        <dc:format>image/svg+xml</dc:format>
        <dc:type
           rdf:resource="http://purl.org/dc/dcmitype/StillImage" />
        <dc:title></dc:title>
      </cc:Work>
    </rdf:RDF>
  </metadata>
  <defs
     id="defs78" />
  <sodipodi:namedview
     pagecolor="#ffffff"
     bordercolor="#666666"
     borderopacity="1"
     objecttolerance="20"
     gridtolerance="20"
     guidetolerance="10"
     inkscape:pageopacity="0"
     inkscape:pageshadow="2"
     inkscape:window-width="1920"
     inkscape:window-height="976"
     id="namedview76"
     showgrid="true"
     inkscape:zoom="7.1653487"
     inkscape:cx="219.9936"
     inkscape:cy="57.060012"
     inkscape:window-x="1432"
     inkscape:window-y="-8"
     inkscape:window-maximized="1"
     inkscape:current-layer="layer1"
     inkscape:snap-bbox="true"
     inkscape:snap-nodes="false"
     inkscape:snap-global="true"
     inkscape:snap-to-guides="false"
     inkscape:snap-grids="false"
     inkscape:bbox-paths="true"
     inkscape:snap-others="false"
     inkscape:bbox-nodes="true">
    <inkscape:grid
       type="xygrid"
       id="grid3408" />
  </sodipodi:namedview>
  <path
     style="fill:#ffffff"
     inkscape:connector-curvature="0"
     d="m 25.1,106.4 c -0.1,0 -0.3,0 -0.4,-0.1 L 0.1,81.6 C 0,81.5 0,81.4 0,81.2 0,81.1 0.1,80.9 0.1,80.8 L 24.7,56.2 c 0.2,-0.2 0.5,-0.2 0.7,0 0.2,0.2 0.2,0.5 0,0.7 L 1.2,81.2 25.5,105.5 c 0.2,0.2 0.2,0.5 0,0.7 -0.1,0.1 -0.2,0.2 -0.4,0.2 l 0,0 z m 4.9,-34.9 0,0"
     id="svg_1" />
  <path
     style="fill:#ffffff"
     inkscape:connector-curvature="0"
     d="m 30,87.5 c -0.8,0 -1.5,-0.7 -1.5,-1.5 l 0,-12 c 0,-0.8 0.7,-1.5 1.5,-1.5 l 12,0 c 0.8,0 1.5,0.7 1.5,1.5 l 0,12 c 0,0.8 -0.7,1.5 -1.5,1.5 l -12,0 0,0 z M 42,73 l 0,0 0,0"
     id="svg_4" />
  <path
     style="fill:#a0a0a0"
     inkscape:connector-curvature="0"
     d="m 42,73 c 0.6,0 1,0.4 1,1 l 0,12 c 0,0.6 -0.4,1 -1,1 l -12,0 c -0.6,0 -1,-0.4 -1,-1 l 0,-12 c 0,-0.6 0.4,-1 1,-1 l 12,0 m 0,-1 -12,0 c -1.1,0 -2,0.9 -2,2 l 0,12 c 0,1.1 0.9,2 2,2 l 12,0 c 1.1,0 2,-0.9 2,-2 l 0,-12 c 0,-1.1 -0.9,-2 -2,-2 l 0,0 z"
     id="svg_5" />
  <g
     id="g3484">
    <path
       id="svg_2"
       d="m 30,71.5 c -0.8,0 -1.5,-0.7 -1.5,-1.5 l 0,-12 c 0,-0.8 0.7,-1.5 1.5,-1.5 l 12,0 c 0.8,0 1.5,0.7 1.5,1.5 l 0,12 c 0,0.8 -0.7,1.5 -1.5,1.5 l -12,0 0,0 z M 42,57 l 0,0 0,0"
       inkscape:connector-curvature="0"
       style="fill:#ffffff" />
    <path
       id="svg_3"
       d="m 42,57 c 0.6,0 1,0.4 1,1 l 0,12 c 0,0.6 -0.4,1 -1,1 l -12,0 c -0.6,0 -1,-0.4 -1,-1 l 0,-12 c 0,-0.6 0.4,-1 1,-1 l 12,0 m 0,-1 -12,0 c -1.1,0 -2,0.9 -2,2 l 0,12 c 0,1.1 0.9,2 2,2 l 12,0 c 1.1,0 2,-0.9 2,-2 l 0,-12 c 0,-1.1 -0.9,-2 -2,-2 l 0,0 z"
       inkscape:connector-curvature="0"
       style="fill:#a0a0a0" />
    <polygon
       id="svg_6"
       points="31.7,63 34.9,66.2 40.2,60 41.8,61.4 35.1,69.2 30.3,64.4 "
       style="fill:#82bd36" />
  </g>
  <path
     style="fill:#5b3c2a"
     inkscape:connector-curvature="0"
     d="m 54,73 c 3.9,0 7,3.1 7,7 0,3.9 -3.1,7 -7,7 -3.9,0 -7,-3.1 -7,-7 0,-3.9 3.1,-7 7,-7 m 0,-1 c -4.4,0 -8,3.6 -8,8 0,4.4 3.6,8 8,8 4.4,0 8,-3.6 8,-8 0,-4.4 -3.6,-8 -8,-8 l 0,0 z m 0,-15 0,0"
     id="svg_7" />
  <g
     id="g3489">
    <path
       id="svg_8"
       d="m 54,57 c 3.9,0 7,3.1 7,7 0,3.9 -3.1,7 -7,7 -3.9,0 -7,-3.1 -7,-7 0,-3.9 3.1,-7 7,-7 m 0,-1 c -4.4,0 -8,3.6 -8,8 0,4.4 3.6,8 8,8 4.4,0 8,-3.6 8,-8 0,-4.4 -3.6,-8 -8,-8 l 0,0 z"
       inkscape:connector-curvature="0"
       style="fill:#5b3c2a" />
    <circle
       id="svg_9"
       cx="54"
       cy="64"
       r="4"
       style="fill:#5b3c2a" />
  </g>
  <path
     style="fill:#333333"
     inkscape:connector-curvature="0"
     d="m 81.89124,79.8153 c 0,0.2 -0.1,0.4 -0.2,0.5 l -7.3,7.5 c -0.3,0.3 -0.7,0.3 -1,0 l -7.3,-7.5 c -0.3,-0.3 -0.3,-0.8 0,-1.1 0.3,-0.3 0.7,-0.3 1,0 l 6.8,7 6.8,-7 c 0.3,-0.3 0.7,-0.3 1,0 0.1,0.2 0.2,0.4 0.2,0.6 z"
     id="svg_24" />
  <g
     id="g3493">
    <rect
       id="svg_25"
       x="87.182518"
       y="-7.9833646"
       transform="matrix(0.70710678,0.70710678,-0.70710678,0.70710678,0,0)"
       width="23.599773"
       height="4.5999556"
       style="fill:#ad9d94" />
    <rect
       id="svg_26"
       x="96.682426"
       y="-17.483273"
       transform="matrix(0.70710678,0.70710678,-0.70710678,0.70710678,0,0)"
       width="4.5999556"
       height="23.599773"
       style="fill:#ad9d94" />
  </g>
  <g
     id="g3522">
    <rect
       id="svg_10"
       width="240"
       height="54"
       y="0"
       x="0"
       style="fill:none" />
    <path
       id="svg_15"
       d="m 152.4,36.1 c -0.4,0.2 -0.4,0.4 -0.6,0.7 -2.4,3.9 -4.8,7.9 -7.2,11.8 -0.2,0.3 -0.4,0.7 -0.6,1 -0.3,0.4 -0.6,0.6 -1.1,0.6 -1.5,0 -3,0 -4.4,0 -0.2,0 -0.4,0 -0.5,-0.1 -0.3,-0.1 -0.4,-0.2 -0.5,-0.5 0,-0.2 0,-0.5 0,-0.7 0,-7 0,-14.1 0,-21.1 0,-1.3 0.1,-1.4 1.4,-1.4 1.1,0 2.2,0 3.4,0 0.2,0 0.4,0 0.6,0 0.4,0 0.6,0.3 0.7,0.7 0,0.3 0,0.6 0,0.8 0,3.5 0,7 0,10.4 0,0.3 0,0.7 0,1 0.3,0 0.4,-0.3 0.5,-0.4 2.4,-3.8 4.7,-7.6 7.1,-11.4 0.1,-0.1 0.2,-0.3 0.3,-0.5 0.3,-0.5 0.7,-0.8 1.4,-0.8 1.5,0 3,0 4.5,0 0.2,0 0.4,0 0.5,0 0.3,0 0.5,0.2 0.5,0.5 0,0.2 0.1,0.5 0.1,0.7 0,7.1 0,14.2 0,21.3 0,1.1 -0.1,1.3 -1.3,1.3 -1.2,0 -2.3,0 -3.5,0 -0.2,0 -0.4,0 -0.6,0 -0.4,-0.1 -0.6,-0.2 -0.6,-0.6 0,-0.3 0,-0.6 0,-0.8 0,-3.9 0,-7.8 0,-11.7 0,-0.2 0,-0.4 -0.1,-0.8 m -42.8,2.4 0,0 0,0 m 0,0 0,0"
       inkscape:connector-curvature="0"
       style="fill:#5b3c2a" />
    <path
       id="svg_16"
       d="m 109.6,38.5 c -0.1,-6.8 5.5,-12.2 12.1,-12.3 6.6,0 12.3,5.3 12.3,12.2 0,6.7 -5.4,12.2 -12.2,12.2 -6.9,0 -12.3,-5.6 -12.2,-12.1 m 18.2,-0.1 c 0,-0.4 0,-0.8 -0.1,-1.2 -0.1,-0.4 -0.2,-0.9 -0.4,-1.3 -0.9,-2.4 -3,-3.8 -5.5,-3.9 -2.5,0 -4.6,1.4 -5.6,3.8 -0.6,1.4 -0.7,2.9 -0.3,4.4 0.7,2.5 2.8,4.3 5.4,4.5 2.3,0.2 4.8,-1 5.9,-3.6 0.4,-0.8 0.6,-1.8 0.6,-2.7"
       inkscape:connector-curvature="0"
       style="fill:#5b3c2a" />
    <path
       id="svg_17"
       d="m 227.2,50 c -3.5,0 -7,0 -10.4,0 -0.3,0 -0.6,0 -0.8,0 -0.4,-0.1 -0.6,-0.3 -0.7,-0.7 0,-0.1 0,-0.2 0,-0.3 0,-1.3 0,-2.7 0,-4 0,-0.1 0,-0.3 0,-0.4 0.1,-0.4 0.3,-0.7 0.8,-0.7 0.5,0 1,0 1.5,0 0.2,0 0.4,-0.1 0.5,-0.3 0.2,-0.5 0.4,-1 0.6,-1.5 1.8,-4.6 3.5,-9.2 5.3,-13.9 0.2,-0.5 0.4,-1 0.7,-1.5 0.2,-0.4 0.5,-0.6 0.9,-0.6 1.2,0 2.4,0 3.6,0 0.4,0 0.8,0.2 1,0.5 0.2,0.4 0.4,0.8 0.6,1.2 1.9,4.9 3.8,9.9 5.7,14.8 0.5,1.3 0.2,1.2 1.7,1.2 l 0.1,0 c 0.8,0 1,0.2 1,1 0,1.4 0,2.9 0,4.3 0,0.1 0,0.2 0,0.3 0,0.3 -0.2,0.5 -0.5,0.5 -0.3,0 -0.6,0 -0.8,0 -3.9,0.1 -7.4,0.1 -10.8,0.1 m 0.1,-15.2 c -0.5,0.9 -2.9,8 -3,8.9 0.3,0.1 0.6,0.1 0.8,0.1 1.2,0 2.3,0 3.5,0 0.4,0 0.8,0 1.2,0 0.4,0 0.5,-0.1 0.3,-0.5 -0.3,-0.9 -0.6,-1.7 -0.8,-2.6 -0.7,-1.9 -1.3,-3.8 -2,-5.9"
       inkscape:connector-curvature="0"
       style="fill:#5b3c2a" />
    <path
       id="svg_18"
       d="m 210.4,50 c -0.7,0 -1.5,0 -2.2,0 -0.5,0 -0.8,-0.2 -1,-0.7 -0.3,-0.9 -0.6,-1.7 -1,-2.6 C 206,46.1 206,46 205.3,46 c -2.4,0 -4.8,0 -7.2,0 -0.1,0 -0.1,0 -0.2,0 -0.3,0 -0.5,0.1 -0.6,0.4 -0.2,0.7 -0.5,1.4 -0.8,2.1 -0.1,0.2 -0.2,0.4 -0.2,0.6 -0.2,0.5 -0.5,0.8 -1.1,0.8 -0.9,0 -1.8,0 -2.7,0 -0.5,0 -0.9,0 -1.4,0 -1,0 -1.1,-0.2 -0.8,-1.1 0.4,-1 0.8,-2 1.2,-3 2.4,-6.2 4.8,-12.3 7.1,-18.5 0.1,-0.1 0.1,-0.3 0.2,-0.4 0.2,-0.5 0.6,-0.8 1.1,-0.8 0.5,0 1,0 1.5,0 0.7,0 1.5,0 2.2,0 0.5,0 0.8,0.2 1,0.6 0.2,0.4 0.4,0.8 0.5,1.2 2.7,6.9 5.3,13.8 8,20.7 0.1,0.2 0.2,0.4 0.2,0.6 0.1,0.3 -0.1,0.6 -0.5,0.7 -0.2,0 -0.4,0 -0.6,0 -0.5,0.1 -1.2,0.1 -1.8,0.1 l 0,0 0,0 z m -8.7,-16 c -0.8,2.3 -1.5,4.5 -2.2,6.7 -0.1,0.2 0,0.4 0.3,0.4 1.3,0 2.7,0 4,0 0.3,0 0.3,-0.1 0.3,-0.4 -0.7,-2.1 -1.4,-4.3 -2.1,-6.4 -0.1,-0.1 -0.2,-0.1 -0.3,-0.3"
       inkscape:connector-curvature="0"
       style="fill:#5b3c2a" />
    <path
       id="svg_19"
       d="m 89.7,38.3 c 0,-3.4 0,-6.9 0,-10.3 0,-0.3 0,-0.6 0,-0.9 0,-0.3 0.2,-0.5 0.6,-0.5 0.2,0 0.5,0 0.7,0 3.1,0 6.3,0 9.4,0 4.7,-0.1 7.4,4 7.5,7.3 0.1,2.4 -0.6,4.4 -2.3,6.1 -1.4,1.3 -3,2.1 -4.9,2.1 -1.2,0 -2.5,0 -3.7,0 -0.2,0 -0.5,0 -0.7,0 -0.3,0 -0.4,0.1 -0.4,0.5 0,0.3 0,0.6 0,0.8 0,2 0,3.9 0,5.9 0,0.9 -0.2,1.1 -1.1,1.1 -1.3,0 -2.7,0 -4,0 -0.1,0 -0.2,0 -0.3,0 -0.6,-0.1 -0.7,-0.2 -0.8,-0.8 0,-0.3 0,-0.6 0,-0.8 0,0 0,-10.5 0,-10.5 l 0,0 0,0 z m 6.2,-4.2 0,0 c 0,0.7 0,1.5 0,2.2 0,0.4 0.1,0.5 0.4,0.5 1.1,0 2.1,0 3.2,0 0.5,0 0.9,-0.2 1.3,-0.5 1.4,-1.1 1.3,-3.4 -0.1,-4.4 -0.3,-0.2 -0.7,-0.4 -1.2,-0.4 -1.1,0 -2.1,0 -3.2,0 -0.3,0 -0.4,0.2 -0.4,0.4 0,0.8 0,1.5 0,2.2"
       inkscape:connector-curvature="0"
       style="fill:#5b3c2a" />
    <path
       id="svg_20"
       d="m 59.2,26.2 c 2.3,0 4.4,0.6 6.4,1.7 0.2,0.1 0.4,0.3 0.6,0.4 0.4,0.3 0.4,0.6 0.2,1 -0.1,0.1 -0.2,0.2 -0.2,0.3 -0.7,1 -1.4,2 -2.1,3 -0.6,0.8 -0.7,0.9 -1.5,0.3 -0.7,-0.5 -1.4,-0.8 -2.2,-0.9 -3.2,-0.5 -5.9,1.2 -6.8,4.2 -0.5,1.6 -0.4,3.2 0.3,4.7 1.5,3.4 5.4,4.4 8.4,2.7 0.3,-0.2 0.6,-0.4 0.9,-0.5 0.2,-0.1 0.5,-0.1 0.7,0.1 0.1,0.1 0.2,0.3 0.3,0.4 0.8,1.1 1.5,2.2 2.3,3.3 0.1,0.1 0.2,0.2 0.2,0.4 0.1,0.3 0.1,0.5 -0.1,0.8 -0.2,0.1 -0.3,0.3 -0.5,0.4 -7.1,4.5 -16.5,0.8 -18.5,-7.4 -1.5,-6.2 2.1,-13 8.9,-14.7 0.7,-0.1 1.7,-0.2 2.7,-0.2"
       inkscape:connector-curvature="0"
       style="fill:#5b3c2a" />
    <path
       id="svg_21"
       d="m 169.4,38.2 c -0.1,-4.7 3,-10.5 9.7,-12 3.2,-0.7 6.2,-0.1 9,1.6 0.1,0.1 0.2,0.1 0.4,0.2 0.5,0.4 0.6,0.7 0.2,1.2 -0.8,1.2 -1.7,2.4 -2.6,3.6 -0.3,0.4 -0.5,0.4 -1,0.2 -0.2,-0.1 -0.3,-0.2 -0.4,-0.3 -3.9,-2.3 -8.7,0 -9.1,4.7 -0.1,1.4 0.1,2.7 0.8,4 1.8,3.2 5.6,3.7 8.2,2.2 0.2,-0.1 0.5,-0.3 0.7,-0.4 0.3,-0.2 0.5,-0.1 0.8,0.1 0.1,0.1 0.2,0.2 0.3,0.3 0.8,1.1 1.6,2.3 2.3,3.4 0.1,0.1 0.2,0.2 0.2,0.4 0.1,0.3 0.1,0.6 -0.2,0.8 -0.2,0.2 -0.4,0.3 -0.6,0.4 -7.6,4.7 -17.1,0.2 -18.6,-8.3 0,-0.7 0,-1.4 -0.1,-2.1"
       inkscape:connector-curvature="0"
       style="fill:#5b3c2a" />
    <path
       id="svg_22"
       d="m 80.8,40.9 0,7.5 c 0,0.2 0,0.4 0,0.6 0,1 -0.2,1.2 -1.2,1.2 -1.3,0 -2.6,0 -3.9,0 -0.1,0 -0.3,0 -0.4,0 -0.4,-0.1 -0.7,-0.4 -0.7,-0.8 0,-0.3 0,-0.6 0,-0.8 0,-5.2 0,-10.5 0,-15.7 0,-1 0.1,-1 -1,-1 -1.3,0 -2.5,0 -3.8,0 -0.2,0 -0.5,0 -0.7,0 -0.4,-0.1 -0.7,-0.3 -0.7,-0.8 0,-0.1 0,-0.2 0,-0.3 0,-1.1 0,-2.2 0,-3.4 0,-0.1 0,-0.2 0,-0.3 0.1,-0.4 0.3,-0.6 0.7,-0.7 0.2,0 0.5,0 0.7,0 5.3,0 10.6,0 15.9,0 l 0.1,0 c 1.2,0 1.3,0.1 1.3,1.2 0,1 0,2 0,3 0,0.1 0,0.2 0,0.3 0,0.6 -0.4,1 -1,1 -1.2,0 -2.3,0 -3.5,0 -0.6,0 -1.1,-0.1 -1.7,0.1 -0.3,0.6 -0.1,1.2 -0.1,1.8 0,2.3 0,4.7 0,7.1"
       inkscape:connector-curvature="0"
       style="fill:#5b3c2a" />
    <path
       id="svg_23"
       d="m 156.6,8.8 c 0,0 -6.6,1.9 -8.5,5.7 -1.9,3.8 -0.9,9.5 -0.9,9.5 0,0 6.6,-1.9 8.5,-5.7 1.9,-3.9 0.9,-9.5 0.9,-9.5 z"
       inkscape:connector-curvature="0"
       style="fill:#82bd36" />
    <g
       id="g3477">
      <path
         style="fill:#82bd36"
         inkscape:connector-curvature="0"
         d="M 40,20.7 C 40,31.5 31.3,40.2 20.5,40.2 9.7,40.2 1,31.4 1,20.7 1,9.9 9.7,1.2 20.5,1.2 31.3,1.2 40,9.9 40,20.7 M 22.5,1.3 l 0,0 0,0 m 0,0 0,0"
         id="svg_11" />
      <path
         style="fill:#6b9928"
         inkscape:connector-curvature="0"
         d="m 22.5,1.3 c 1.8,0.9 3.5,2 4.9,3.5 3.3,3.3 5.2,7.9 5.2,12.6 0,4.7 -1.9,9.3 -5.2,12.6 -3.3,3.3 -7.9,5.2 -12.6,5.2 -3.6,0 -7.1,-1.1 -10.1,-3.1 3.5,4.9 9.3,8 15.8,8 C 31.3,40.1 40,31.4 40,20.6 40,10.6 32.4,2.3 22.5,1.3"
         id="svg_12" />
      <polygon
         style="fill:#5b3c2a"
         points="20,26 18,48 25,48 23,26 36,26 27,19 11,19 11,26 "
         id="svg_13" />
      <polygon
         style="fill:#6b9928"
         points="11.5,48 13.5,45 15.5,48 17.5,45.1 19.5,48 21.5,45 23.5,48 25.5,45 27.5,48.1 29.5,45 31.5,48 34,45 34,53 9,53 9,45 "
         id="svg_14" />
      <image
         height="0.2"
         width="0.80000001"
         y="21.799999"
         x="8.8000002"
         id="svg_27" />
    </g>
  </g>
  <g
     id="g3497">
    <path
       id="svg_28"
       d="m 86,56.2 4.7,0 c 3,0 4.5,1.6 4.5,4.6 l 0,9.4 c 0,3 -1.5,4.6 -4.5,4.6 l -4.7,0 0,-18.6 0,0 z m 3,2.7 0,13.3 1.7,0 c 1,0 1.5,-0.5 1.5,-1.8 l 0,-9.7 c 0,-1.3 -0.6,-1.8 -1.5,-1.8 0,0 -1.7,0 -1.7,0 z m 9.3,-2.7 0,0"
       inkscape:connector-curvature="0"
       style="fill:#394449" />
    <path
       id="svg_29"
       d="m 98.3,56.2 3,0 0,18.6 -3,0 c 0,0 0,-18.6 0,-18.6 z"
       inkscape:connector-curvature="0"
       style="fill:#394449" />
    <path
       id="svg_30"
       d="m 111,74.8 c -0.2,-0.5 -0.3,-0.8 -0.3,-2.3 l 0,-2.9 c 0,-1.7 -0.6,-2.4 -2,-2.4 l -1,0 0,7.6 -3,0 0,-18.6 4.5,0 c 3.1,0 4.4,1.4 4.4,4.3 l 0,1.5 c 0,1.9 -0.6,3.2 -2,3.8 1.5,0.6 2,2 2,4 l 0,2.9 c 0,0.9 0,1.6 0.3,2.3 l -2.9,0 0,-0.2 z m -3.3,-15.9 0,5.7 1.2,0 c 1.1,0 1.8,-0.5 1.8,-2 l 0,-1.8 c 0,-1.3 -0.5,-1.9 -1.5,-1.9 l -1.5,0 z"
       inkscape:connector-curvature="0"
       style="fill:#394449" />
    <path
       id="svg_31"
       d="m 119.9,64 4.1,0 0,2.7 -4.1,0 0,5.4 5.1,0 0,2.7 -8.2,0 0,-18.6 8.2,0 0,2.7 -5.2,0 0,5.1 0.1,0 z"
       inkscape:connector-curvature="0"
       style="fill:#394449" />
    <path
       id="svg_32"
       d="m 136.1,67.9 0,2.5 c 0,3 -1.5,4.7 -4.5,4.7 -2.9,0 -4.5,-1.7 -4.5,-4.7 l 0,-9.7 c 0,-3 1.5,-4.7 4.5,-4.7 2.9,0 4.5,1.7 4.5,4.7 l 0,1.8 -2.8,0 0,-2 c 0,-1.3 -0.6,-1.8 -1.6,-1.8 -1,0 -1.6,0.5 -1.6,1.8 l 0,10 c 0,1.3 0.6,1.8 1.6,1.8 1,0 1.6,-0.5 1.6,-1.8 l 0,-2.7 2.8,0.1 0,0 z"
       inkscape:connector-curvature="0"
       style="fill:#394449" />
    <path
       id="svg_33"
       d="m 137.7,56.2 9.3,0 0,2.7 -3.1,0 0,15.9 -3,0 0,-15.9 -3.1,0 -0.1,-2.7 0,0 z"
       inkscape:connector-curvature="0"
       style="fill:#394449" />
    <path
       id="svg_34"
       d="m 149,56.2 3,0 0,15.9 4.9,0 0,2.7 -7.9,0 0,-18.6 z"
       inkscape:connector-curvature="0"
       style="fill:#47a4d4" />
    <path
       id="svg_35"
       d="m 158.7,56.2 3,0 0,18.6 -3,0 0,-18.6 z"
       inkscape:connector-curvature="0"
       style="fill:#47a4d4" />
    <path
       id="svg_36"
       d="m 167.8,61.3 0,13.5 -2.7,0 0,-18.6 3.8,0 3.1,11.1 0,-11.1 2.7,0 0,18.6 -3.1,0 -3.8,-13.5 z"
       inkscape:connector-curvature="0"
       style="fill:#47a4d4" />
    <path
       id="svg_37"
       d="m 180.8,64 4.1,0 0,2.7 -4.1,0 0,5.4 5.2,0 0,2.7 -8.2,0 0,-18.6 8.2,0 0,2.7 -5.2,0 0,5.1 z"
       inkscape:connector-curvature="0"
       style="fill:#47a4d4" />
    <path
       id="svg_38"
       d="m 104.7,82.9 c 0.3,0 0.7,-0.1 1.3,-0.1 0.7,0 1.3,0.2 1.6,0.5 0.3,0.4 0.5,0.9 0.5,1.5 0,0.2 0,0.4 -0.1,0.6 0,0.2 -0.1,0.4 -0.2,0.6 -0.1,0.2 -0.2,0.3 -0.4,0.5 -0.2,0.1 -0.4,0.2 -0.6,0.3 -0.3,0.1 -0.5,0.1 -0.9,0.1 -0.5,0 -0.9,0 -1.2,-0.1 l 0,-3.9 0,0 z m 1.3,0.7 c -0.2,0 -0.4,0 -0.5,0 l 0,2.6 c 0.1,0 0.2,0 0.4,0 0.2,0 0.4,0 0.6,-0.1 0.2,-0.1 0.3,-0.2 0.4,-0.3 0.1,-0.1 0.1,-0.3 0.2,-0.4 0,-0.1 0.1,-0.3 0.1,-0.5 0,-0.2 0,-0.3 -0.1,-0.4 0,-0.1 -0.1,-0.3 -0.2,-0.4 -0.1,-0.1 -0.2,-0.2 -0.4,-0.3 0,-0.2 -0.2,-0.2 -0.5,-0.2 l 0,0 z m 5.1,-0.7 0,0"
       inkscape:connector-curvature="0"
       style="fill:#394449" />
    <path
       id="svg_39"
       d="m 111.1,82.9 2.6,0 0,0.7 -1.7,0 0,0.9 1.6,0 0,0.7 -1.6,0 0,0.9 1.8,0 0,0.7 -2.6,0 -0.1,-3.9 c 0.1,0 0,0 0,0 l 0,0 z"
       inkscape:connector-curvature="0"
       style="fill:#394449" />
    <path
       id="svg_40"
       d="m 118,85.2 0.1,0.7 0,0 0.1,-0.7 0.8,-2.3 1,0 -1.6,4 -0.6,0 -1.6,-4 1,0 0.8,2.3 0,0 z"
       inkscape:connector-curvature="0"
       style="fill:#394449" />
    <path
       id="svg_41"
       d="m 122.7,82.9 2.6,0 0,0.7 -1.7,0 0,0.9 1.6,0 0,0.7 -1.6,0 0,0.9 1.8,0 0,0.7 -2.6,0 -0.1,-3.9 0,0 z"
       inkscape:connector-curvature="0"
       style="fill:#394449" />
    <path
       id="svg_42"
       d="m 131,86.9 -2.7,0 0,-4 0.8,0 0,3.2 1.9,0 0,0.8 0,0 0,0 z"
       inkscape:connector-curvature="0"
       style="fill:#394449" />
    <path
       id="svg_43"
       d="m 133,84.9 c 0,-0.7 0.2,-1.2 0.5,-1.5 0.3,-0.4 0.8,-0.5 1.3,-0.5 0.6,0 1.1,0.2 1.4,0.6 0.3,0.4 0.5,0.9 0.5,1.5 0,0.7 -0.2,1.2 -0.5,1.5 -0.3,0.4 -0.8,0.5 -1.4,0.5 -0.6,0 -1.1,-0.2 -1.4,-0.6 -0.3,-0.3 -0.4,-0.8 -0.4,-1.5 l 0,0 z m 0.9,0 c 0,0.4 0.1,0.7 0.2,1 0.2,0.2 0.4,0.4 0.7,0.4 0.6,0 0.9,-0.4 0.9,-1.3 0,-0.4 -0.1,-0.7 -0.2,-1 -0.2,-0.2 -0.4,-0.4 -0.7,-0.4 -0.6,0 -0.9,0.4 -0.9,1.3 l 0,0 0,0 z"
       inkscape:connector-curvature="0"
       style="fill:#394449" />
    <path
       id="svg_44"
       d="m 139.6,83 c 0.4,-0.1 0.8,-0.1 1.2,-0.1 1.2,0 1.8,0.4 1.8,1.3 0,0.2 0,0.5 -0.1,0.6 -0.1,0.2 -0.2,0.3 -0.4,0.4 -0.2,0.1 -0.3,0.2 -0.5,0.2 -0.2,0.1 -0.4,0.1 -0.6,0.1 -0.2,0 -0.4,0 -0.5,0 l 0,1.3 -0.8,0 -0.1,-3.8 z m 0.8,0.6 0,1.2 c 0.1,0 0.2,0 0.4,0 0.1,0 0.2,0 0.3,0 0.1,0 0.2,0 0.3,-0.1 0.1,0 0.2,-0.1 0.2,-0.2 0,-0.1 0.1,-0.2 0.1,-0.3 0,-0.4 -0.3,-0.6 -0.9,-0.6 -0.1,0 -0.3,0 -0.4,0 l 0,0 z"
       inkscape:connector-curvature="0"
       style="fill:#394449" />
    <path
       id="svg_45"
       d="m 148.8,84.9 0.1,-0.8 0,0 -0.3,0.6 -0.9,1.5 -0.3,0 -1,-1.5 -0.3,-0.6 0,0 0.1,0.8 0,2 -0.8,0 0,-4 0.8,0 1.1,1.8 0.2,0.4 0,0 0.2,-0.4 1.1,-1.8 0.8,0 0,4 -0.8,0 c 0,0 0,-2 0,-2 z"
       inkscape:connector-curvature="0"
       style="fill:#394449" />
    <path
       id="svg_46"
       d="m 152.7,82.9 2.6,0 0,0.7 -1.7,0 0,0.9 1.6,0 0,0.7 -1.6,0 0,0.9 1.8,0 0,0.7 -2.6,0 -0.1,-3.9 0,0 z"
       inkscape:connector-curvature="0"
       style="fill:#394449" />
    <path
       id="svg_47"
       d="m 159.4,84.8 -0.3,-0.6 0,0 0.1,0.6 0,2.1 -0.8,0 0,-4 0.6,0 1.6,2.1 0.3,0.6 0,0 -0.1,-0.6 0,-2.1 0.8,0 0,4 -0.6,0 -1.6,-2.1 z"
       inkscape:connector-curvature="0"
       style="fill:#394449" />
    <path
       id="svg_48"
       d="m 167.8,83.7 -1.3,0 0,3.2 -0.8,0 0,-3.2 -1.3,0 0,-0.7 3.4,0 c 0,0 0,0.7 0,0.7 z"
       inkscape:connector-curvature="0"
       style="fill:#394449" />
    <rect
       id="svg_49"
       x="86.099998"
       y="84"
       width="14.9"
       height="1"
       style="fill:#394449" />
    <rect
       id="svg_50"
       x="171"
       y="84"
       width="14.9"
       height="1"
       style="fill:#394449" />
  </g>
  <g
     id="svg_119"
     transform="matrix(0.53779065,0,0,0.53779065,-96.798299,-28.747045)"
     stroke="null" />
  <g
     id="g3540">
    <g
       transform="matrix(0.5320246,0,0,0.5320246,-166.31839,-28.739661)"
       id="svg_194"
       stroke="null">
      <defs
         id="defs60">
        <circle
           r="30"
           cy="31"
           cx="31"
           id="svg_118"
           stroke="null" />
      </defs>
      <use
         x="664.97998"
         y="158.28"
         id="svg_195"
         xlink:href="#svg_118"
         stroke="null"
         style="fill:#3b5998"
         width="100%"
         height="100%" />
      <clipPath
         id="svg_117">
        <use
           id="svg_196"
           xlink:href="#svg_118"
           stroke="null"
           x="0"
           y="0"
           width="100%"
           height="100%" />
      </clipPath>
    </g>
    <path
       id="svg_197"
       d="m 207.15,64.83 -1.86,0 c 0,0 -3.14,-0.21 -3.14,3.09 0,0.69 0,2.29 0,2.29 l -1.76,0 0,1.76 1.76,0 0,7.82 2.5,0 0,-7.82 2.34,0 0.48,-1.76 -2.82,0 0,-2.34 c 0,0 0,-0.85 1.01,-0.85 l 1.49,0 0,-2.18 z"
       stroke="null"
       inkscape:connector-curvature="0"
       style="clip-rule:evenodd;fill:#ffffff;fill-rule:evenodd" />
  </g>
  <g
     stroke="null"
     id="svg_198"
     transform="matrix(0.53202467,0,0,0.53202467,-166.5488,-28.739679)">
    <path
       style="fill:#e52d27"
       inkscape:connector-curvature="0"
       stroke="null"
       d="m 850.47,189.28 c 0,16.6 -13.4,30 -30,30 -16.6,0 -30,-13.4 -30,-30 0,-16.6 13.4,-30 30,-30 16.6,0 30,13.4 30,30 z"
       id="svg_199" />
    <path
       style="fill:#ffffff"
       inkscape:connector-curvature="0"
       stroke="null"
       d="m 839.97,181.28 c 0,0 -0.4,-2.7 -1.6,-4 -1.5,-1.6 -3.2,-1.6 -4,-1.7 -5.5,-0.3 -13.9,-0.3 -13.9,-0.3 l 0,0 c 0,0 -8.4,0 -13.9,0.4 -0.8,0.1 -2.5,0.1 -4,1.7 -1.2,1.2 -1.6,4 -1.6,4 0,0 -0.4,3.2 -0.4,6.4 l 0,3 c 0,3.2 0.4,6.4 0.4,6.4 0,0 0.4,2.7 1.6,4 1.5,1.6 3.5,1.5 4.4,1.7 3.2,0.3 13.5,0.4 13.5,0.4 0,0 8.4,0 13.9,-0.4 0.8,-0.1 2.5,-0.1 4,-1.7 1.2,-1.2 1.6,-4 1.6,-4 0,0 0.4,-3.2 0.4,-6.4 l 0,-3 c 0,-3.2 -0.4,-6.5 -0.4,-6.5 m -23.6,13.2 0,-11.2 10.8,5.6 -10.8,5.6 0,0 z"
       id="svg_200" />
  </g>
  <g
     stroke="null"
     id="svg_54">
    <g
       stroke="null"
       id="svg_201"
       transform="matrix(0.53206614,0,0,0.53206614,-166.58057,-28.74753)">
      <g
         stroke="null"
         id="svg_202">
        <circle
           style="fill:#00acee"
           stroke="null"
           cx="758.44"
           cy="189.28"
           r="30"
           id="svg_203" />
      </g>
    </g>
    <g
       stroke="null"
       id="svg_204"
       transform="matrix(0.53206614,0,0,0.53206614,-166.58057,-28.74753)">
      <path
         style="fill:#ffffff"
         inkscape:connector-curvature="0"
         stroke="null"
         d="m 770.99,183.88 c 0,0.2 0,0.5 0,0.8 0,7.8 -5.9,16.8 -16.8,16.8 -3.3,0 -6.4,-1 -9.1,-2.7 0.5,0 0.9,0.1 1.4,0.1 2.8,0 5.3,-0.9 7.3,-2.5 -2.6,0 -4.8,-1.8 -5.5,-4.1 0.4,0.1 0.7,0.1 1.1,0.1 0.5,0 0.8,-0.1 1.3,-0.2 -2.7,-0.5 -5,-2.9 -5,-5.8 l 0,-0.1 c 1,0.4 2,0.7 2.9,0.7 -1.6,-1.1 -2.5,-2.9 -2.5,-4.9 0,-1.1 0.4,-2.1 0.9,-3 2.9,3.6 7.3,5.9 12.2,6.2 -0.1,-0.4 -0.1,-0.9 -0.1,-1.3 0,-3.3 2.7,-5.9 5.9,-5.9 1.7,0 3.2,0.7 4.3,1.9 1.4,-0.3 2.6,-0.8 3.8,-1.4 -0.4,1.4 -1.4,2.5 -2.6,3.3 1.2,-0.1 2.3,-0.5 3.4,-0.9 -0.7,1 -1.7,2.1 -2.9,2.9 z"
         id="svg_205" />
    </g>
  </g>
  <g
     inkscape:groupmode="layer"
     id="layer1"
     inkscape:label="Layer 1"
     style="display:inline">
    <path
       id="path3553"
       d="m 263.99799,6.345402 c -1.3e-4,-0.0022 -4.8e-4,-0.0044 -4.8e-4,-0.0066 -9.9e-4,-0.02111 -0.003,-0.04204 -0.006,-0.06273 -4.8e-4,-0.003 -7.2e-4,-0.006 -0.001,-0.009 -0.0129,-0.09703 -0.0396,-0.189561 -0.0784,-0.275701 -1.9e-4,-4.8e-4 -4.8e-4,-7.2e-4 -4.8e-4,-0.0012 -0.0191,-0.04258 -0.0411,-0.08361 -0.0658,-0.122783 -0.003,-0.0043 -0.005,-0.0086 -0.008,-0.01274 -0.0108,-0.01654 -0.0219,-0.03288 -0.0337,-0.04868 -0.004,-0.0059 -0.009,-0.01158 -0.0134,-0.01734 -0.009,-0.01139 -0.0178,-0.02264 -0.0271,-0.03364 -0.007,-0.0081 -0.0135,-0.01593 -0.0205,-0.0237 -0.007,-0.0073 -0.0133,-0.01434 -0.0201,-0.02141 -0.007,-0.0078 -0.0142,-0.01571 -0.0217,-0.02322 l -5.48981,-5.389213 c -0.15549,-0.157434 -0.36285,-0.26335 -0.59448,-0.290356 -7.1e-4,-6.5e-5 -9.9e-4,-1.28e-4 -0.002,-1.9e-4 -0.0225,-0.0026 -0.0452,-0.0046 -0.0681,-0.0057 -0.005,-2.21e-4 -0.0102,-1.9e-4 -0.0152,-4.8e-4 C 257.52104,4.79e-4 257.51054,0 257.49984,0 L 241.0001,0 C 240.44765,0 240,0.447319 240,0.999893 l 0,30.00026 c 0,0.55255 0.44765,0.99984 1.0001,0.99984 l 21.99983,0 c 0.55248,0 1.00007,-0.44729 1.00007,-0.99984 l 0,-24.599554 c 0,-0.01857 -4.7e-4,-0.03702 -0.002,-0.05531 z m -5.49843,-2.96146 2.054,2.016403 -2.054,0 0,-2.016403 z m 3.49982,26.615941 -20.0001,0 0,-28.000012 14.50006,0 0,4.400843 c 0,0.55254 0.44863,0.999862 1.0001,0.999862 l 4.49997,0 0,22.599307 z m -2.81911,-13.829967 -13.85844,0 c -0.55244,0 -1.0001,0.447352 -1.0001,0.999925 0,0.553015 0.44766,1.000305 1.0001,1.000305 l 13.85841,0 c 0.55153,0 1.00017,-0.447259 1.00017,-1.000305 0,-0.552573 -0.44864,-0.999925 -1.00014,-0.999925 z m -14.85854,-3.20027 c 0,0.553047 0.44766,1.000338 1.0001,1.000338 l 13.85841,0 c 0.55153,0 1.00017,-0.447291 1.00017,-1.000338 0,-0.552605 -0.44864,-0.999892 -1.00017,-0.999892 l -13.85841,0 c -0.55244,0 -1.0001,0.447321 -1.0001,0.999892 z m 14.85854,7.399484 -13.85844,0 c -0.55244,0 -1.0001,0.44729 -1.0001,0.9998 0,0.553078 0.44766,1.000368 1.0001,1.000368 l 13.85841,0 c 0.55153,0 1.00017,-0.447257 1.00017,-1.000368 0,-0.552479 -0.44864,-0.9998 -1.00014,-0.9998 z m 0,4.200163 -13.85844,0 c -0.55244,0 -1.0001,0.447321 -1.0001,0.999896 0,0.552982 0.44766,1.000364 1.0001,1.000364 l 13.85841,0 c 0.55153,0 1.00017,-0.447349 1.00017,-1.000364 0,-0.552543 -0.44864,-0.999896 -1.00014,-0.999896 z"
       inkscape:connector-curvature="0" />
  </g>
</svg>
