<svg xmlns="http://www.w3.org/2000/svg" xmlns:xlink="http://www.w3.org/1999/xlink" width="300" height="106">
  <g display="inline">
    <title>
      Layer 1
    </title>
    <path id="svg_1" fill="#FFFFFF" d="m25.1 106.4c-0.1 0-0.3 0-0.4-0.1l-24.6-24.7c-0.1-0.1-0.1-0.2-0.1-0.4 0-0.1 0.1-0.3 0.1-0.4l24.6-24.6c0.2-0.2 0.5-0.2 0.7 0s0.2 0.5 0 0.7l-24.2 24.3 24.3 24.3c0.2 0.2 0.2 0.5 0 0.7 -0.1 0.1-0.2 0.2-0.4 0.2l0 0zm4.9-34.9l0 0"/>
    <path id="svg_2" fill="#FFFFFF" d="m30 71.5c-0.8 0-1.5-0.7-1.5-1.5l0-12c0-0.8 0.7-1.5 1.5-1.5l12 0c0.8 0 1.5 0.7 1.5 1.5l0 12c0 0.8-0.7 1.5-1.5 1.5l-12 0 0 0zm12-14.5l0 0 0 0"/>
    <path id="svg_3" fill="#A0A0A0" d="m42 57c0.6 0 1 0.4 1 1l0 12c0 0.6-0.4 1-1 1l-12 0c-0.6 0-1-0.4-1-1l0-12c0-0.6 0.4-1 1-1l12 0m0-1l-12 0c-1.1 0-2 0.9-2 2l0 12c0 1.1 0.9 2 2 2l12 0c1.1 0 2-0.9 2-2l0-12c0-1.1-0.9-2-2-2l0 0z"/>
    <path id="svg_4" fill="#FFFFFF" d="m30 87.5c-0.8 0-1.5-0.7-1.5-1.5l0-12c0-0.8 0.7-1.5 1.5-1.5l12 0c0.8 0 1.5 0.7 1.5 1.5l0 12c0 0.8-0.7 1.5-1.5 1.5l-12 0 0 0zm12-14.5l0 0 0 0"/>
    <path id="svg_5" fill="#A0A0A0" d="m42 73c0.6 0 1 0.4 1 1l0 12c0 0.6-0.4 1-1 1l-12 0c-0.6 0-1-0.4-1-1l0-12c0-0.6 0.4-1 1-1l12 0m0-1l-12 0c-1.1 0-2 0.9-2 2l0 12c0 1.1 0.9 2 2 2l12 0c1.1 0 2-0.9 2-2l0-12c0-1.1-0.9-2-2-2l0 0z"/>
    <polygon id="svg_6" fill="#82BD36" points="35.1 69.2 30.3 64.4 31.7 63 34.9 66.2 40.2 60 41.8 61.4 "/>
    <path id="svg_7" fill="#5B3C2A" d="m54 73c3.9 0 7 3.1 7 7s-3.1 7-7 7 -7-3.1-7-7 3.1-7 7-7m0-1c-4.4 0-8 3.6-8 8s3.6 8 8 8 8-3.6 8-8 -3.6-8-8-8l0 0zm0-15l0 0"/>
    <path id="svg_8" fill="#5B3C2A" d="m54 57c3.9 0 7 3.1 7 7s-3.1 7-7 7 -7-3.1-7-7 3.1-7 7-7m0-1c-4.4 0-8 3.6-8 8s3.6 8 8 8 8-3.6 8-8 -3.6-8-8-8l0 0z"/>
    <circle id="svg_9" fill="#5B3C2A" cx="54" cy="64" r="4"/>
    <rect id="svg_10" fill="none" width="240" height="54" y="0" x="0"/>
    <path id="svg_11" fill="#82BD36" d="m40 20.7c0 10.8-8.7 19.5-19.5 19.5s-19.5-8.8-19.5-19.5c0-10.8 8.7-19.5 19.5-19.5s19.5 8.7 19.5 19.5m-17.5-19.4l0 0 0 0m0 0l0 0"/>
    <path id="svg_12" fill="#6B9928" d="m22.5 1.3c1.8 0.9 3.5 2 4.9 3.5 3.3 3.3 5.2 7.9 5.2 12.6s-1.9 9.3-5.2 12.6 -7.9 5.2-12.6 5.2c-3.6 0-7.1-1.1-10.1-3.1 3.5 4.9 9.3 8 15.8 8 10.8 0 19.5-8.7 19.5-19.5 0-10-7.6-18.3-17.5-19.3"/>
    <polygon id="svg_13" fill="#5B3C2A" points="11 19 11 26 20 26 18 48 25 48 23 26 36 26 27 19 "/>
    <polygon id="svg_14" fill="#6B9928" points="9 53 9 45 11.5 48 13.5 45 15.5 48 17.5 45.1 19.5 48 21.5 45 23.5 48 25.5 45 27.5 48.1 29.5 45 31.5 48 34 45 34 53 "/>
    <path id="svg_15" fill="#5B3C2A" d="m152.4 36.1c-0.4 0.2-0.4 0.4-0.6 0.7 -2.4 3.9-4.8 7.9-7.2 11.8 -0.2 0.3-0.4 0.7-0.6 1 -0.3 0.4-0.6 0.6-1.1 0.6 -1.5 0-3 0-4.4 0 -0.2 0-0.4 0-0.5-0.1 -0.3-0.1-0.4-0.2-0.5-0.5 0-0.2 0-0.5 0-0.7 0-7 0-14.1 0-21.1 0-1.3 0.1-1.4 1.4-1.4 1.1 0 2.2 0 3.4 0 0.2 0 0.4 0 0.6 0 0.4 0 0.6 0.3 0.7 0.7 0 0.3 0 0.6 0 0.8 0 3.5 0 7 0 10.4 0 0.3 0 0.7 0 1 0.3 0 0.4-0.3 0.5-0.4 2.4-3.8 4.7-7.6 7.1-11.4 0.1-0.1 0.2-0.3 0.3-0.5 0.3-0.5 0.7-0.8 1.4-0.8 1.5 0 3 0 4.5 0 0.2 0 0.4 0 0.5 0 0.3 0 0.5 0.2 0.5 0.5 0 0.2 0.1 0.5 0.1 0.7 0 7.1 0 14.2 0 21.3 0 1.1-0.1 1.3-1.3 1.3s-2.3 0-3.5 0c-0.2 0-0.4 0-0.6 0 -0.4-0.1-0.6-0.2-0.6-0.6 0-0.3 0-0.6 0-0.8 0-3.9 0-7.8 0-11.7 0-0.2 0-0.4-0.1-0.8m-42.8 2.4l0 0 0 0m0 0l0 0"/>
    <path id="svg_16" fill="#5B3C2A" d="m109.6 38.5c-0.1-6.8 5.5-12.2 12.1-12.3 6.6 0 12.3 5.3 12.3 12.2 0 6.7-5.4 12.2-12.2 12.2 -6.9 0-12.3-5.6-12.2-12.1m18.2-0.1c0-0.4 0-0.8-0.1-1.2s-0.2-0.9-0.4-1.3c-0.9-2.4-3-3.8-5.5-3.9 -2.5 0-4.6 1.4-5.6 3.8 -0.6 1.4-0.7 2.9-0.3 4.4 0.7 2.5 2.8 4.3 5.4 4.5 2.3 0.2 4.8-1 5.9-3.6 0.4-0.8 0.6-1.8 0.6-2.7"/>
    <path id="svg_17" fill="#5B3C2A" d="m227.2 50c-3.5 0-7 0-10.4 0 -0.3 0-0.6 0-0.8 0 -0.4-0.1-0.6-0.3-0.7-0.7 0-0.1 0-0.2 0-0.3 0-1.3 0-2.7 0-4 0-0.1 0-0.3 0-0.4 0.1-0.4 0.3-0.7 0.8-0.7s1 0 1.5 0c0.2 0 0.4-0.1 0.5-0.3 0.2-0.5 0.4-1 0.6-1.5 1.8-4.6 3.5-9.2 5.3-13.9 0.2-0.5 0.4-1 0.7-1.5 0.2-0.4 0.5-0.6 0.9-0.6 1.2 0 2.4 0 3.6 0 0.4 0 0.8 0.2 1 0.5 0.2 0.4 0.4 0.8 0.6 1.2 1.9 4.9 3.8 9.9 5.7 14.8 0.5 1.3 0.2 1.2 1.7 1.2l0.1 0c0.8 0 1 0.2 1 1 0 1.4 0 2.9 0 4.3 0 0.1 0 0.2 0 0.3 0 0.3-0.2 0.5-0.5 0.5s-0.6 0-0.8 0c-3.9 0.1-7.4 0.1-10.8 0.1m0.1-15.2c-0.5 0.9-2.9 8-3 8.9 0.3 0.1 0.6 0.1 0.8 0.1 1.2 0 2.3 0 3.5 0 0.4 0 0.8 0 1.2 0s0.5-0.1 0.3-0.5c-0.3-0.9-0.6-1.7-0.8-2.6 -0.7-1.9-1.3-3.8-2-5.9"/>
    <path id="svg_18" fill="#5B3C2A" d="m210.4 50c-0.7 0-1.5 0-2.2 0 -0.5 0-0.8-0.2-1-0.7 -0.3-0.9-0.6-1.7-1-2.6 -0.2-0.6-0.2-0.7-0.9-0.7 -2.4 0-4.8 0-7.2 0 -0.1 0-0.1 0-0.2 0 -0.3 0-0.5 0.1-0.6 0.4 -0.2 0.7-0.5 1.4-0.8 2.1 -0.1 0.2-0.2 0.4-0.2 0.6 -0.2 0.5-0.5 0.8-1.1 0.8 -0.9 0-1.8 0-2.7 0 -0.5 0-0.9 0-1.4 0 -1 0-1.1-0.2-0.8-1.1 0.4-1 0.8-2 1.2-3 2.4-6.2 4.8-12.3 7.1-18.5 0.1-0.1 0.1-0.3 0.2-0.4 0.2-0.5 0.6-0.8 1.1-0.8s1 0 1.5 0c0.7 0 1.5 0 2.2 0 0.5 0 0.8 0.2 1 0.6s0.4 0.8 0.5 1.2c2.7 6.9 5.3 13.8 8 20.7 0.1 0.2 0.2 0.4 0.2 0.6 0.1 0.3-0.1 0.6-0.5 0.7 -0.2 0-0.4 0-0.6 0 -0.5 0.1-1.2 0.1-1.8 0.1l0 0 0 0zm-8.7-16c-0.8 2.3-1.5 4.5-2.2 6.7 -0.1 0.2 0 0.4 0.3 0.4 1.3 0 2.7 0 4 0 0.3 0 0.3-0.1 0.3-0.4 -0.7-2.1-1.4-4.3-2.1-6.4 -0.1-0.1-0.2-0.1-0.3-0.3"/>
    <path id="svg_19" fill="#5B3C2A" d="m89.7 38.3c0-3.4 0-6.9 0-10.3 0-0.3 0-0.6 0-0.9s0.2-0.5 0.6-0.5c0.2 0 0.5 0 0.7 0 3.1 0 6.3 0 9.4 0 4.7-0.1 7.4 4 7.5 7.3 0.1 2.4-0.6 4.4-2.3 6.1 -1.4 1.3-3 2.1-4.9 2.1 -1.2 0-2.5 0-3.7 0 -0.2 0-0.5 0-0.7 0 -0.3 0-0.4 0.1-0.4 0.5 0 0.3 0 0.6 0 0.8 0 2 0 3.9 0 5.9 0 0.9-0.2 1.1-1.1 1.1 -1.3 0-2.7 0-4 0 -0.1 0-0.2 0-0.3 0 -0.6-0.1-0.7-0.2-0.8-0.8 0-0.3 0-0.6 0-0.8 0 0 0-10.5 0-10.5l0 0 0 0zm6.2-4.2l0 0c0 0.7 0 1.5 0 2.2 0 0.4 0.1 0.5 0.4 0.5 1.1 0 2.1 0 3.2 0 0.5 0 0.9-0.2 1.3-0.5 1.4-1.1 1.3-3.4-0.1-4.4 -0.3-0.2-0.7-0.4-1.2-0.4 -1.1 0-2.1 0-3.2 0 -0.3 0-0.4 0.2-0.4 0.4 0 0.8 0 1.5 0 2.2"/>
    <path id="svg_20" fill="#5B3C2A" d="m59.2 26.2c2.3 0 4.4 0.6 6.4 1.7 0.2 0.1 0.4 0.3 0.6 0.4 0.4 0.3 0.4 0.6 0.2 1 -0.1 0.1-0.2 0.2-0.2 0.3 -0.7 1-1.4 2-2.1 3 -0.6 0.8-0.7 0.9-1.5 0.3 -0.7-0.5-1.4-0.8-2.2-0.9 -3.2-0.5-5.9 1.2-6.8 4.2 -0.5 1.6-0.4 3.2 0.3 4.7 1.5 3.4 5.4 4.4 8.4 2.7 0.3-0.2 0.6-0.4 0.9-0.5 0.2-0.1 0.5-0.1 0.7 0.1 0.1 0.1 0.2 0.3 0.3 0.4 0.8 1.1 1.5 2.2 2.3 3.3 0.1 0.1 0.2 0.2 0.2 0.4 0.1 0.3 0.1 0.5-0.1 0.8 -0.2 0.1-0.3 0.3-0.5 0.4 -7.1 4.5-16.5 0.8-18.5-7.4 -1.5-6.2 2.1-13 8.9-14.7 0.7-0.1 1.7-0.2 2.7-0.2"/>
    <path id="svg_21" fill="#5B3C2A" d="m169.4 38.2c-0.1-4.7 3-10.5 9.7-12 3.2-0.7 6.2-0.1 9 1.6 0.1 0.1 0.2 0.1 0.4 0.2 0.5 0.4 0.6 0.7 0.2 1.2 -0.8 1.2-1.7 2.4-2.6 3.6 -0.3 0.4-0.5 0.4-1 0.2 -0.2-0.1-0.3-0.2-0.4-0.3 -3.9-2.3-8.7 0-9.1 4.7 -0.1 1.4 0.1 2.7 0.8 4 1.8 3.2 5.6 3.7 8.2 2.2 0.2-0.1 0.5-0.3 0.7-0.4 0.3-0.2 0.5-0.1 0.8 0.1 0.1 0.1 0.2 0.2 0.3 0.3 0.8 1.1 1.6 2.3 2.3 3.4 0.1 0.1 0.2 0.2 0.2 0.4 0.1 0.3 0.1 0.6-0.2 0.8 -0.2 0.2-0.4 0.3-0.6 0.4 -7.6 4.7-17.1 0.2-18.6-8.3 0-0.7 0-1.4-0.1-2.1"/>
    <path id="svg_22" fill="#5B3C2A" d="m80.8 40.9l0 7.5c0 0.2 0 0.4 0 0.6 0 1-0.2 1.2-1.2 1.2 -1.3 0-2.6 0-3.9 0 -0.1 0-0.3 0-0.4 0 -0.4-0.1-0.7-0.4-0.7-0.8 0-0.3 0-0.6 0-0.8 0-5.2 0-10.5 0-15.7 0-1 0.1-1-1-1 -1.3 0-2.5 0-3.8 0 -0.2 0-0.5 0-0.7 0 -0.4-0.1-0.7-0.3-0.7-0.8 0-0.1 0-0.2 0-0.3 0-1.1 0-2.2 0-3.4 0-0.1 0-0.2 0-0.3 0.1-0.4 0.3-0.6 0.7-0.7 0.2 0 0.5 0 0.7 0 5.3 0 10.6 0 15.9 0l0.1 0c1.2 0 1.3 0.1 1.3 1.2 0 1 0 2 0 3 0 0.1 0 0.2 0 0.3 0 0.6-0.4 1-1 1 -1.2 0-2.3 0-3.5 0 -0.6 0-1.1-0.1-1.7 0.1 -0.3 0.6-0.1 1.2-0.1 1.8 0 2.3 0 4.7 0 7.1"/>
    <path id="svg_23" fill="#82BD36" d="m156.6 8.8c0 0-6.6 1.9-8.5 5.7s-0.9 9.5-0.9 9.5 6.6-1.9 8.5-5.7c1.9-3.9 0.9-9.5 0.9-9.5z"/>
    <path id="svg_24" fill="#333333" d="m66 87.1c0-0.2 0.1-0.4 0.2-0.5l7.3-7.5c0.3-0.3 0.7-0.3 1 0l7.3 7.5c0.3 0.3 0.3 0.8 0 1.1s-0.7 0.3-1 0l-6.8-7 -6.8 7c-0.3 0.3-0.7 0.3-1 0 -0.1-0.2-0.2-0.4-0.2-0.6z" transform="rotate(180 73.94561767578125,83.45764923095703) "/>
    <rect id="svg_25" x="-24" y="117.6" transform="matrix(0.7071,0.7071,-0.7071,0.7071,167.4178,-10.1823) " fill="#AD9D94" width="23.6" height="4.6"/>
    <rect id="svg_26" x="-14.5" y="108.1" transform="matrix(0.7071,0.7071,-0.7071,0.7071,167.4178,-10.1823) " fill="#AD9D94" width="4.6" height="23.6"/>
    <image id="svg_27" x="8.8" y="21.8" width="0.8" height="0.2"/>
    <path id="svg_28" fill="#394449" d="m86 56.2l4.7 0c3 0 4.5 1.6 4.5 4.6l0 9.4c0 3-1.5 4.6-4.5 4.6l-4.7 0 0-18.6 0 0zm3 2.7l0 13.3 1.7 0c1 0 1.5-0.5 1.5-1.8l0-9.7c0-1.3-0.6-1.8-1.5-1.8 0 0-1.7 0-1.7 0zm9.3-2.7l0 0"/>
    <path id="svg_29" fill="#394449" d="m98.3 56.2l3 0 0 18.6 -3 0c0 0 0-18.6 0-18.6z"/>
    <path id="svg_30" fill="#394449" d="m111 74.8c-0.2-0.5-0.3-0.8-0.3-2.3l0-2.9c0-1.7-0.6-2.4-2-2.4l-1 0 0 7.6 -3 0 0-18.6 4.5 0c3.1 0 4.4 1.4 4.4 4.3l0 1.5c0 1.9-0.6 3.2-2 3.8 1.5 0.6 2 2 2 4l0 2.9c0 0.9 0 1.6 0.3 2.3l-2.9 0 0-0.2zm-3.3-15.9l0 5.7 1.2 0c1.1 0 1.8-0.5 1.8-2l0-1.8c0-1.3-0.5-1.9-1.5-1.9l-1.5 0z"/>
    <path id="svg_31" fill="#394449" d="m119.9 64l4.1 0 0 2.7 -4.1 0 0 5.4 5.1 0 0 2.7 -8.2 0 0-18.6 8.2 0 0 2.7 -5.2 0 0 5.1 0.1 0z"/>
    <path id="svg_32" fill="#394449" d="m136.1 67.9l0 2.5c0 3-1.5 4.7-4.5 4.7 -2.9 0-4.5-1.7-4.5-4.7l0-9.7c0-3 1.5-4.7 4.5-4.7 2.9 0 4.5 1.7 4.5 4.7l0 1.8 -2.8 0 0-2c0-1.3-0.6-1.8-1.6-1.8s-1.6 0.5-1.6 1.8l0 10c0 1.3 0.6 1.8 1.6 1.8s1.6-0.5 1.6-1.8l0-2.7 2.8 0.1 0 0z"/>
    <path id="svg_33" fill="#394449" d="m137.7 56.2l9.3 0 0 2.7 -3.1 0 0 15.9 -3 0 0-15.9 -3.1 0 -0.1-2.7 0 0z"/>
    <path id="svg_34" fill="#47A4D4" d="m149 56.2l3 0 0 15.9 4.9 0 0 2.7 -7.9 0 0-18.6z"/>
    <path id="svg_35" fill="#47A4D4" d="m158.7 56.2l3 0 0 18.6 -3 0 0-18.6z"/>
    <path id="svg_36" fill="#47A4D4" d="m167.8 61.3l0 13.5 -2.7 0 0-18.6 3.8 0 3.1 11.1 0-11.1 2.7 0 0 18.6 -3.1 0 -3.8-13.5z"/>
    <path id="svg_37" fill="#47A4D4" d="m180.8 64l4.1 0 0 2.7 -4.1 0 0 5.4 5.2 0 0 2.7 -8.2 0 0-18.6 8.2 0 0 2.7 -5.2 0 0 5.1z"/>
    <path id="svg_38" fill="#394449" d="m104.7 82.9c0.3 0 0.7-0.1 1.3-0.1 0.7 0 1.3 0.2 1.6 0.5 0.3 0.4 0.5 0.9 0.5 1.5 0 0.2 0 0.4-0.1 0.6 0 0.2-0.1 0.4-0.2 0.6s-0.2 0.3-0.4 0.5c-0.2 0.1-0.4 0.2-0.6 0.3 -0.3 0.1-0.5 0.1-0.9 0.1 -0.5 0-0.9 0-1.2-0.1l0-3.9 0 0zm1.3 0.7c-0.2 0-0.4 0-0.5 0l0 2.6c0.1 0 0.2 0 0.4 0 0.2 0 0.4 0 0.6-0.1s0.3-0.2 0.4-0.3 0.1-0.3 0.2-0.4c0-0.1 0.1-0.3 0.1-0.5s0-0.3-0.1-0.4c0-0.1-0.1-0.3-0.2-0.4s-0.2-0.2-0.4-0.3c0-0.2-0.2-0.2-0.5-0.2l0 0zm5.1-0.7l0 0"/>
    <path id="svg_39" fill="#394449" d="m111.1 82.9l2.6 0 0 0.7 -1.7 0 0 0.9 1.6 0 0 0.7 -1.6 0 0 0.9 1.8 0 0 0.7 -2.6 0 -0.1-3.9c0.1 0 0 0 0 0l0 0z"/>
    <path id="svg_40" fill="#394449" d="m118 85.2l0.1 0.7 0 0 0.1-0.7 0.8-2.3 1 0 -1.6 4 -0.6 0 -1.6-4 1 0 0.8 2.3 0 0z"/>
    <path id="svg_41" fill="#394449" d="m122.7 82.9l2.6 0 0 0.7 -1.7 0 0 0.9 1.6 0 0 0.7 -1.6 0 0 0.9 1.8 0 0 0.7 -2.6 0 -0.1-3.9 0 0z"/>
    <path id="svg_42" fill="#394449" d="m131 86.9l-2.7 0 0-4 0.8 0 0 3.2 1.9 0 0 0.8 0 0 0 0z"/>
    <path id="svg_43" fill="#394449" d="m133 84.9c0-0.7 0.2-1.2 0.5-1.5 0.3-0.4 0.8-0.5 1.3-0.5 0.6 0 1.1 0.2 1.4 0.6s0.5 0.9 0.5 1.5c0 0.7-0.2 1.2-0.5 1.5 -0.3 0.4-0.8 0.5-1.4 0.5s-1.1-0.2-1.4-0.6c-0.3-0.3-0.4-0.8-0.4-1.5l0 0zm0.9 0c0 0.4 0.1 0.7 0.2 1 0.2 0.2 0.4 0.4 0.7 0.4 0.6 0 0.9-0.4 0.9-1.3 0-0.4-0.1-0.7-0.2-1 -0.2-0.2-0.4-0.4-0.7-0.4 -0.6 0-0.9 0.4-0.9 1.3l0 0 0 0z"/>
    <path id="svg_44" fill="#394449" d="m139.6 83c0.4-0.1 0.8-0.1 1.2-0.1 1.2 0 1.8 0.4 1.8 1.3 0 0.2 0 0.5-0.1 0.6 -0.1 0.2-0.2 0.3-0.4 0.4 -0.2 0.1-0.3 0.2-0.5 0.2 -0.2 0.1-0.4 0.1-0.6 0.1s-0.4 0-0.5 0l0 1.3 -0.8 0 -0.1-3.8zm0.8 0.6l0 1.2c0.1 0 0.2 0 0.4 0 0.1 0 0.2 0 0.3 0s0.2 0 0.3-0.1c0.1 0 0.2-0.1 0.2-0.2s0.1-0.2 0.1-0.3c0-0.4-0.3-0.6-0.9-0.6 -0.1 0-0.3 0-0.4 0l0 0z"/>
    <path id="svg_45" fill="#394449" d="m148.8 84.9l0.1-0.8 0 0 -0.3 0.6 -0.9 1.5 -0.3 0 -1-1.5 -0.3-0.6 0 0 0.1 0.8 0 2 -0.8 0 0-4 0.8 0 1.1 1.8 0.2 0.4 0 0 0.2-0.4 1.1-1.8 0.8 0 0 4 -0.8 0c0 0 0-2 0-2z"/>
    <path id="svg_46" fill="#394449" d="m152.7 82.9l2.6 0 0 0.7 -1.7 0 0 0.9 1.6 0 0 0.7 -1.6 0 0 0.9 1.8 0 0 0.7 -2.6 0 -0.1-3.9 0 0z"/>
    <path id="svg_47" fill="#394449" d="m159.4 84.8l-0.3-0.6 0 0 0.1 0.6 0 2.1 -0.8 0 0-4 0.6 0 1.6 2.1 0.3 0.6 0 0 -0.1-0.6 0-2.1 0.8 0 0 4 -0.6 0 -1.6-2.1z"/>
    <path id="svg_48" fill="#394449" d="m167.8 83.7l-1.3 0 0 3.2 -0.8 0 0-3.2 -1.3 0 0-0.7 3.4 0c0 0 0 0.7 0 0.7z"/>
    <rect id="svg_49" x="86.1" y="84" fill="#394449" width="14.9" height="1"/>
    <rect id="svg_50" x="171" y="84" fill="#394449" width="14.9" height="1"/>
    <g stroke="null" transform="matrix(0.5377906505551462,0,0,0.5377906505551462,-96.79829946844802,-28.74704534572311) " id="svg_119"/>
    <g transform="matrix(0.5320246027181071,0,0,0.5320246027181071,-166.31838952812558,-28.739660990183875) " id="svg_194" stroke="null">
      <defs>
        <circle r="30" cy="31" cx="31" id="svg_118" stroke="null"/>
      </defs>
      <use x="664.98" y="158.28" id="svg_195" fill="#3B5998" xlink:href="#svg_118" stroke="null"/>
      <clipPath id="svg_117">
        <use id="svg_196" xlink:href="#svg_118" stroke="null"/>
      </clipPath>
    </g>
    <path id="svg_197" d="m207.15 64.83l-1.86 0c0 0-3.14-0.21-3.14 3.09 0 0.69 0 2.29 0 2.29l-1.76 0 0 1.76 1.76 0 0 7.82 2.5 0 0-7.82 2.34 0 0.48-1.76 -2.82 0 0-2.34c0 0 0-0.85 1.01-0.85l1.49 0 0-2.18z" fill="#FFFFFF" clip-rule="evenodd" fill-rule="evenodd" stroke="null"/>
    <g transform="matrix(0.5320246657479691,0,0,0.5320246657479691,-166.54879927793937,-28.73967877187412) " id="svg_198" stroke="null">
      <path id="svg_199" d="m850.47 189.28c0 16.6-13.4 30-30 30 -16.6 0-30-13.4-30-30 0-16.6 13.4-30 30-30 16.6 0 30 13.4 30 30z" fill="#E52D27" stroke="null"/>
      <path id="svg_200" d="m839.97 181.28c0 0-0.4-2.7-1.6-4 -1.5-1.6-3.2-1.6-4-1.7 -5.5-0.3-13.9-0.3-13.9-0.3l0 0c0 0-8.4 0-13.9 0.4 -0.8 0.1-2.5 0.1-4 1.7 -1.2 1.2-1.6 4-1.6 4s-0.4 3.2-0.4 6.4l0 3c0 3.2 0.4 6.4 0.4 6.4s0.4 2.7 1.6 4c1.5 1.6 3.5 1.5 4.4 1.7 3.2 0.3 13.5 0.4 13.5 0.4s8.4 0 13.9-0.4c0.8-0.1 2.5-0.1 4-1.7 1.2-1.2 1.6-4 1.6-4s0.4-3.2 0.4-6.4l0-3c0-3.2-0.4-6.5-0.4-6.5m-23.6 13.2l0-11.2 10.8 5.6 -10.8 5.6 0 0z" fill="#FFFFFF" stroke="null"/>
    </g>
    <g id="svg_54" stroke="null">
      <g transform="matrix(0.5320661393972067,0,0,0.5320661393972067,-166.58056710464388,-28.747529843428282) " id="svg_201" stroke="null">
        <g id="svg_202" stroke="null">
          <circle id="svg_203" r="30" cy="189.28" cx="758.44" fill="#00ACEE" stroke="null"/>
        </g>
      </g>
      <g transform="matrix(0.5320661393972067,0,0,0.5320661393972067,-166.58056710464388,-28.747529843428282) " id="svg_204" stroke="null">
        <path id="svg_205" d="m770.99 183.88c0 0.2 0 0.5 0 0.8 0 7.8-5.9 16.8-16.8 16.8 -3.3 0-6.4-1-9.1-2.7 0.5 0 0.9 0.1 1.4 0.1 2.8 0 5.3-0.9 7.3-2.5 -2.6 0-4.8-1.8-5.5-4.1 0.4 0.1 0.7 0.1 1.1 0.1 0.5 0 0.8-0.1 1.3-0.2 -2.7-0.5-5-2.9-5-5.8l0-0.1c1 0.4 2 0.7 2.9 0.7 -1.6-1.1-2.5-2.9-2.5-4.9 0-1.1 0.4-2.1 0.9-3 2.9 3.6 7.3 5.9 12.2 6.2 -0.1-0.4-0.1-0.9-0.1-1.3 0-3.3 2.7-5.9 5.9-5.9 1.7 0 3.2 0.7 4.3 1.9 1.4-0.3 2.6-0.8 3.8-1.4 -0.4 1.4-1.4 2.5-2.6 3.3 1.2-0.1 2.3-0.5 3.4-0.9 -0.7 1-1.7 2.1-2.9 2.9z" fill="#FFFFFF" stroke="null"/>
      </g>
    </g>
  </g>
</svg>
