<svg xmlns="http://www.w3.org/2000/svg" width="240" height="106"><g display="inline"><title>Layer 1</title><path fill="#FFFFFF" d="m25.1 106.4c-0.1 0-0.3 0-0.4-0.1l-24.6-24.7c-0.1-0.1-0.1-0.2-0.1-0.4 0-0.1 0.1-0.3 0.1-0.4l24.6-24.6c0.2-0.2 0.5-0.2 0.7 0s0.2 0.5 0 0.7l-24.2 24.3 24.3 24.3c0.2 0.2 0.2 0.5 0 0.7 -0.1 0.1-0.2 0.2-0.4 0.2z"/><path fill="#FFFFFF" d="m30 71.5c-0.8 0-1.5-0.7-1.5-1.5l0-12c0-0.8 0.7-1.5 1.5-1.5l12 0c0.8 0 1.5 0.7 1.5 1.5l0 12c0 0.8-0.7 1.5-1.5 1.5l-12 0 0 0zM42 57 42 57 42 57"/><path fill="#A0A0A0" d="m42 57c0.6 0 1 0.4 1 1l0 12c0 0.6-0.4 1-1 1l-12 0c-0.6 0-1-0.4-1-1l0-12c0-0.6 0.4-1 1-1l12 0m0-1l-12 0c-1.1 0-2 0.9-2 2l0 12c0 1.1 0.9 2 2 2l12 0c1.1 0 2-0.9 2-2l0-12c0-1.1-0.9-2-2-2l0 0z"/><path fill="#FFFFFF" d="m30 87.5c-0.8 0-1.5-0.7-1.5-1.5l0-12c0-0.8 0.7-1.5 1.5-1.5l12 0c0.8 0 1.5 0.7 1.5 1.5l0 12c0 0.8-0.7 1.5-1.5 1.5l-12 0 0 0zM42 73 42 73 42 73"/><path fill="#A0A0A0" d="m42 73c0.6 0 1 0.4 1 1l0 12c0 0.6-0.4 1-1 1l-12 0c-0.6 0-1-0.4-1-1l0-12c0-0.6 0.4-1 1-1l12 0m0-1l-12 0c-1.1 0-2 0.9-2 2l0 12c0 1.1 0.9 2 2 2l12 0c1.1 0 2-0.9 2-2l0-12c0-1.1-0.9-2-2-2l0 0z"/><polygon fill="#82BD36" points="35.1 69.2 30.3 64.4 31.7 63 34.9 66.2 40.2 60 41.8 61.4 "/><path fill="#5B3C2A" d="m54 73c3.9 0 7 3.1 7 7s-3.1 7-7 7 -7-3.1-7-7 3.1-7 7-7m0-1c-4.4 0-8 3.6-8 8s3.6 8 8 8 8-3.6 8-8 -3.6-8-8-8l0 0z"/><path fill="#5B3C2A" d="m54 57c3.9 0 7 3.1 7 7s-3.1 7-7 7 -7-3.1-7-7 3.1-7 7-7m0-1c-4.4 0-8 3.6-8 8s3.6 8 8 8 8-3.6 8-8 -3.6-8-8-8l0 0z"/><circle fill="#5B3C2A" cx="54" cy="64" r="4"/><rect fill="none" width="240" height="54" y="0" x="0"/><path fill="#82BD36" d="m40 20.7c0 10.8-8.7 19.5-19.5 19.5s-19.5-8.8-19.5-19.5c0-10.8 8.7-19.5 19.5-19.5s19.5 8.7 19.5 19.5M22.5 1.3 22.5 1.3 22.5 1.3"/><path fill="#6B9928" d="m22.5 1.3c1.8 0.9 3.5 2 4.9 3.5 3.3 3.3 5.2 7.9 5.2 12.6s-1.9 9.3-5.2 12.6 -7.9 5.2-12.6 5.2c-3.6 0-7.1-1.1-10.1-3.1 3.5 4.9 9.3 8 15.8 8 10.8 0 19.5-8.7 19.5-19.5 0-10-7.6-18.3-17.5-19.3"/><polygon fill="#5B3C2A" points="11 19 11 26 20 26 18 48 25 48 23 26 36 26 27 19 "/><polygon fill="#6B9928" points="9 53 9 45 11.5 48 13.5 45 15.5 48 17.5 45.1 19.5 48 21.5 45 23.5 48 25.5 45 27.5 48.1 29.5 45 31.5 48 34 45 34 53 "/><path fill="#5B3C2A" d="m152.4 36.1c-0.4 0.2-0.4 0.4-0.6 0.7 -2.4 3.9-4.8 7.9-7.2 11.8 -0.2 0.3-0.4 0.7-0.6 1 -0.3 0.4-0.6 0.6-1.1 0.6 -1.5 0-3 0-4.4 0 -0.2 0-0.4 0-0.5-0.1 -0.3-0.1-0.4-0.2-0.5-0.5 0-0.2 0-0.5 0-0.7 0-7 0-14.1 0-21.1 0-1.3 0.1-1.4 1.4-1.4 1.1 0 2.2 0 3.4 0 0.2 0 0.4 0 0.6 0 0.4 0 0.6 0.3 0.7 0.7 0 0.3 0 0.6 0 0.8 0 3.5 0 7 0 10.4 0 0.3 0 0.7 0 1 0.3 0 0.4-0.3 0.5-0.4 2.4-3.8 4.7-7.6 7.1-11.4 0.1-0.1 0.2-0.3 0.3-0.5 0.3-0.5 0.7-0.8 1.4-0.8 1.5 0 3 0 4.5 0 0.2 0 0.4 0 0.5 0 0.3 0 0.5 0.2 0.5 0.5 0 0.2 0.1 0.5 0.1 0.7 0 7.1 0 14.2 0 21.3 0 1.1-0.1 1.3-1.3 1.3s-2.3 0-3.5 0c-0.2 0-0.4 0-0.6 0 -0.4-0.1-0.6-0.2-0.6-0.6 0-0.3 0-0.6 0-0.8 0-3.9 0-7.8 0-11.7 0-0.2 0-0.4-0.1-0.8M109.6 38.5 109.6 38.5 109.6 38.5"/><path fill="#5B3C2A" d="m109.6 38.5c-0.1-6.8 5.5-12.2 12.1-12.3 6.6 0 12.3 5.3 12.3 12.2 0 6.7-5.4 12.2-12.2 12.2 -6.9 0-12.3-5.6-12.2-12.1m18.2-0.1c0-0.4 0-0.8-0.1-1.2s-0.2-0.9-0.4-1.3c-0.9-2.4-3-3.8-5.5-3.9 -2.5 0-4.6 1.4-5.6 3.8 -0.6 1.4-0.7 2.9-0.3 4.4 0.7 2.5 2.8 4.3 5.4 4.5 2.3 0.2 4.8-1 5.9-3.6 0.4-0.8 0.6-1.8 0.6-2.7"/><path fill="#5B3C2A" d="m227.2 50c-3.5 0-7 0-10.4 0 -0.3 0-0.6 0-0.8 0 -0.4-0.1-0.6-0.3-0.7-0.7 0-0.1 0-0.2 0-0.3 0-1.3 0-2.7 0-4 0-0.1 0-0.3 0-0.4 0.1-0.4 0.3-0.7 0.8-0.7s1 0 1.5 0c0.2 0 0.4-0.1 0.5-0.3 0.2-0.5 0.4-1 0.6-1.5 1.8-4.6 3.5-9.2 5.3-13.9 0.2-0.5 0.4-1 0.7-1.5 0.2-0.4 0.5-0.6 0.9-0.6 1.2 0 2.4 0 3.6 0 0.4 0 0.8 0.2 1 0.5 0.2 0.4 0.4 0.8 0.6 1.2 1.9 4.9 3.8 9.9 5.7 14.8 0.5 1.3 0.2 1.2 1.7 1.2l0.1 0c0.8 0 1 0.2 1 1 0 1.4 0 2.9 0 4.3 0 0.1 0 0.2 0 0.3 0 0.3-0.2 0.5-0.5 0.5s-0.6 0-0.8 0c-3.9 0.1-7.4 0.1-10.8 0.1m0.1-15.2c-0.5 0.9-2.9 8-3 8.9 0.3 0.1 0.6 0.1 0.8 0.1 1.2 0 2.3 0 3.5 0 0.4 0 0.8 0 1.2 0s0.5-0.1 0.3-0.5c-0.3-0.9-0.6-1.7-0.8-2.6 -0.7-1.9-1.3-3.8-2-5.9"/><path fill="#5B3C2A" d="m210.4 50c-0.7 0-1.5 0-2.2 0 -0.5 0-0.8-0.2-1-0.7 -0.3-0.9-0.6-1.7-1-2.6 -0.2-0.6-0.2-0.7-0.9-0.7 -2.4 0-4.8 0-7.2 0 -0.1 0-0.1 0-0.2 0 -0.3 0-0.5 0.1-0.6 0.4 -0.2 0.7-0.5 1.4-0.8 2.1 -0.1 0.2-0.2 0.4-0.2 0.6 -0.2 0.5-0.5 0.8-1.1 0.8 -0.9 0-1.8 0-2.7 0 -0.5 0-0.9 0-1.4 0 -1 0-1.1-0.2-0.8-1.1 0.4-1 0.8-2 1.2-3 2.4-6.2 4.8-12.3 7.1-18.5 0.1-0.1 0.1-0.3 0.2-0.4 0.2-0.5 0.6-0.8 1.1-0.8s1 0 1.5 0c0.7 0 1.5 0 2.2 0 0.5 0 0.8 0.2 1 0.6s0.4 0.8 0.5 1.2c2.7 6.9 5.3 13.8 8 20.7 0.1 0.2 0.2 0.4 0.2 0.6 0.1 0.3-0.1 0.6-0.5 0.7 -0.2 0-0.4 0-0.6 0 -0.5 0.1-1.2 0.1-1.8 0.1l0 0zm-8.7-16c-0.8 2.3-1.5 4.5-2.2 6.7 -0.1 0.2 0 0.4 0.3 0.4 1.3 0 2.7 0 4 0 0.3 0 0.3-0.1 0.3-0.4 -0.7-2.1-1.4-4.3-2.1-6.4 -0.1-0.1-0.2-0.1-0.3-0.3"/><path fill="#5B3C2A" d="m89.7 38.3c0-3.4 0-6.9 0-10.3 0-0.3 0-0.6 0-0.9s0.2-0.5 0.6-0.5c0.2 0 0.5 0 0.7 0 3.1 0 6.3 0 9.4 0 4.7-0.1 7.4 4 7.5 7.3 0.1 2.4-0.6 4.4-2.3 6.1 -1.4 1.3-3 2.1-4.9 2.1 -1.2 0-2.5 0-3.7 0 -0.2 0-0.5 0-0.7 0 -0.3 0-0.4 0.1-0.4 0.5 0 0.3 0 0.6 0 0.8 0 2 0 3.9 0 5.9 0 0.9-0.2 1.1-1.1 1.1 -1.3 0-2.7 0-4 0 -0.1 0-0.2 0-0.3 0 -0.6-0.1-0.7-0.2-0.8-0.8 0-0.3 0-0.6 0-0.8 0 0 0-10.5 0-10.5zm6.2-4.2l0 0c0 0.7 0 1.5 0 2.2 0 0.4 0.1 0.5 0.4 0.5 1.1 0 2.1 0 3.2 0 0.5 0 0.9-0.2 1.3-0.5 1.4-1.1 1.3-3.4-0.1-4.4 -0.3-0.2-0.7-0.4-1.2-0.4 -1.1 0-2.1 0-3.2 0 -0.3 0-0.4 0.2-0.4 0.4 0 0.8 0 1.5 0 2.2"/><path fill="#5B3C2A" d="m59.2 26.2c2.3 0 4.4 0.6 6.4 1.7 0.2 0.1 0.4 0.3 0.6 0.4 0.4 0.3 0.4 0.6 0.2 1 -0.1 0.1-0.2 0.2-0.2 0.3 -0.7 1-1.4 2-2.1 3 -0.6 0.8-0.7 0.9-1.5 0.3 -0.7-0.5-1.4-0.8-2.2-0.9 -3.2-0.5-5.9 1.2-6.8 4.2 -0.5 1.6-0.4 3.2 0.3 4.7 1.5 3.4 5.4 4.4 8.4 2.7 0.3-0.2 0.6-0.4 0.9-0.5 0.2-0.1 0.5-0.1 0.7 0.1 0.1 0.1 0.2 0.3 0.3 0.4 0.8 1.1 1.5 2.2 2.3 3.3 0.1 0.1 0.2 0.2 0.2 0.4 0.1 0.3 0.1 0.5-0.1 0.8 -0.2 0.1-0.3 0.3-0.5 0.4 -7.1 4.5-16.5 0.8-18.5-7.4 -1.5-6.2 2.1-13 8.9-14.7 0.7-0.1 1.7-0.2 2.7-0.2"/><path fill="#5B3C2A" d="m169.4 38.2c-0.1-4.7 3-10.5 9.7-12 3.2-0.7 6.2-0.1 9 1.6 0.1 0.1 0.2 0.1 0.4 0.2 0.5 0.4 0.6 0.7 0.2 1.2 -0.8 1.2-1.7 2.4-2.6 3.6 -0.3 0.4-0.5 0.4-1 0.2 -0.2-0.1-0.3-0.2-0.4-0.3 -3.9-2.3-8.7 0-9.1 4.7 -0.1 1.4 0.1 2.7 0.8 4 1.8 3.2 5.6 3.7 8.2 2.2 0.2-0.1 0.5-0.3 0.7-0.4 0.3-0.2 0.5-0.1 0.8 0.1 0.1 0.1 0.2 0.2 0.3 0.3 0.8 1.1 1.6 2.3 2.3 3.4 0.1 0.1 0.2 0.2 0.2 0.4 0.1 0.3 0.1 0.6-0.2 0.8 -0.2 0.2-0.4 0.3-0.6 0.4 -7.6 4.7-17.1 0.2-18.6-8.3 0-0.7 0-1.4-0.1-2.1"/><path fill="#5B3C2A" d="m80.8 40.9l0 7.5c0 0.2 0 0.4 0 0.6 0 1-0.2 1.2-1.2 1.2 -1.3 0-2.6 0-3.9 0 -0.1 0-0.3 0-0.4 0 -0.4-0.1-0.7-0.4-0.7-0.8 0-0.3 0-0.6 0-0.8 0-5.2 0-10.5 0-15.7 0-1 0.1-1-1-1 -1.3 0-2.5 0-3.8 0 -0.2 0-0.5 0-0.7 0 -0.4-0.1-0.7-0.3-0.7-0.8 0-0.1 0-0.2 0-0.3 0-1.1 0-2.2 0-3.4 0-0.1 0-0.2 0-0.3 0.1-0.4 0.3-0.6 0.7-0.7 0.2 0 0.5 0 0.7 0 5.3 0 10.6 0 15.9 0l0.1 0c1.2 0 1.3 0.1 1.3 1.2 0 1 0 2 0 3 0 0.1 0 0.2 0 0.3 0 0.6-0.4 1-1 1 -1.2 0-2.3 0-3.5 0 -0.6 0-1.1-0.1-1.7 0.1 -0.3 0.6-0.1 1.2-0.1 1.8 0 2.3 0 4.7 0 7.1"/><path fill="#82BD36" d="m156.6 8.8c0 0-6.6 1.9-8.5 5.7s-0.9 9.5-0.9 9.5 6.6-1.9 8.5-5.7c1.9-3.9 0.9-9.5 0.9-9.5z"/><path fill="#333333" d="m66 87.1c0-0.2 0.1-0.4 0.2-0.5l7.3-7.5c0.3-0.3 0.7-0.3 1 0l7.3 7.5c0.3 0.3 0.3 0.8 0 1.1s-0.7 0.3-1 0l-6.8-7 -6.8 7c-0.3 0.3-0.7 0.3-1 0 -0.1-0.2-0.2-0.4-0.2-0.6z" transform="rotate(180 73.94561767578125,83.45764923095703) "/><rect x="-24" y="117.6" transform="matrix(0.7071,0.7071,-0.7071,0.7071,167.4178,-10.1823) " fill="#AD9D94" width="23.6" height="4.6"/><rect x="-14.5" y="108.1" transform="matrix(0.7071,0.7071,-0.7071,0.7071,167.4178,-10.1823) " fill="#AD9D94" width="4.6" height="23.6"/><image x="8.8" y="21.8" width="0.8" height="0.2"/></g></svg>