<svg xmlns="http://www.w3.org/2000/svg" viewBox="0 0 512 512"><path d="M430.4 147H363l-40.5-40.8-.3-.2-.2-.2c-6-6-14-9.8-23.3-9.8h-84c-9.8 0-18.5 4.2-24.6 11l-39.4 40h-69C63 147 48 161.6 48 180.2v202C48 401 63 416 81.6 416h348.8c18.5 0 33.6-15 33.6-33.7v-202c0-18.7-15-33.3-33.6-33.3zM256 365.5c-51 0-92.4-41.6-92.4-92.6 0-51.2 41.5-92.7 92.4-92.7 51 0 92.4 41.5 92.4 92.6 0 51-41.4 92.5-92.4 92.5zm168-165c-7.6 0-14-6.3-14-14s6.4-14.2 14-14.2c7.8 0 14 6.3 14 14s-6.2 14.2-14 14.2z"/><path d="M256 203c-38.6 0-69.8 31.2-69.8 70 0 38.5 31.2 70 69.8 70 38.5 0 69.8-31.4 69.8-70 0-38.8-31.3-70-69.8-70z"/></svg>